<svg width="142" height="142" viewBox="0 0 142 142" fill="none" xmlns="http://www.w3.org/2000/svg">
<path d="M70.9365 0C72.1198 4.38311e-06 74.1252 0.357164 75.3047 2.71777L79.9082 11.9316C90.7659 33.5455 108.351 51.1491 129.951 62.0156L139.156 66.6221C141.519 67.6872 141.873 69.6945 141.873 70.875C141.873 72.0593 141.515 74.0666 139.156 75.2471L129.951 79.8535C108.236 90.72 90.7659 108.32 79.9082 129.938L75.3047 139.151C74.1213 141.516 72.116 141.869 70.9365 141.869C69.7533 141.869 67.7479 141.512 66.5684 139.151L61.9648 129.938C51.1072 108.205 33.522 90.72 11.9219 79.8535L2.7168 75.2471C0.353977 74.0628 1.12096e-05 71.9363 0 70.875C0 69.8099 0.357795 67.8025 2.7168 66.6221L11.9219 62.0156C33.6371 51.1491 51.1072 33.5494 61.9648 11.9316L66.5684 2.71777C67.7517 0.353307 69.7571 0 70.9365 0ZM70.9365 35.4678C70.335 35.4678 69.3125 35.6486 68.709 36.8545L66.3613 41.5527C60.8239 52.5779 51.9137 61.5547 40.8389 67.0967L36.1445 69.4453C34.9416 70.0473 34.7588 71.071 34.7588 71.6143C34.7588 72.1555 34.9395 73.2398 36.1445 73.8438L40.8389 76.1934C51.855 81.7353 60.8239 90.6525 66.3613 101.736L68.709 106.436C69.3106 107.639 70.3331 107.821 70.9365 107.821C71.538 107.821 72.5606 107.641 73.1641 106.436L75.5117 101.736C81.0491 90.7112 89.9594 81.7353 101.034 76.1934L105.729 73.8438C106.932 73.2417 107.114 72.2182 107.114 71.6143C107.114 71.0122 106.933 69.9884 105.729 69.4453L101.034 67.0967C90.018 61.5547 81.0491 52.5759 75.5117 41.5527L73.1641 36.8545C72.5625 35.6506 71.54 35.4678 70.9365 35.4678Z" fill="url(#paint0_linear_91_23774)"/>
<defs>
<linearGradient id="paint0_linear_91_23774" x1="70.9365" y1="-0.000976563" x2="70.9365" y2="141.869" gradientUnits="userSpaceOnUse">
<stop stop-color="#032FC1"/>
<stop offset="1" stop-color="#24DCFF"/>
</linearGradient>
</defs>
</svg>
