<svg width="258" height="101" viewBox="0 0 258 101" fill="none" xmlns="http://www.w3.org/2000/svg">
<path fill-rule="evenodd" clip-rule="evenodd" d="M198.48 26.8369C219.651 26.837 233.765 42.383 233.765 63.582C233.765 84.781 219.651 100.327 198.48 100.327C177.167 100.327 163.053 84.7811 163.053 63.582C163.053 42.383 177.167 26.8369 198.48 26.8369ZM198.48 46.764C189.023 46.764 183.801 53.5478 183.801 63.582C183.801 73.6162 189.023 80.3999 198.48 80.3999C207.795 80.3999 213.159 73.6162 213.159 63.582C213.158 53.5478 207.795 46.7641 198.48 46.764Z" fill="white"/>
<path d="M156.556 99.0248H136.09V0.0958094H156.556V99.0248Z" fill="white"/>
<path d="M81.4743 26.8369C92.0599 26.8369 97.9881 34.4687 98.9761 51.1453L101.799 98.9139H80.7686L78.5103 56.9397C78.0869 50.5801 75.6876 47.6123 71.03 47.6122C66.5135 47.6122 62.9849 50.5801 60.5855 56.0918V98.9139H40.1197V56.9397C40.1197 50.7213 37.438 47.6122 32.2157 47.6122C27.5581 47.6123 23.0415 51.1454 20.9244 56.2331V98.9139H0.458984V28.2503H20.9244V55.5266C23.6061 35.7408 30.5222 26.837 42.6603 26.8369C53.8105 26.8369 60.5855 34.4687 60.5855 51.1453V55.385C63.2672 35.7406 70.0419 26.837 81.4743 26.8369Z" fill="white"/>
<path d="M128.008 98.9139H107.543V28.2503H128.008V98.9139Z" fill="white"/>
<path d="M117.976 0.00488281C123.4 0.00488281 127.797 4.40673 127.797 9.83567C127.797 15.2646 123.4 19.6665 117.976 19.6665H107.543C107.543 19.6665 111.527 17.5539 110.208 15.8516C108.888 14.1493 108.155 12.0068 108.155 9.83567C108.155 4.40678 112.553 0.00495272 117.976 0.00488281Z" fill="white"/>
<path d="M240.966 0C241.25 0 241.732 0.0857159 242.015 0.652344L243.119 2.86328C245.725 8.05068 249.947 12.2758 255.132 14.8838L257.341 15.9893C257.908 16.2448 257.993 16.7264 257.993 17.0098C257.993 17.294 257.907 17.7763 257.341 18.0596L255.132 19.165C249.919 21.773 245.725 25.9972 243.119 31.1855L242.015 33.3965C241.731 33.9639 241.249 34.0488 240.966 34.0488C240.682 34.0488 240.201 33.9626 239.918 33.3965L238.812 31.1855C236.206 25.9696 231.985 21.773 226.801 19.165L224.591 18.0596C224.024 17.7753 223.939 17.2645 223.939 17.0098C223.939 16.7542 224.025 16.2725 224.591 15.9893L226.801 14.8838C232.013 12.2758 236.206 8.0516 238.812 2.86328L239.918 0.652344C240.202 0.0849917 240.683 5.50927e-05 240.966 0ZM240.965 8.5127C240.82 8.5127 240.575 8.55625 240.43 8.8457L239.866 9.97266C238.537 12.6187 236.399 14.7734 233.74 16.1035L232.613 16.667C232.325 16.8114 232.28 17.0571 232.28 17.1875C232.28 17.3174 232.324 17.5777 232.613 17.7227L233.74 18.2871C236.384 19.6172 238.537 21.7569 239.866 24.417L240.43 25.5449C240.574 25.8338 240.82 25.8779 240.965 25.8779C241.109 25.8779 241.354 25.8339 241.499 25.5449L242.062 24.417C243.392 21.7711 245.53 19.6172 248.188 18.2871L249.315 17.7227C249.604 17.5782 249.648 17.3325 249.648 17.1875C249.648 17.043 249.605 16.7973 249.315 16.667L248.188 16.1035C245.544 14.7734 243.392 12.6182 242.062 9.97266L241.499 8.8457C241.355 8.55696 241.11 8.51277 240.965 8.5127Z" fill="url(#paint0_linear_91_23796)"/>
<defs>
<linearGradient id="paint0_linear_91_23796" x1="240.966" y1="0" x2="240.966" y2="34.0488" gradientUnits="userSpaceOnUse">
<stop stop-color="#EBFBFF"/>
<stop offset="0.504808" stop-color="#C3F6FF"/>
<stop offset="1" stop-color="#24DCFF"/>
</linearGradient>
</defs>
</svg>
