<?xml version="1.0" standalone="no"?>
<!DOCTYPE svg PUBLIC "-//W3C//DTD SVG 1.1//EN" "http://www.w3.org/Graphics/SVG/1.1/DTD/svg11.dtd" >
<svg xmlns="http://www.w3.org/2000/svg" xmlns:xlink="http://www.w3.org/1999/xlink" version="1.1">
<metadata>
Created by FontForge 20201107 at Tue Aug 26 15:58:18 2025
 By 
\(c\)2017 Oakes is a trademark of Samuel Oakes. All rights reserved.
</metadata>
<defs>
<font id="OakesGrotesk-Semi-Bold" horiz-adv-x="0" >
  <font-face 
    font-family="Oakes Grotesk"
    font-weight="600"
    font-stretch="normal"
    units-per-em="2048"
    panose-1="0 0 4 0 0 0 0 0 0 0"
    ascent="1536"
    descent="-512"
    x-height="1124"
    cap-height="1536"
    bbox="-1540 -721 2435 2105"
    underline-thickness="96"
    underline-position="-204"
    unicode-range="U+000D-FB02"
  />
<missing-glyph horiz-adv-x="1226" 
d="M162 1536h903v-1536h-903v1536zM870 197v1144h-514v-1144h514z" />
    <glyph glyph-name="fi" unicode="fi" horiz-adv-x="1404" 
d="M262 0v907h-166v197h166v76q0 148 84 250.5t229 115.5q73 6 147.5 -10.5t106.5 -38.5v-201q-29 17 -67 29t-84 14.5t-80 -18.5q-78 -48 -78 -164v-53h244v-197h-244v-907h-258zM1128 1241q-60 0 -103.5 43.5t-43.5 104.5t43.5 104t103.5 43q62 0 105 -43t43 -104
t-43 -104.5t-105 -43.5zM993 1126h277v-1126h-277v1126z" />
    <glyph glyph-name="fl" unicode="fl" horiz-adv-x="1490" 
d="M262 0v907h-166v197h166v76q0 148 84 250.5t229 115.5q73 6 147.5 -10.5t106.5 -38.5v-201q-29 17 -67 29t-84 14.5t-80 -18.5q-78 -48 -78 -164v-53h244v-197h-244v-907h-258zM1059 0v1536h258v-1536h-258z" />
    <glyph glyph-name=".notdef" horiz-adv-x="1226" 
d="M162 1536h903v-1536h-903v1536zM870 197v1144h-514v-1144h514z" />
    <glyph glyph-name=".null" 
 />
    <glyph glyph-name="nonmarkingreturn" horiz-adv-x="682" 
 />
    <glyph glyph-name="CR" unicode="&#xd;" horiz-adv-x="512" 
 />
    <glyph glyph-name="space" unicode=" " horiz-adv-x="509" 
 />
    <glyph glyph-name="exclam" unicode="!" horiz-adv-x="618" 
d="M188 1536h238l-12 -1067h-213zM309 -6q-62 0 -105.5 44t-43.5 107q0 62 43 106t106 44q61 0 105.5 -44.5t44.5 -105.5t-45 -106t-105 -45z" />
    <glyph glyph-name="quotedbl" unicode="&#x22;" horiz-adv-x="585" 
d="M385 1538q46 0 80.5 -30.5t34.5 -90.5q0 -44 -20.5 -96t-41.5 -81l-20 -30h-74q-28 40 -51 95q-10 -24 -23.5 -48t-21.5 -35l-8 -12h-74q-9 12 -22 32.5t-34.5 75.5t-21.5 99q0 60 34.5 90.5t82.5 30.5q57 0 90 -39q33 39 90 39z" />
    <glyph glyph-name="numbersign" unicode="#" horiz-adv-x="1650" 
d="M408 344h-289l24 184h289l64 420h-293l30 182h285l49 349h183l-48 -349h357l49 349h184l-51 -349h293l-31 -182h-286l-60 -420h287l-25 -184h-286l-52 -344h-180l47 344h-360l-47 -344h-183zM973 528l61 420h-358l-60 -420h357z" />
    <glyph glyph-name="dollar" unicode="$" horiz-adv-x="1341" 
d="M797 891q56 -22 92 -37.5t87 -42t84.5 -50.5t70.5 -59.5t58 -73.5t35.5 -88.5t14.5 -107.5q0 -190 -122.5 -304t-319.5 -140v-162h-179v156q-217 18 -349.5 152.5t-153.5 340.5h239q9 -43 27 -80t48 -72t78 -59t111 -33v484l-16 6q-57 22 -91 36t-86 38.5t-83.5 46.5
t-68.5 54.5t-58 67t-35 80t-14 97.5q0 115 61.5 206t162.5 142t228 63v144h179v-146q193 -24 305 -143t149 -330h-245q-10 83 -62.5 151.5t-146.5 92.5v-430zM440 1151q0 -60 46.5 -104.5t131.5 -81.5v360q-79 -16 -128.5 -61t-49.5 -113zM797 238q169 41 172 190
q0 70 -44.5 120.5t-127.5 92.5v-403z" />
    <glyph glyph-name="percent" unicode="%" horiz-adv-x="1607" 
d="M397 850q-130 0 -220.5 102.5t-90.5 249.5q0 148 90.5 251t220.5 103q129 0 219.5 -103t90.5 -251q0 -146 -90.5 -249t-219.5 -103zM1190 1536h266l-1040 -1536h-264zM397 1044q45 0 80 46.5t35 111.5q0 66 -35 113t-80 47q-46 0 -80 -46.5t-34 -113.5q0 -65 34 -111.5
t80 -46.5zM1212 -20q-129 0 -219 103.5t-90 250.5t90 250.5t219 103.5t219.5 -104t90.5 -250t-90.5 -250t-219.5 -104zM1212 176q47 0 81 46t34 112t-34 112t-81 46q-48 0 -82 -45.5t-34 -112.5t34 -112.5t82 -45.5z" />
    <glyph glyph-name="ampersand" unicode="&#x26;" horiz-adv-x="1456" 
d="M627 -20q-129 0 -240 59.5t-176.5 161.5t-65.5 221q0 124 58 229.5t166 179.5q-127 148 -127 293q0 180 103 286.5t282 105.5q98 -1 179.5 -50.5t128 -134t46.5 -184.5q0 -108 -61 -202.5t-172 -160.5l260 -258l161 308h269l-258 -476l338 -364h-330l-160 164
q-172 -178 -401 -178zM592 948q162 77 162 201q0 66 -38 110t-95 44q-150 0 -150 -179q0 -75 121 -176zM631 215q134 0 239 117l-348 338q-72 -42 -109.5 -104t-37.5 -134q0 -98 69.5 -157.5t186.5 -59.5z" />
    <glyph glyph-name="quotesingle" unicode="'" horiz-adv-x="368" 
d="M223 1538q47 0 82 -30.5t35 -90.5q0 -44 -20.5 -96t-41.5 -81l-20 -30h-74q-9 12 -22 32.5t-34.5 75.5t-21.5 99q0 60 34.5 90.5t82.5 30.5z" />
    <glyph glyph-name="parenleft" unicode="(" horiz-adv-x="827" 
d="M535 -436q-158 140 -265.5 413.5t-107.5 587.5q0 352 117.5 626t300.5 427h159q-172 -175 -270 -468t-98 -585q0 -271 99 -552.5t241 -450.5z" />
    <glyph glyph-name="parenright" unicode=")" horiz-adv-x="827" 
d="M344 1616q160 -140 267.5 -412.5t107.5 -587.5q0 -180 -33 -345.5t-91.5 -296.5t-132 -234t-161.5 -178h-160q173 177 272 469.5t99 584.5q0 270 -100 552t-242 450z" />
    <glyph glyph-name="asterisk" unicode="*" horiz-adv-x="700" 
d="M158 1073l116 156l-194 -21v131l194 -22l-116 158l114 67l78 -180l80 180l115 -67l-119 -158l197 22v-131l-197 21l119 -156l-115 -67l-80 180l-78 -180z" />
    <glyph glyph-name="plus" unicode="+" horiz-adv-x="1591" 
d="M702 526h-501v193h501v512h191v-512h502v-193h-502v-512h-191v512z" />
    <glyph glyph-name="comma" unicode="," horiz-adv-x="460" 
d="M162 2q-45 15 -73 54t-28 87q0 62 43.5 106t106.5 44q61 0 103 -43.5t42 -106.5q0 -55 -43.5 -138t-97.5 -150h-137z" />
    <glyph glyph-name="hyphen" unicode="-" horiz-adv-x="1038" 
d="M162 621h717v-175h-717v175z" />
    <glyph glyph-name="period" unicode="." horiz-adv-x="432" 
d="M215 -20q-60 0 -106 45t-46 106t46 106.5t106 45.5q63 0 108.5 -45t45.5 -107t-45.5 -106.5t-108.5 -44.5z" />
    <glyph glyph-name="slash" unicode="/" horiz-adv-x="1165" 
d="M920 1536h241l-979 -2048h-243z" />
    <glyph glyph-name="zero" unicode="0" horiz-adv-x="1370" 
d="M686 -20q-122 0 -219.5 38t-165.5 106.5t-113.5 167t-66.5 217t-21 259.5q0 174 37.5 318t110 249t184.5 163t254 58q126 0 225.5 -38t167.5 -106.5t112.5 -167.5t64.5 -217t20 -259t-20 -259t-64.5 -217t-112.5 -167.5t-167.5 -106.5t-225.5 -38zM686 207q332 0 332 561
q0 563 -332 563q-328 0 -328 -563q0 -100 11 -183.5t36 -154.5t62.5 -119.5t93 -76t125.5 -27.5z" />
    <glyph glyph-name="one" unicode="1" horiz-adv-x="856" 
d="M375 1241l-318 -246v287l334 254h242v-1536h-258v1241z" />
    <glyph glyph-name="two" unicode="2" horiz-adv-x="1181" 
d="M90 186q184 193 286 301.5t195 212.5t132 153.5t69.5 100.5t36.5 79t6 67q0 114 -66 171.5t-161 59.5q-102 2 -168 -65.5t-60 -178.5l-247 3q-6 102 31 190.5t104.5 149t159 95t192.5 34.5q196 0 328 -120t135 -311q1 -47 -4 -86t-20.5 -82t-35.5 -81t-59 -90.5t-81 -102
t-111.5 -124t-140.5 -148t-176 -182.5l-5 -5h672v-227h-1012v186z" />
    <glyph glyph-name="three" unicode="3" horiz-adv-x="1214" 
d="M586 -20q-139 0 -257.5 59t-188.5 162t-70 225l254 4q9 -94 84 -152.5t178 -58.5q107 0 180.5 71t73.5 185q0 106 -70 178t-174 72h-121l-2 205h109q85 0 140.5 58.5t55.5 146.5q0 78 -65 131t-158 53q-82 0 -144 -47t-65 -117l-248 4q1 87 40.5 162t103 126t145.5 80
t168 29q125 0 230 -53t166 -144t61 -200q0 -91 -46 -166.5t-126 -122.5q117 -60 185.5 -164t68.5 -233q0 -212 -146.5 -352.5t-361.5 -140.5z" />
    <glyph glyph-name="four" unicode="4" horiz-adv-x="1261" 
d="M1163 324h-143v-324h-256v324h-733v163l667 1049h322v-985h143v-227zM764 551v729l-438 -729h438z" />
    <glyph glyph-name="five" unicode="5" horiz-adv-x="1261" 
d="M631 -20q-222 0 -364.5 117.5t-153.5 291.5h225q20 -81 99.5 -129t176.5 -45q127 5 208 86.5t81 206.5q0 126 -83 211.5t-206 85.5q-71 0 -142 -30.5t-122 -84.5l-209 96l78 746h846v-225h-645l-43 -375q54 46 135 72t168 26q209 0 345 -145t136 -367q0 -235 -150 -386.5
t-380 -151.5z" />
    <glyph glyph-name="six" unicode="6" horiz-adv-x="1314" 
d="M662 -14q-97 0 -191 37t-169 101.5t-126 158.5t-63 202q-15 129 -15 246q0 360 134 572t397 241q46 4 63 4q103 0 196 -35t159 -94t108 -136.5t49 -162.5h-248q-6 86 -73 142.5t-181 56.5q-164 0 -263 -107t-122 -321q27 49 77 84.5t105 51t95.5 22t69.5 6.5
q241 0 386.5 -140t159.5 -370q5 -112 -36 -215.5t-114.5 -178.5t-177.5 -120t-220 -45zM659 199q134 0 225 92.5t91 222.5q0 138 -95.5 227.5t-234.5 89.5q-125 0 -211 -92t-86 -221q0 -136 90 -227.5t221 -91.5z" />
    <glyph glyph-name="seven" unicode="7" horiz-adv-x="1146" 
d="M831 1311h-759v225h1044v-182l-737 -1354h-283z" />
    <glyph glyph-name="eight" unicode="8" horiz-adv-x="1187" 
d="M872 856q113 -61 178.5 -166t65.5 -233q0 -202 -149.5 -339.5t-372.5 -137.5q-222 0 -371 137.5t-149 339.5q0 129 64.5 233.5t176.5 163.5q-75 56 -120 134.5t-45 170.5q0 167 129 282t315 115t315 -115t129 -282q0 -91 -45.5 -170t-120.5 -133zM596 1354
q-93 0 -162 -62.5t-69 -152.5q0 -89 69.5 -152t161.5 -63q91 0 159 63t68 152q0 91 -68 153t-159 62zM594 207q112 0 187 78.5t75 191.5q0 111 -75 185.5t-187 74.5q-110 0 -186 -75t-76 -185q0 -113 76 -191.5t186 -78.5z" />
    <glyph glyph-name="nine" unicode="9" horiz-adv-x="1314" 
d="M649 -10q-212 0 -351.5 115t-158.5 303l252 -5q2 -78 71.5 -131t190.5 -53q31 0 47 2q127 15 205 122.5t99 279.5q-38 -43 -89 -74t-99 -43.5t-79.5 -17.5t-52.5 -5q-237 0 -390 144.5t-159 369.5q-5 150 67 280t200.5 207t281.5 77q213 0 369 -145.5t182 -364.5
q14 -123 14 -250q0 -146 -22 -268.5t-68.5 -223.5t-116.5 -171.5t-169.5 -109t-223.5 -38.5zM688 694q133 0 222 92t89 226q0 133 -91 224t-222 91q-132 0 -223.5 -93.5t-91.5 -225.5q0 -135 92 -224.5t225 -89.5z" />
    <glyph glyph-name="colon" unicode=":" horiz-adv-x="624" 
d="M313 743q-63 0 -107 44t-44 106q0 63 44 107t107 44q62 0 107 -44t45 -107q0 -61 -45 -105.5t-107 -44.5zM313 -20q-63 0 -107 44.5t-44 106.5t44 107t107 45q61 0 106.5 -45.5t45.5 -106.5t-45 -106t-107 -45z" />
    <glyph glyph-name="semicolon" unicode=";" horiz-adv-x="634" 
d="M295 731q-60 0 -105 44.5t-45 105.5q0 60 45 104.5t105 44.5q63 0 106 -43.5t43 -105.5t-43 -106t-106 -44zM248 0q-45 18 -73 56t-28 85q0 63 44 106.5t106 43.5q61 0 103 -43.5t42 -106.5q0 -54 -43 -136.5t-98 -151.5h-137z" />
    <glyph glyph-name="less" unicode="&#x3c;" horiz-adv-x="1452" 
d="M1292 1210l-932 -471l932 -471v-215l-1130 572v231l1130 567v-213z" />
    <glyph glyph-name="equal" unicode="=" horiz-adv-x="1427" 
d="M100 825h1229v-163h-1229v163zM100 426h1229v-166h-1229v166z" />
    <glyph glyph-name="greater" unicode="&#x3e;" horiz-adv-x="1452" 
d="M1292 856v-231l-1130 -572v215l930 471l-930 471v213z" />
    <glyph glyph-name="question" unicode="?" horiz-adv-x="1165" 
d="M467 498q0 65 20.5 122.5t53 99t72 79.5t79.5 72t72.5 67.5t53 74t20.5 85.5q0 98 -73.5 163.5t-182.5 65.5q-117 0 -189 -77t-63 -191h-230q-12 209 126.5 351t355.5 142q205 0 344 -131t139 -323q0 -56 -20 -109t-52.5 -96t-71.5 -84t-78.5 -77.5t-72 -71.5t-52.5 -72
t-20 -72v-123h-231v105zM590 -20q-62 0 -106 44t-44 107t44 107.5t106 44.5q63 0 107 -44.5t44 -107.5t-44 -107t-107 -44z" />
    <glyph glyph-name="at" unicode="@" horiz-adv-x="1220" 
d="M688 -41q-136 0 -253 46.5t-199.5 128.5t-129.5 197.5t-47 248.5q0 175 86.5 323.5t235.5 235t324 86.5q261 0 429.5 -157.5t168.5 -403.5q0 -177 -82.5 -289.5t-212.5 -112.5q-124 0 -174 84q-86 -92 -201 -92q-123 0 -198 80.5t-75 212.5q0 154 94.5 263.5t227.5 109.5
q87 0 147 -48l2 35h177l-45 -391q-7 -54 4 -76t41 -22q59 0 95 65.5t36 178.5q0 186 -117.5 295.5t-316.5 109.5q-204 0 -340 -138t-136 -347q0 -207 127 -336t332 -129v-158zM647 410q62 0 109 62t47 146q0 69 -30 106.5t-85 37.5q-63 0 -107 -61.5t-44 -153.5
q0 -66 28.5 -101.5t81.5 -35.5z" />
    <glyph glyph-name="A" unicode="A" horiz-adv-x="1568" 
d="M1124 334h-690l-127 -334h-289l617 1536h297l616 -1536h-286zM1049 565l-265 701l-272 -701h537z" />
    <glyph glyph-name="B" unicode="B" horiz-adv-x="1312" 
d="M977 797q135 -36 215 -135.5t80 -247.5q0 -187 -126.5 -300.5t-316.5 -113.5h-718v1536h624q191 0 318 -114.5t127 -303.5q0 -115 -56 -198t-147 -123zM915 1092q0 87 -61.5 150t-148.5 63h-330v-408h330q89 0 149.5 54.5t60.5 140.5zM793 233q88 0 149.5 63t61.5 150
q0 90 -62 162t-149 72h-418v-447h418z" />
    <glyph glyph-name="C" unicode="C" horiz-adv-x="1642" 
d="M819 -20q-215 -1 -386 105t-264 286t-93 397t92.5 396.5t263.5 285.5t387 106q148 0 274.5 -46t214 -126t141 -187t62.5 -228h-256q-7 45 -25.5 89t-54 89t-83.5 79t-118.5 55.5t-154.5 21.5q-150 0 -262.5 -71.5t-170.5 -192.5t-58 -271t58 -271t170.5 -192.5
t262.5 -71.5q97 0 179 30.5t134 79t83.5 103t39.5 107.5h256q-10 -105 -66.5 -207.5t-146 -183.5t-215.5 -131t-264 -51z" />
    <glyph glyph-name="D" unicode="D" horiz-adv-x="1490" 
d="M129 1536h510q128 0 242.5 -30.5t211 -93.5t166.5 -153.5t109 -217t39 -277.5q0 -181 -60 -327.5t-165 -241t-244 -145t-299 -50.5h-510v1536zM637 233q109 0 199.5 31.5t160 94.5t108 166.5t38.5 238.5q0 144 -38.5 250.5t-108.5 169t-159 92t-200 29.5h-244v-1072h244z
" />
    <glyph glyph-name="E" unicode="E" horiz-adv-x="1222" 
d="M383 1305v-420h639v-234h-639v-418h725v-233h-991v1536h991v-231h-725z" />
    <glyph glyph-name="F" unicode="F" horiz-adv-x="1153" 
d="M385 1305v-420h625v-234h-625v-651h-266v1536h977v-231h-711z" />
    <glyph glyph-name="G" unicode="G" horiz-adv-x="1581" 
d="M1479 809v-262v-547h-179l-36 205q-83 -113 -198.5 -164t-285.5 -51q-217 0 -382.5 99t-253 273.5t-87.5 399.5q0 231 89 409t250.5 275.5t371.5 97.5q177 0 320 -56t240 -176t118 -292h-256q-27 131 -137.5 207t-259.5 76q-233 0 -361.5 -144t-128.5 -397
q0 -120 38.5 -221t104 -168t151.5 -104.5t181 -37.5q192 0 311 95.5t119 257.5h-383v225h654z" />
    <glyph glyph-name="H" unicode="H" horiz-adv-x="1513" 
d="M1380 1536v-1536h-266v651h-715v-651h-266v1536h266v-649h715v649h266z" />
    <glyph glyph-name="I" unicode="I" horiz-adv-x="538" 
d="M133 1536h266v-1536h-266v1536z" />
    <glyph glyph-name="J" unicode="J" horiz-adv-x="759" 
d="M240 -20q-104 0 -162 20v270q67 -24 145 -24q54 0 93.5 39t39.5 94v1157h265v-1180q0 -166 -108 -271t-273 -105z" />
    <glyph glyph-name="K" unicode="K" horiz-adv-x="1390" 
d="M1032 0l-643 694v-694h-266v1536h266v-696l563 696h310l-598 -758l716 -778h-348z" />
    <glyph glyph-name="L" unicode="L" horiz-adv-x="991" 
d="M119 1536h266v-1303h533v-233h-799v1536z" />
    <glyph glyph-name="M" unicode="M" horiz-adv-x="1884" 
d="M1751 1536v-1536h-264v1159l-416 -1159h-262l-420 1159v-1159h-266v1536h373l442 -1194l444 1194h369z" />
    <glyph glyph-name="N" unicode="N" horiz-adv-x="1607" 
d="M1479 1536v-1536h-267l-833 1128v-1128h-266v1536h268l833 -1126v1126h265z" />
    <glyph glyph-name="O" unicode="O" horiz-adv-x="1646" 
d="M819 -20q-216 0 -388.5 106t-266.5 285.5t-94 396.5t94 396.5t266.5 285.5t388.5 106q162 0 303 -62t238.5 -168t153 -251t55.5 -307t-55.5 -307t-153 -251t-238.5 -168t-303 -62zM819 238q225 0 359.5 150t134.5 380q0 231 -134.5 381.5t-359.5 150.5
q-224 0 -359.5 -150.5t-135.5 -381.5q0 -229 135.5 -379.5t359.5 -150.5z" />
    <glyph glyph-name="P" unicode="P" horiz-adv-x="1294" 
d="M795 1536q121 0 225 -69t162.5 -180t58.5 -234q0 -124 -58.5 -234t-162 -177t-225.5 -67h-410v-575h-266v1536h676zM770 795q94 0 161.5 78t67.5 178q0 98 -68 176t-161 78h-385v-510h385z" />
    <glyph glyph-name="Q" unicode="Q" horiz-adv-x="1648" 
d="M1616 205v-205h-57q-69 0 -140 29t-121 84l-22 20q-196 -153 -457 -153q-216 0 -388.5 106t-266.5 285.5t-94 396.5t94 396.5t266.5 285.5t388.5 106q162 0 303 -62t238.5 -168t153 -251t55.5 -307q0 -270 -144 -475l35 -37q51 -51 135 -51h21zM819 238q162 0 281 81
l-228 240l150 154l221 -230q70 128 70 285q0 231 -134.5 381.5t-359.5 150.5q-224 0 -359.5 -150.5t-135.5 -381.5q0 -229 135.5 -379.5t359.5 -150.5z" />
    <glyph glyph-name="R" unicode="R" horiz-adv-x="1374" 
d="M1305 0h-299l-367 592h-260v-592h-266v1536h675q122 0 225.5 -69t162.5 -180.5t59 -235.5q0 -155 -93.5 -283t-234.5 -160zM778 801q92 0 153.5 72.5t61.5 179.5q0 106 -62 179t-153 73h-399v-504h399z" />
    <glyph glyph-name="S" unicode="S" horiz-adv-x="1290" 
d="M657 -20q-244 0 -396 137.5t-173 357.5h238q11 -48 33.5 -89.5t61.5 -78.5t101.5 -58.5t143.5 -21.5q128 0 206.5 50.5t79.5 150.5q0 37 -13 69.5t-38.5 58t-56 47t-72.5 41t-81.5 35.5t-88.5 34q-15 5 -22 8q-57 21 -93 35.5t-87.5 39t-84 46.5t-69.5 54.5t-58 67
t-35 80t-14 97.5q0 126 74 222t193.5 144.5t261.5 48.5q477 0 561 -473h-246q-12 101 -91.5 175.5t-217.5 74.5q-106 0 -184 -49t-78 -133q0 -29 10.5 -54.5t36.5 -48.5t48.5 -39t68 -36.5t72 -31.5t81.5 -32q177 -71 241 -105q186 -101 234 -248q19 -57 19 -124
q0 -110 -45 -197.5t-123.5 -142.5t-180 -83.5t-217.5 -28.5z" />
    <glyph glyph-name="T" unicode="T" horiz-adv-x="1241" 
d="M1190 1305h-445v-1305h-262v1305h-446v231h1153v-231z" />
    <glyph glyph-name="U" unicode="U" horiz-adv-x="1482" 
d="M731 -20q-169 0 -310.5 69t-222.5 188t-81 261v1038h266v-991q0 -138 101.5 -235t246.5 -97t248.5 97t103.5 235v991h267v-1038q0 -142 -83 -261.5t-225.5 -188t-310.5 -68.5z" />
    <glyph glyph-name="V" unicode="V" horiz-adv-x="1548" 
d="M1532 1536l-617 -1536h-299l-616 1536h299l467 -1227l467 1227h299z" />
    <glyph glyph-name="W" unicode="W" horiz-adv-x="2308" 
d="M2253 1536l-441 -1536h-292l-367 1083l-338 -1083h-293l-473 1536h289l338 -1241l346 1241h264l373 -1243l307 1243h287z" />
    <glyph glyph-name="X" unicode="X" horiz-adv-x="1372" 
d="M1053 0l-369 567l-367 -567h-303l527 786l-504 750h303l344 -530l348 530h301l-506 -750l531 -786h-305z" />
    <glyph glyph-name="Y" unicode="Y" horiz-adv-x="1368" 
d="M817 727v-727h-264v723l-539 813h297l373 -586l377 586h293z" />
    <glyph glyph-name="Z" unicode="Z" horiz-adv-x="1320" 
d="M1243 233v-233h-1169v141l798 1164h-778v231h1137v-141l-801 -1162h813z" />
    <glyph glyph-name="bracketleft" unicode="[" horiz-adv-x="608" 
d="M143 1745h488v-162h-264v-2142h264v-162h-488v2466z" />
    <glyph glyph-name="backslash" unicode="\" horiz-adv-x="1236" 
d="M-29 1536l373 -512l784 -1536l-370 512z" />
    <glyph glyph-name="bracketright" unicode="]" horiz-adv-x="608" 
d="M143 -559h265v2142h-265v162h488v-2466h-488v162z" />
    <glyph glyph-name="asciicircum" unicode="^" horiz-adv-x="1445" 
d="M1192 406l-469 929l-469 -929h-215l569 1130h230l569 -1130h-215z" />
    <glyph glyph-name="underscore" unicode="_" horiz-adv-x="1345" 
d="M162 0h1024v-172h-1024v172z" />
    <glyph glyph-name="grave" unicode="`" horiz-adv-x="63" 
d="M39 1536h260l174 -334h-197z" />
    <glyph glyph-name="a" unicode="a" horiz-adv-x="1159" 
d="M432 -14q-165 0 -267 89t-102 244q0 151 126 245t335 112l240 20v25q0 201 -205 201q-97 0 -161.5 -47t-73.5 -144h-232q6 82 35.5 152t84 128.5t146 92t209.5 33.5q210 0 330.5 -106t120.5 -314v-369q0 -141 88 -141v-207h-76q-35 2 -56.5 4t-53 9.5t-52.5 20t-42 36.5
t-35 57q-47 -63 -145.5 -102t-213.5 -39zM498 193q85 0 156.5 42.5t109.5 104.5v174l-189 -20q-118 -13 -179.5 -54.5t-61.5 -107.5q0 -63 47 -101t117 -38z" />
    <glyph glyph-name="b" unicode="b" horiz-adv-x="1263" 
d="M709 1137q150 0 268.5 -75.5t184 -206t65.5 -292.5q0 -161 -65.5 -291.5t-184 -206t-268.5 -75.5q-218 0 -347 153l-18 -143l-242 2v1536h277v-539q126 138 330 138zM657 229q129 0 211 96.5t82 237.5q0 142 -81.5 239t-211.5 97q-98 0 -173 -61t-105 -160v-227
q30 -100 105 -161t173 -61z" />
    <glyph glyph-name="c" unicode="c" horiz-adv-x="1173" 
d="M584 -10q-243 0 -391 161t-148 414q0 254 147.5 413t391.5 159q112 0 203.5 -28t150 -72.5t100 -103.5t61 -116.5t25.5 -116.5h-247q-11 86 -88 146.5t-183 60.5q-137 0 -212 -93t-75 -249q0 -155 76.5 -249.5t212.5 -94.5q102 0 177.5 64t91.5 151h245
q-7 -63 -26.5 -121t-60.5 -119t-99 -105t-148.5 -72.5t-203.5 -28.5z" />
    <glyph glyph-name="d" unicode="d" horiz-adv-x="1265" 
d="M1180 1534v-1532l-242 -2l-23 133q-125 -143 -342 -143q-227 0 -371.5 160t-144.5 405q0 162 65 294.5t184 210t269 77.5q194 0 328 -144v541h277zM627 223q96 0 170.5 60t105.5 157v232q-32 98 -106 158.5t-170 60.5q-131 0 -212 -96t-81 -240q0 -141 81 -236.5
t212 -95.5z" />
    <glyph glyph-name="e" unicode="e" horiz-adv-x="1161" 
d="M1110 567q0 -39 -6 -88h-787q10 -128 89 -202t188 -74q90 0 161.5 37.5t106.5 113.5h225q-12 -71 -47.5 -134t-94.5 -115.5t-150.5 -83.5t-202.5 -31q-243 0 -393 162t-150 411q0 253 144.5 413.5t398.5 160.5q240 0 379 -154.5t139 -415.5zM590 920q-113 0 -179.5 -65.5
t-86.5 -180.5h520q-15 117 -79 181.5t-175 64.5z" />
    <glyph glyph-name="f" unicode="f" horiz-adv-x="870" 
d="M262 0v907h-166v197h166v76q0 148 84 250.5t229 115.5q73 6 147.5 -10.5t106.5 -38.5v-201q-29 17 -67 29t-84 14.5t-80 -18.5q-78 -48 -78 -164v-53h244v-197h-244v-907h-258z" />
    <glyph glyph-name="g" unicode="g" horiz-adv-x="1177" 
d="M580 -508q-224 -4 -360 78t-157 213q-12 78 21.5 165.5t112.5 131.5q-46 16 -81.5 65.5t-35.5 106.5q0 125 149 205q-51 49 -87 128.5t-36 166.5q0 161 131 275t332 114q72 0 157 -21.5t130 -56.5q16 50 64.5 87.5t103 51t96.5 4.5v-174q-48 15 -94 -1t-65 -64
q92 -119 92 -230q0 -182 -135.5 -297.5t-337.5 -120.5q-137 -7 -215 41q-34 -12 -50.5 -35t-7.5 -46q8 -27 48 -46t112 -20l223 -2q180 -3 291.5 -76.5t126.5 -206.5q21 -202 -124.5 -316t-403.5 -120zM793 739q0 85 -62.5 134t-161.5 49q-96 0 -156.5 -50.5t-60.5 -134.5
t61 -136t156 -52q99 0 161.5 52t62.5 138zM856 -119q-5 121 -283 121h-174q-45 -11 -71.5 -52t-26.5 -85q0 -75 71 -115.5t187 -40.5q139 0 221 47t76 125z" />
    <glyph glyph-name="h" unicode="h" horiz-adv-x="1245" 
d="M760 1137q194 0 304 -108.5t110 -301.5v-727h-281v692q0 96 -56 147.5t-159 51.5q-110 0 -192.5 -59.5t-82.5 -155.5v-676h-280v1536h280v-547q61 67 158.5 107.5t198.5 40.5z" />
    <glyph glyph-name="i" unicode="i" horiz-adv-x="534" 
d="M258 1241q-60 0 -103.5 43.5t-43.5 104.5t43.5 104t103.5 43q62 0 105 -43t43 -104t-43 -104.5t-105 -43.5zM123 1126h276v-1126h-276v1126z" />
    <glyph glyph-name="j" unicode="j" horiz-adv-x="577" 
d="M328 1235q-63 0 -108.5 44t-45.5 107q0 61 45.5 105.5t108.5 44.5q60 0 104.5 -44.5t44.5 -105.5q0 -62 -44.5 -106.5t-104.5 -44.5zM-16 -510v227h49q86 0 125 35.5t39 118.5v1255h258v-1276q0 -74 -18.5 -133.5t-52 -97.5t-74 -64.5t-90.5 -40t-94 -19t-93 -5.5h-49z
" />
    <glyph glyph-name="k" unicode="k" horiz-adv-x="1093" 
d="M111 0v1536h280v-836l344 426h291l-434 -518l485 -608h-297l-389 492v-492h-280z" />
    <glyph glyph-name="l" unicode="l" horiz-adv-x="581" 
d="M150 0v1536h258v-1536h-258z" />
    <glyph glyph-name="m" unicode="m" horiz-adv-x="1937" 
d="M1452 1139q186 0 288.5 -106.5t102.5 -297.5v-735h-280v702q0 93 -48 143t-141 50q-103 0 -177.5 -59t-74.5 -154v-682h-282v702q0 93 -47.5 143t-139.5 50q-103 0 -178.5 -59t-75.5 -154v-682h-280v1126h252l14 -139q57 69 150.5 110.5t193.5 41.5q212 0 330 -189
q62 85 169.5 137t223.5 52z" />
    <glyph glyph-name="n" unicode="n" horiz-adv-x="1247" 
d="M741 1141q193 0 302.5 -109t109.5 -303v-729h-279v696q0 96 -55 147.5t-157 51.5q-111 0 -193 -59t-82 -154v-682h-281v1126h250l19 -147q61 74 161 118t205 44z" />
    <glyph glyph-name="o" unicode="o" horiz-adv-x="1247" 
d="M625 -14q-164 0 -295 77t-203 209t-72 293q0 162 72 294t203 209t295 77t295 -77t203.5 -209t72.5 -294q0 -161 -72.5 -293t-203.5 -209t-295 -77zM625 231q130 0 212.5 96t82.5 238t-82.5 239t-212.5 97q-131 0 -213 -97t-82 -239t82 -238t213 -96z" />
    <glyph glyph-name="p" unicode="p" horiz-adv-x="1257" 
d="M709 1137q227 0 371.5 -162t144.5 -408q0 -161 -65 -292.5t-184 -208t-269 -76.5q-203 0 -328 141v-672h-279v1665h258l21 -120q118 133 330 133zM655 236q130 0 211.5 94.5t81.5 236.5q0 143 -81.5 239.5t-211.5 96.5q-98 0 -173 -61.5t-103 -159.5v-227
q28 -98 103 -158.5t173 -60.5z" />
    <glyph glyph-name="q" unicode="q" horiz-adv-x="1249" 
d="M1169 1130v-1665l-276 -2v672q-132 -145 -328 -145q-113 0 -210 45.5t-164.5 123.5t-105.5 185.5t-38 228.5q0 161 65 289.5t183.5 201.5t269.5 73q213 0 328 -129l18 122h258zM618 240q95 0 169.5 60t105.5 157v231q-31 97 -105.5 158t-169.5 61q-131 0 -212.5 -96
t-81.5 -238t81.5 -237.5t212.5 -95.5z" />
    <glyph glyph-name="r" unicode="r" horiz-adv-x="831" 
d="M799 1139v-244q-204 3 -310 -83t-106 -284v-528h-281v1126h260l19 -170q35 76 139.5 131t278.5 52z" />
    <glyph glyph-name="s" unicode="s" horiz-adv-x="1054" 
d="M551 -16q-114 0 -207 33.5t-151 88t-91 118.5t-39 130h238q17 -75 87 -123t155 -45q85 4 127.5 40.5t42.5 97.5q0 27 -13.5 49t-34 37t-56 29.5t-67 23t-79.5 20.5q-63 16 -106 29.5t-97.5 39.5t-87.5 56.5t-56.5 79.5t-23.5 109q0 158 124 253t321 95q80 0 153 -21
t134.5 -62t102 -109t48.5 -154h-238q-14 63 -66.5 97.5t-121.5 37.5q-75 5 -123.5 -23t-48.5 -82q0 -24 13 -44t28.5 -32t51.5 -26t57 -20.5t71 -19.5l33 -9q60 -17 103 -32.5t95 -44t84.5 -62t55 -85.5t22.5 -116q0 -160 -121 -257t-319 -97z" />
    <glyph glyph-name="t" unicode="t" horiz-adv-x="860" 
d="M659 -2q-56 0 -97 2.5t-87.5 11t-79.5 24t-65 42t-51 64t-31 91.5t-12 123v553h-187v221h187v406h260v-406h290v-221h-292v-532q0 -83 39.5 -118.5t125.5 -35.5h136v-225h-136z" />
    <glyph glyph-name="u" unicode="u" horiz-adv-x="1271" 
d="M1171 1126v-1126h-249l-19 152q-62 -75 -161 -118.5t-203 -43.5q-186 0 -303 120.5t-117 309.5v706h280v-673q0 -99 58 -158t159 -59q109 0 192 61t83 156v673h280z" />
    <glyph glyph-name="v" unicode="v" horiz-adv-x="1234" 
d="M1212 1124l-448 -1124h-266l-447 1124h299l281 -807l280 807h301z" />
    <glyph glyph-name="w" unicode="w" horiz-adv-x="1730" 
d="M1710 1124l-354 -1124h-318l-164 596l-161 -596h-316l-356 1124h317l205 -798l201 798h244l196 -800l193 800h313z" />
    <glyph glyph-name="x" unicode="x" horiz-adv-x="1241" 
d="M795 559l387 -559h-320l-235 360l-234 -360h-323l387 561l-387 565h319l238 -366l235 366h320z" />
    <glyph glyph-name="y" unicode="y" horiz-adv-x="1275" 
d="M1227 1126l-674 -1679h-254l256 631h-61l-435 1048h277l323 -772l299 772h269z" />
    <glyph glyph-name="z" unicode="z" horiz-adv-x="1120" 
d="M102 203l588 694h-581v229h940v-196l-590 -701h600v-229h-957v203z" />
    <glyph glyph-name="braceleft" unicode="{" horiz-adv-x="679" 
d="M475 -686q-104 0 -173 88.5t-69 216.5v494q0 109 -11.5 164t-43 90t-98.5 65v158q68 30 99.5 65t42.5 89.5t11 162.5v490q0 128 69 216.5t173 88.5h123v-162q-44 0 -67.5 -2t-46.5 -9t-32.5 -22.5t-15.5 -40.5t-6 -65v-524q0 -129 -26.5 -216.5t-96.5 -150.5
q70 -61 96.5 -148.5t26.5 -218.5v-534q0 -74 32.5 -100.5t135.5 -26.5v-168h-123z" />
    <glyph glyph-name="bar" unicode="|" horiz-adv-x="579" 
d="M209 1536h162v-1843h-162v1843z" />
    <glyph glyph-name="braceright" unicode="}" horiz-adv-x="679" 
d="M82 -518q103 0 135.5 26.5t32.5 100.5v534q0 129 27 217.5t96 149.5q-69 63 -96 151t-27 216v524q0 33 -3 55.5t-12 38.5t-19.5 24.5t-32 13.5t-43 6t-58.5 1v166h125q103 0 172.5 -88t69.5 -217v-494q0 -108 11 -162.5t42.5 -89.5t99.5 -65v-158q-98 -44 -125.5 -102.5
t-27.5 -216.5v-494q0 -128 -70 -216.5t-172 -88.5h-125v168z" />
    <glyph glyph-name="asciitilde" unicode="~" horiz-adv-x="1122" 
d="M778 350q-46 0 -86.5 13t-75 38.5t-54 44t-47.5 48.5q-8 8 -11 12q-39 44 -73 66t-75 22q-76 0 -120 -64.5t-33 -156.5h-135q-15 154 67 254t221 100q81 0 141 -37t119 -112q38 -47 71.5 -71t80.5 -24q74 0 119.5 61t32.5 156h133q20 -148 -61 -249t-214 -101z" />
    <glyph glyph-name="exclamdown" unicode="&#xa1;" horiz-adv-x="624" 
d="M313 723q-63 0 -107 43t-44 106t44 107.5t107 44.5q62 0 107 -44.5t45 -107.5q0 -62 -45 -105.5t-107 -43.5zM215 532h195l30 -1044h-256z" />
    <glyph glyph-name="cent" unicode="&#xa2;" horiz-adv-x="1009" 
d="M649 1024q-128 0 -217.5 -89t-89.5 -218q0 -127 89.5 -216t217.5 -89q154 0 242 77v-247q-98 -52 -219 -58v-186h-152v201q-190 40 -312 183.5t-122 334.5t122 334.5t312 183.5v201h152v-187q118 -6 219 -55v-248q-89 78 -242 78z" />
    <glyph glyph-name="sterling" unicode="&#xa3;" horiz-adv-x="1255" 
d="M61 825h115q-24 117 -24 211q0 203 137.5 334t349.5 131q226 0 356 -134.5t123 -362.5h-246q-12 143 -63.5 201.5t-169.5 58.5q-104 0 -165.5 -62.5t-61.5 -165.5q0 -101 26 -211h453v-229h-399q20 -95 20 -186q0 -57 -14 -103q42 -13 152.5 -60.5t158.5 -47.5
q73 0 100 44t21 154h241q13 -196 -86 -318t-268 -122q-68 0 -140.5 21.5t-122.5 48t-103 48t-86 21.5q-92 0 -68 -125h-246q-15 117 41.5 212.5t157.5 131.5q16 50 16 97q0 86 -26 184h-179v229z" />
    <glyph glyph-name="currency" unicode="&#xa4;" horiz-adv-x="1267" 
d="M125 377l108 106q-79 118 -78.5 261t78.5 262l-106 102l137 145l109 -110q118 80 261 80.5t261 -80.5l106 108l140 -139l-107 -104q80 -120 80 -264t-80 -263l105 -104l-135 -144l-109 111q-117 -80 -262 -80t-262 80l-109 -111zM428 543q87 -85 205 -85.5t203 85.5
q83 83 83 201.5t-83 201.5t-202 83t-204 -85q-81 -84 -81.5 -202t79.5 -199z" />
    <glyph glyph-name="yen" unicode="&#xa5;" horiz-adv-x="1386" 
d="M819 760h369v-166h-381v-168h381v-154h-381v-272h-225v272h-377v154h377v168h-377v166h362l-10 24l-498 752h240l395 -614l396 614h237l-493 -748z" />
    <glyph glyph-name="brokenbar" unicode="&#xa6;" horiz-adv-x="579" 
d="M209 1536h162v-737h-162v737zM209 430h162v-737h-162v737z" />
    <glyph glyph-name="section" unicode="&#xa7;" horiz-adv-x="1271" 
d="M1085 528q82 -76 82 -186q0 -97 -72.5 -175t-191 -120.5t-256.5 -42.5q-177 0 -322 69t-210 175l159 96q40 -71 142 -116.5t241 -45.5q134 0 227 44t93 120q0 47 -44 81.5t-114 55.5t-154.5 40t-169.5 44.5t-155 60.5t-114 96t-44 142q0 111 78 189q-78 75 -78 178
q0 77 39 140t104 102t146 60t168 21q128 0 246.5 -42t187.5 -111l-129 -107q-50 45 -128 71t-167 26q-115 0 -195.5 -40.5t-80.5 -109.5q0 -48 44 -82t114 -55.5t154.5 -41t169 -45.5t154.5 -62t114 -98t44 -146q0 -103 -82 -185zM373 874q0 -44 34 -77t96 -55t127.5 -38.5
t152 -39.5t145.5 -46q49 46 49 97q0 43 -34 75t-96.5 53.5t-128.5 37.5t-152 38.5t-144 45.5q-49 -36 -49 -91z" />
    <glyph glyph-name="dieresis" unicode="&#xa8;" horiz-adv-x="63" 
d="M256 1190q-63 0 -107.5 44t-44.5 107q0 62 44.5 106t107.5 44q62 0 107 -44.5t45 -105.5q0 -63 -45 -107t-107 -44zM680 1190q-62 0 -107 44t-45 107q0 61 45 105.5t107 44.5t106.5 -44.5t44.5 -105.5q0 -63 -44.5 -107t-106.5 -44z" />
    <glyph glyph-name="copyright" unicode="&#xa9;" horiz-adv-x="1746" 
d="M874 -20q-160 0 -306 62.5t-251.5 168t-168 251.5t-62.5 306t62.5 306t168 251.5t251.5 168t306 62.5q128 0 248.5 -40t217.5 -113t170 -170t113 -217t40 -248t-40 -248t-113 -217t-170 -170t-217.5 -113t-248.5 -40zM874 121q178 0 327.5 85.5t236 234.5t86.5 327
t-86.5 327.5t-236 235.5t-327.5 86q-133 0 -253.5 -51t-207 -137.5t-137.5 -207t-51 -253.5t51 -253t137.5 -206.5t206.5 -137t254 -50.5zM866 360q-168 -1 -277.5 117.5t-109.5 292.5q0 173 109 291.5t278 118.5q156 0 255 -92t104 -220h-140q-10 69 -67 120.5t-152 51.5
q-113 0 -180.5 -76.5t-67.5 -193.5t67.5 -192.5t180.5 -75.5q92 0 152 51t65 111h142q-3 -53 -31.5 -107t-74.5 -98t-113 -71.5t-140 -27.5z" />
    <glyph glyph-name="ordfeminine" unicode="&#xaa;" horiz-adv-x="821" 
d="M723 1536v-614h-127v110q-39 -58 -100 -90.5t-134 -32.5q-129 0 -219 93t-90 227q0 133 90 226t219 93q72 0 133.5 -33t100.5 -90v111h127zM387 1020q86 0 147.5 61.5t61.5 147.5t-61.5 147.5t-147.5 61.5t-146.5 -61.5t-60.5 -147.5t60.5 -147.5t146.5 -61.5z" />
    <glyph glyph-name="guillemotleft" unicode="&#xab;" horiz-adv-x="1368" 
d="M203 571l311 377h209l-311 -377l311 -376h-209zM645 571l311 377h209l-311 -377l311 -376h-209z" />
    <glyph glyph-name="logicalnot" unicode="&#xac;" horiz-adv-x="1599" 
d="M1274 741h-1112v164h1276v-688h-164v524z" />
    <glyph glyph-name="uni00AD" unicode="&#xad;" horiz-adv-x="1208" 
d="M162 621h717v-175h-717v175z" />
    <glyph glyph-name="registered" unicode="&#xae;" horiz-adv-x="1746" 
d="M874 1556q128 0 248.5 -40t217.5 -113t170 -170t113 -217t40 -248t-40 -248t-113 -217t-170 -170t-217.5 -113t-248.5 -40q-160 0 -306 62.5t-251.5 168t-168 251.5t-62.5 306t62.5 306t168 251.5t251.5 168t306 62.5zM874 121q178 0 327.5 85.5t236 234.5t86.5 327
t-86.5 327.5t-236 235.5t-327.5 86q-133 0 -253.5 -51t-207 -137.5t-137.5 -207t-51 -253.5t51 -253t137.5 -206.5t206.5 -137t254 -50.5zM1180 399h-154l-176 285h-84v-285h-137v746h297q89 0 154 -72t65 -166q0 -74 -45.5 -136t-112.5 -77zM920 793q42 0 71 32t29 82
q0 49 -29.5 83t-70.5 34h-154v-231h154z" />
    <glyph glyph-name="macron" unicode="&#xaf;" horiz-adv-x="75" 
d="M39 1372h635v-164h-635v164z" />
    <glyph glyph-name="degree" unicode="&#xb0;" horiz-adv-x="952" 
d="M477 1008q-115 0 -194.5 80t-79.5 194q0 116 79.5 195t194.5 79q114 0 194.5 -79.5t80.5 -194.5q0 -114 -80.5 -194t-194.5 -80zM477 1135q62 0 105 43t43 104q0 63 -43 106.5t-105 43.5q-63 0 -106 -43.5t-43 -106.5q0 -62 43 -104.5t106 -42.5z" />
    <glyph glyph-name="plusminus" unicode="&#xb1;" horiz-adv-x="1581" 
d="M1503 913v-165h-629v-369h-165v369h-629v165h629v369h165v-369h629zM80 150h1423v-150h-1423v150z" />
    <glyph glyph-name="uni00B2" unicode="&#xb2;" horiz-adv-x="669" 
d="M84 870q256 268 311.5 337t55.5 122q0 58 -34 87.5t-83 29.5q-54 0 -87 -33t-30 -90h-121q-6 103 66 168t178 65q97 0 162.5 -58t66.5 -152q1 -32 -2.5 -57t-21 -58t-33 -57t-61.5 -75t-82.5 -89t-116.5 -121h340v-111h-508v92z" />
    <glyph glyph-name="uni00B3" unicode="&#xb3;" horiz-adv-x="714" 
d="M440 815q-95 -1 -161 58.5t-66 144.5l111 2q0 -41 34.5 -70.5t81.5 -29.5q51 0 85.5 32.5t35.5 85.5q0 52 -32.5 86.5t-82.5 34.5h-57v90h49q40 0 66 26.5t26 67.5q0 39 -27 64t-71 25q-37 0 -63 -22t-27 -56l-109 2q1 77 60.5 128.5t138.5 51.5q86 0 142 -51.5
t59 -128.5q1 -41 -20.5 -77t-59.5 -60q53 -24 85.5 -72t33.5 -109q0 -96 -66.5 -159.5t-165.5 -63.5z" />
    <glyph glyph-name="acute" unicode="&#xb4;" horiz-adv-x="63" 
d="M213 1536h260l-235 -334h-199z" />
    <glyph glyph-name="uni00B5" unicode="&#xb5;" horiz-adv-x="1208" 
d="M1106 1024v-1024h-258v127q-57 -69 -136.5 -108t-168.5 -39q-116 0 -213 65v-557h-189v1536h256v-600q0 -91 64 -154t155 -63q97 0 164.5 63t67.5 154v600h258z" />
    <glyph glyph-name="paragraph" unicode="&#xb6;" horiz-adv-x="1271" 
d="M592 727h-45q-111 0 -209 54.5t-157.5 148.5t-59.5 203t59.5 202.5t157.5 147t209 53.5h178v-1843h-133v1034zM918 1536h133v-1843h-133v1843z" />
    <glyph glyph-name="periodcentered" unicode="&#xb7;" horiz-adv-x="550" 
d="M274 625q-45 0 -78.5 32.5t-33.5 79.5q0 46 34 80.5t78 34.5q46 0 80.5 -34.5t34.5 -80.5q0 -47 -34.5 -79.5t-80.5 -32.5z" />
    <glyph glyph-name="cedilla" unicode="&#xb8;" horiz-adv-x="63" 
d="M276 -532q-73 0 -142 41.5t-95 101.5l113 43q19 -29 54.5 -48.5t69.5 -19.5q41 0 70 30t29 71q0 62 -52.5 82t-129.5 -13l-95 58l99 186h120l-67 -129q102 20 174 -34t72 -150q0 -92 -64 -155.5t-156 -63.5z" />
    <glyph glyph-name="uni00B9" unicode="&#xb9;" horiz-adv-x="518" 
d="M168 1425h-111v111h238v-768h-127v657z" />
    <glyph glyph-name="ordmasculine" unicode="&#xba;" horiz-adv-x="774" 
d="M387 909q-138 0 -236 93.5t-98 226.5t98 226t236 93q140 0 238 -93t98 -226t-98 -226.5t-238 -93.5zM387 1020q86 0 147.5 61.5t61.5 147.5t-61.5 147.5t-147.5 61.5t-146.5 -61.5t-60.5 -147.5t60.5 -147.5t146.5 -61.5z" />
    <glyph glyph-name="guillemotright" unicode="&#xbb;" horiz-adv-x="1368" 
d="M514 571l-311 377h207l311 -377l-311 -376h-207zM954 571l-311 377h209l311 -377l-311 -376h-209z" />
    <glyph glyph-name="questiondown" unicode="&#xbf;" horiz-adv-x="1161" 
d="M594 1055q61 0 105 -45t44 -107q0 -63 -44 -108t-105 -45q-63 0 -107.5 45t-44.5 108q0 62 44.5 107t107.5 45zM717 537q0 -66 -20.5 -123.5t-53 -99.5t-72 -80t-79.5 -71.5t-72.5 -67t-53 -74t-20.5 -84.5q0 -99 73.5 -164.5t182.5 -65.5q117 0 189 76t63 190h229
q12 -209 -126 -350t-355 -141q-205 0 -344 131.5t-139 323.5q0 56 20 109t52.5 95.5t71.5 83t78 77.5t71.5 71.5t52.5 72t20 72.5v121h232v-102z" />
    <glyph glyph-name="Agrave" unicode="&#xc0;" horiz-adv-x="1568" 
d="M672 1714l-238 334h260l174 -334h-196zM1124 334h-690l-127 -334h-289l617 1536h297l616 -1536h-286zM1049 565l-265 701l-272 -701h537z" />
    <glyph glyph-name="Aacute" unicode="&#xc1;" horiz-adv-x="1568" 
d="M883 1714h-197l174 334h260zM1124 334h-690l-127 -334h-289l617 1536h297l616 -1536h-286zM1049 565l-265 701l-272 -701h537z" />
    <glyph glyph-name="Acircumflex" unicode="&#xc2;" horiz-adv-x="1568" 
d="M631 1698h-199l213 350h268l215 -350h-198l-150 235zM1124 334h-690l-127 -334h-289l617 1536h297l616 -1536h-286zM1049 565l-265 701l-272 -701h537z" />
    <glyph glyph-name="Atilde" unicode="&#xc3;" horiz-adv-x="1568" 
d="M442 1704q-24 127 35 211t164 84q129 0 203 -117q26 -45 69 -45q40 0 55.5 40t-1.5 103h151q26 -125 -31.5 -208.5t-168.5 -83.5q-120 0 -201 116q-26 45 -68 45q-40 0 -55.5 -41t2.5 -104h-154zM1124 334h-690l-127 -334h-289l617 1536h297l616 -1536h-286zM1049 565
l-265 701l-272 -701h537z" />
    <glyph glyph-name="Adieresis" unicode="&#xc4;" horiz-adv-x="1568" 
d="M567 1702q-62 0 -105.5 44t-43.5 107q0 62 44 106t105 44q63 0 107.5 -44t44.5 -106q0 -63 -44.5 -107t-107.5 -44zM993 1702q-62 0 -106.5 44t-44.5 107q0 61 44.5 105.5t106.5 44.5q61 0 105.5 -44.5t44.5 -105.5q0 -63 -44 -107t-106 -44zM1124 334h-690l-127 -334
h-289l617 1536h297l616 -1536h-286zM1049 565l-265 701l-272 -701h537z" />
    <glyph glyph-name="Aring" unicode="&#xc5;" horiz-adv-x="1568" 
d="M944 1505l604 -1505h-286l-138 334h-690l-127 -334h-289l605 1505h-7q-65 65 -65 156q0 94 68 160.5t163 66.5q94 0 161 -66.5t67 -160.5q0 -90 -66 -156zM782 1784q-50 0 -85 -36.5t-35 -86.5q0 -53 34 -87t86 -34q50 0 84.5 34t34.5 87q0 50 -35 86.5t-84 36.5z
M512 565h537l-265 701z" />
    <glyph glyph-name="AE" unicode="&#xc6;" horiz-adv-x="1855" 
d="M635 1536h1173v-225h-628v-441h542v-202h-542v-441h628v-227h-886v326h-490l-115 -326h-299zM922 528v783h-103l-301 -783h404z" />
    <glyph glyph-name="Ccedilla" unicode="&#xc7;" horiz-adv-x="1642" 
d="M819 233q97 0 179 30.5t134 79t83.5 103t39.5 107.5h256q-9 -99 -60 -195.5t-131 -175.5t-193.5 -132.5t-239.5 -65.5v-2l-58 -111q102 20 174 -34t72 -150q0 -92 -63.5 -155.5t-155.5 -63.5q-74 0 -143 41.5t-95 101.5l113 43q19 -29 55 -48.5t70 -19.5q41 0 69.5 29.5
t28.5 71.5q0 62 -53 82t-129 -13l-94 58l86 168q-201 13 -359 121.5t-243.5 282.5t-85.5 382q0 217 92.5 396.5t263.5 285.5t387 106q148 0 274.5 -46t214 -126t141 -187t62.5 -228h-256q-7 45 -25.5 89t-54 89t-83.5 79t-118.5 55.5t-154.5 21.5q-150 0 -262.5 -71.5
t-170.5 -192.5t-58 -271t58 -271t170.5 -192.5t262.5 -71.5z" />
    <glyph glyph-name="Egrave" unicode="&#xc8;" horiz-adv-x="1222" 
d="M469 1714l-238 334h261l174 -334h-197zM383 1305v-420h639v-234h-639v-418h725v-233h-991v1536h991v-231h-725z" />
    <glyph glyph-name="Eacute" unicode="&#xc9;" horiz-adv-x="1222" 
d="M680 1714h-197l174 334h261zM383 1305v-420h639v-234h-639v-418h725v-233h-991v1536h991v-231h-725z" />
    <glyph glyph-name="Ecircumflex" unicode="&#xca;" horiz-adv-x="1222" 
d="M428 1698h-199l213 350h269l215 -350h-199l-149 235zM383 1305v-420h639v-234h-639v-418h725v-233h-991v1536h991v-231h-725z" />
    <glyph glyph-name="Edieresis" unicode="&#xcb;" horiz-adv-x="1222" 
d="M367 1702q-63 0 -107.5 44t-44.5 107q0 62 44.5 106t107.5 44q61 0 105 -44t44 -106q0 -63 -43.5 -107t-105.5 -44zM791 1702q-62 0 -107 44t-45 107q0 61 45 105.5t107 44.5q61 0 105 -44t44 -106q0 -63 -43.5 -107t-105.5 -44zM383 1305v-420h639v-234h-639v-418h725
v-233h-991v1536h991v-231h-725z" />
    <glyph glyph-name="Igrave" unicode="&#xcc;" horiz-adv-x="755" 
d="M133 2048h262l174 -334h-196zM350 1536h268v-1536h-268v1536z" />
    <glyph glyph-name="Iacute" unicode="&#xcd;" horiz-adv-x="741" 
d="M344 2048h260l-237 -334h-197zM133 1536h266v-1536h-266v1536z" />
    <glyph glyph-name="Icircumflex" unicode="&#xce;" horiz-adv-x="970" 
d="M348 2048h268l215 -350h-198l-150 235l-149 -235h-201zM352 1536h266v-1536h-266v1536z" />
    <glyph glyph-name="Idieresis" unicode="&#xcf;" horiz-adv-x="999" 
d="M287 1702q-63 0 -108.5 44t-45.5 107q0 61 45.5 105.5t108.5 44.5q62 0 106.5 -44.5t44.5 -105.5q0 -63 -44.5 -107t-106.5 -44zM711 1702q-62 0 -107 44t-45 107q0 61 45 105.5t107 44.5t106.5 -44.5t44.5 -105.5q0 -63 -44.5 -107t-106.5 -44zM369 1536h266v-1536h-266
v1536z" />
    <glyph glyph-name="Eth" unicode="&#xd0;" horiz-adv-x="1603" 
d="M752 1536q211 0 386 -97t278.5 -273.5t103.5 -397.5t-103.5 -397.5t-278.5 -273.5t-386 -97h-471v692h-152v152h152v692h471zM750 233q215 0 359 149.5t144 385.5t-144 386.5t-359 150.5h-205v-461h250v-152h-250v-459h205z" />
    <glyph glyph-name="Ntilde" unicode="&#xd1;" horiz-adv-x="1607" 
d="M481 1704q-26 127 33.5 211t165.5 84q126 0 203 -117q26 -45 67 -45q42 0 57 40t-3 103h153q26 -125 -32 -208.5t-169 -83.5q-122 0 -200 116q-29 45 -70 45q-39 0 -54 -41t3 -104h-154zM1479 1536v-1536h-267l-833 1128v-1128h-266v1536h268l833 -1126v1126h265z" />
    <glyph glyph-name="Ograve" unicode="&#xd2;" horiz-adv-x="1646" 
d="M473 2048h258l176 -334h-196zM819 -20q-216 0 -388.5 106t-266.5 285.5t-94 396.5t94 396.5t266.5 285.5t388.5 106q162 0 303 -62t238.5 -168t153 -251t55.5 -307t-55.5 -307t-153 -251t-238.5 -168t-303 -62zM819 238q225 0 359.5 150t134.5 380q0 231 -134.5 381.5
t-359.5 150.5q-224 0 -359.5 -150.5t-135.5 -381.5q0 -229 135.5 -379.5t359.5 -150.5z" />
    <glyph glyph-name="Oacute" unicode="&#xd3;" horiz-adv-x="1646" 
d="M899 2048h260l-237 -334h-197zM819 -20q-216 0 -388.5 106t-266.5 285.5t-94 396.5t94 396.5t266.5 285.5t388.5 106q162 0 303 -62t238.5 -168t153 -251t55.5 -307t-55.5 -307t-153 -251t-238.5 -168t-303 -62zM819 238q225 0 359.5 150t134.5 380q0 231 -134.5 381.5
t-359.5 150.5q-224 0 -359.5 -150.5t-135.5 -381.5q0 -229 135.5 -379.5t359.5 -150.5z" />
    <glyph glyph-name="Ocircumflex" unicode="&#xd4;" horiz-adv-x="1646" 
d="M686 2048h268l215 -350h-198l-150 235l-151 -235h-197zM819 -20q-216 0 -388.5 106t-266.5 285.5t-94 396.5t94 396.5t266.5 285.5t388.5 106q162 0 303 -62t238.5 -168t153 -251t55.5 -307t-55.5 -307t-153 -251t-238.5 -168t-303 -62zM819 238q225 0 359.5 150
t134.5 380q0 231 -134.5 381.5t-359.5 150.5q-224 0 -359.5 -150.5t-135.5 -381.5q0 -229 135.5 -379.5t359.5 -150.5z" />
    <glyph glyph-name="Otilde" unicode="&#xd5;" horiz-adv-x="1646" 
d="M956 1688q-122 0 -200 116q-29 45 -68 45q-40 0 -55.5 -41t2.5 -104h-154q-26 127 33.5 211t165.5 84q126 0 203 -117q26 -45 69 -45q40 0 55 40t-3 103h153q26 -125 -32 -208.5t-169 -83.5zM819 -20q-216 0 -388.5 106t-266.5 285.5t-94 396.5t94 396.5t266.5 285.5
t388.5 106q162 0 303 -62t238.5 -168t153 -251t55.5 -307t-55.5 -307t-153 -251t-238.5 -168t-303 -62zM819 238q225 0 359.5 150t134.5 380q0 231 -134.5 381.5t-359.5 150.5q-224 0 -359.5 -150.5t-135.5 -381.5q0 -229 135.5 -379.5t359.5 -150.5z" />
    <glyph glyph-name="Odieresis" unicode="&#xd6;" horiz-adv-x="1646" 
d="M608 1702q-63 0 -107 44t-44 107q0 62 44 106t107 44q62 0 107 -44.5t45 -105.5q0 -63 -45 -107t-107 -44zM1032 1702q-62 0 -106.5 44t-44.5 107q0 61 44.5 105.5t106.5 44.5t107 -44.5t45 -105.5q0 -63 -45 -107t-107 -44zM819 -20q-216 0 -388.5 106t-266.5 285.5
t-94 396.5t94 396.5t266.5 285.5t388.5 106q162 0 303 -62t238.5 -168t153 -251t55.5 -307t-55.5 -307t-153 -251t-238.5 -168t-303 -62zM819 238q225 0 359.5 150t134.5 380q0 231 -134.5 381.5t-359.5 150.5q-224 0 -359.5 -150.5t-135.5 -381.5q0 -229 135.5 -379.5
t359.5 -150.5z" />
    <glyph glyph-name="multiply" unicode="&#xd7;" horiz-adv-x="1499" 
d="M915 635l381 -379l-137 -139l-381 381l-381 -381l-137 139l379 379l-379 381l137 137l381 -381l381 381l137 -137z" />
    <glyph glyph-name="Oslash" unicode="&#xd8;" horiz-adv-x="1646" 
d="M1307 1378q124 -110 193 -268.5t69 -341.5q0 -162 -55.5 -307t-153 -251t-238.5 -168t-303 -62q-212 0 -377 100l-88 -135h-164l142 213q-124 108 -193 267.5t-69 342.5q0 217 94 396.5t266.5 285.5t388.5 106q206 0 379 -100l88 133h162zM324 768q0 -244 151 -395
l582 870q-105 57 -238 57q-224 0 -359.5 -150.5t-135.5 -381.5zM819 238q225 0 359.5 150t134.5 380q0 118 -38.5 220.5t-109.5 174.5l-579 -870q98 -55 233 -55z" />
    <glyph glyph-name="Ugrave" unicode="&#xd9;" horiz-adv-x="1482" 
d="M403 2048h261l174 -334h-197zM731 -20q-169 0 -310.5 69t-222.5 188t-81 261v1038h266v-991q0 -138 101.5 -235t246.5 -97t248.5 97t103.5 235v991h267v-1038q0 -142 -83 -261.5t-225.5 -188t-310.5 -68.5z" />
    <glyph glyph-name="Uacute" unicode="&#xda;" horiz-adv-x="1482" 
d="M829 2048h261l-236 -334h-199zM731 -20q-169 0 -310.5 69t-222.5 188t-81 261v1038h266v-991q0 -138 101.5 -235t246.5 -97t248.5 97t103.5 235v991h267v-1038q0 -142 -83 -261.5t-225.5 -188t-310.5 -68.5z" />
    <glyph glyph-name="Ucircumflex" unicode="&#xdb;" horiz-adv-x="1482" 
d="M616 2048h269l215 -350h-199l-149 235l-150 -235h-199zM731 -20q-169 0 -310.5 69t-222.5 188t-81 261v1038h266v-991q0 -138 101.5 -235t246.5 -97t248.5 97t103.5 235v991h267v-1038q0 -142 -83 -261.5t-225.5 -188t-310.5 -68.5z" />
    <glyph glyph-name="Udieresis" unicode="&#xdc;" horiz-adv-x="1482" 
d="M539 1702q-62 0 -106 44t-44 107q0 61 44.5 105.5t105.5 44.5q63 0 107 -44t44 -106q0 -63 -44 -107t-107 -44zM965 1702q-62 0 -107 44t-45 107q0 61 45 105.5t107 44.5q61 0 105 -44t44 -106q0 -63 -43.5 -107t-105.5 -44zM731 -20q-169 0 -310.5 69t-222.5 188
t-81 261v1038h266v-991q0 -138 101.5 -235t246.5 -97t248.5 97t103.5 235v991h267v-1038q0 -142 -83 -261.5t-225.5 -188t-310.5 -68.5z" />
    <glyph glyph-name="Yacute" unicode="&#xdd;" horiz-adv-x="1368" 
d="M788 1714h-196l174 334h260zM817 727v-727h-264v723l-539 813h297l373 -586l377 586h293z" />
    <glyph glyph-name="Thorn" unicode="&#xde;" horiz-adv-x="1224" 
d="M739 1317q186 0 315.5 -131t129.5 -320q0 -183 -129.5 -309.5t-315.5 -126.5h-348v-430h-258v1534h258v-217h348zM731 657q91 0 154 63t63 154t-63 153.5t-154 62.5h-340v-433h340z" />
    <glyph glyph-name="germandbls" unicode="&#xdf;" horiz-adv-x="1386" 
d="M1047 797q101 -60 161 -160.5t60 -220.5q0 -182 -120.5 -309t-293.5 -127q-86 0 -186 30t-158 78l102 199q35 -29 90 -49t103 -19q82 3 143.5 63t61.5 148q0 97 -72.5 166.5t-175.5 69.5h-92v211h37q95 0 163 66.5t68 158.5q0 91 -70.5 150t-177.5 59q-117 0 -194.5 -68
t-77.5 -172v-1071h-256v1071q0 201 150 333t374 132q214 0 354 -122.5t140 -307.5q0 -182 -133 -309z" />
    <glyph glyph-name="agrave" unicode="&#xe0;" horiz-adv-x="1159" 
d="M696 1202h-196l-238 334h258zM1018 348q0 -141 88 -141v-207h-76q-35 2 -56.5 4t-53 9.5t-52.5 20t-42 36.5t-35 57q-47 -63 -145.5 -102t-213.5 -39q-165 0 -267 89t-102 244q0 151 126 245t335 112l240 20v25q0 201 -205 201q-97 0 -161.5 -47t-73.5 -144h-232
q6 82 35.5 152t84 128.5t146 92t209.5 33.5q210 0 330.5 -106t120.5 -314v-369zM764 340v174l-189 -20q-118 -13 -179.5 -54.5t-61.5 -107.5q0 -63 47 -101t117 -38q85 0 156.5 42.5t109.5 104.5z" />
    <glyph glyph-name="aacute" unicode="&#xe1;" horiz-adv-x="1159" 
d="M936 1536l-236 -334h-198l176 334h258zM1018 348q0 -141 88 -141v-207h-76q-35 2 -56.5 4t-53 9.5t-52.5 20t-42 36.5t-35 57q-47 -63 -145.5 -102t-213.5 -39q-165 0 -267 89t-102 244q0 151 126 245t335 112l240 20v25q0 201 -205 201q-97 0 -161.5 -47t-73.5 -144
h-232q6 82 35.5 152t84 128.5t146 92t209.5 33.5q210 0 330.5 -106t120.5 -314v-369zM764 340v174l-189 -20q-118 -13 -179.5 -54.5t-61.5 -107.5q0 -63 47 -101t117 -38q85 0 156.5 42.5t109.5 104.5z" />
    <glyph glyph-name="acircumflex" unicode="&#xe2;" horiz-adv-x="1159" 
d="M520 1421l-149 -235h-199l213 350h268l215 -350h-198zM1018 348q0 -141 88 -141v-207h-76q-35 2 -56.5 4t-53 9.5t-52.5 20t-42 36.5t-35 57q-47 -63 -145.5 -102t-213.5 -39q-165 0 -267 89t-102 244q0 151 126 245t335 112l240 20v25q0 201 -205 201q-97 0 -161.5 -47
t-73.5 -144h-232q6 82 35.5 152t84 128.5t146 92t209.5 33.5q210 0 330.5 -106t120.5 -314v-369zM764 340v174l-189 -20q-118 -13 -179.5 -54.5t-61.5 -107.5q0 -63 47 -101t117 -38q85 0 156.5 42.5t109.5 104.5z" />
    <glyph glyph-name="atilde" unicode="&#xe3;" horiz-adv-x="1159" 
d="M195 1192q-24 127 34.5 211t163.5 84q129 0 203 -117q26 -45 70 -45q40 0 55 40t-2 103h151q26 -125 -31.5 -208.5t-168.5 -83.5q-120 0 -201 116q-26 45 -68 45q-40 0 -55.5 -41t2.5 -104h-153zM432 -14q-165 0 -267 89t-102 244q0 151 126 245t335 112l240 20v25
q0 201 -205 201q-97 0 -161.5 -47t-73.5 -144h-232q6 82 35.5 152t84 128.5t146 92t209.5 33.5q210 0 330.5 -106t120.5 -314v-369q0 -141 88 -141v-207h-76q-35 2 -56.5 4t-53 9.5t-52.5 20t-42 36.5t-35 57q-47 -63 -145.5 -102t-213.5 -39zM498 193q85 0 156.5 42.5
t109.5 104.5v174l-189 -20q-118 -13 -179.5 -54.5t-61.5 -107.5q0 -63 47 -101t117 -38z" />
    <glyph glyph-name="adieresis" unicode="&#xe4;" horiz-adv-x="1159" 
d="M309 1190q-63 0 -107 44t-44 107q0 62 44 106t107 44q62 0 107 -44.5t45 -105.5q0 -63 -45 -107t-107 -44zM733 1190q-62 0 -106.5 44t-44.5 107q0 61 44.5 105.5t106.5 44.5t107 -44.5t45 -105.5q0 -63 -45 -107t-107 -44zM432 -14q-165 0 -267 89t-102 244
q0 151 126 245t335 112l240 20v25q0 201 -205 201q-97 0 -161.5 -47t-73.5 -144h-232q6 82 35.5 152t84 128.5t146 92t209.5 33.5q210 0 330.5 -106t120.5 -314v-369q0 -141 88 -141v-207h-76q-35 2 -56.5 4t-53 9.5t-52.5 20t-42 36.5t-35 57q-47 -63 -145.5 -102
t-213.5 -39zM498 193q85 0 156.5 42.5t109.5 104.5v174l-189 -20q-118 -13 -179.5 -54.5t-61.5 -107.5q0 -63 47 -101t117 -38z" />
    <glyph glyph-name="aring" unicode="&#xe5;" horiz-adv-x="1159" 
d="M522 1145q-95 0 -163 68t-68 163q0 93 68 160.5t163 67.5q93 0 160.5 -67.5t67.5 -160.5q0 -95 -67 -163t-161 -68zM522 1497q-50 0 -84.5 -35.5t-34.5 -85.5q0 -54 33.5 -87.5t85.5 -33.5q50 0 84.5 34t34.5 87q0 50 -35 85.5t-84 35.5zM432 -14q-165 0 -267 89
t-102 244q0 151 126 245t335 112l240 20v25q0 201 -205 201q-97 0 -161.5 -47t-73.5 -144h-232q6 82 35.5 152t84 128.5t146 92t209.5 33.5q210 0 330.5 -106t120.5 -314v-369q0 -141 88 -141v-207h-76q-35 2 -56.5 4t-53 9.5t-52.5 20t-42 36.5t-35 57q-47 -63 -145.5 -102
t-213.5 -39zM498 193q85 0 156.5 42.5t109.5 104.5v174l-189 -20q-118 -13 -179.5 -54.5t-61.5 -107.5q0 -63 47 -101t117 -38z" />
    <glyph glyph-name="ae" unicode="&#xe6;" horiz-adv-x="2021" 
d="M1989 567q0 -32 -7 -86h-790q13 -133 91.5 -206.5t197.5 -73.5q83 0 159.5 37.5t110.5 115.5h223q-29 -161 -161.5 -265.5t-344.5 -104.5q-145 0 -259.5 59t-188.5 166v-207h-225l-19 127q-51 -79 -151 -114t-228 -27q-153 9 -246.5 97t-93.5 237t125.5 240.5t335.5 99.5
l240 10v51q0 203 -205 203q-97 0 -161.5 -47.5t-74.5 -145.5h-227q6 82 34 152t82 128.5t145 92t210 33.5q164 0 276.5 -64t155.5 -190q69 122 191.5 191t285.5 69q238 0 378.5 -158t140.5 -420zM1196 674h528q-18 119 -82.5 184.5t-175.5 65.5q-114 0 -181.5 -66.5
t-88.5 -183.5zM758 342v152l-187 -11q-119 -6 -181 -45.5t-62 -105.5q0 -63 44.5 -100t114.5 -39q86 -3 160.5 40.5t110.5 108.5z" />
    <glyph glyph-name="ccedilla" unicode="&#xe7;" horiz-adv-x="1173" 
d="M608 221q102 0 177.5 64t91.5 151h245q-7 -62 -26.5 -119.5t-59.5 -118t-97 -105t-146.5 -73.5t-200.5 -30l-55 -109q102 20 173.5 -34t71.5 -150q0 -92 -63.5 -155.5t-155.5 -63.5q-73 0 -142 41.5t-95 101.5l112 43q19 -29 55 -48t70 -19q41 0 70 29.5t29 70.5
q0 62 -53 82.5t-130 -12.5l-94 57l90 172l2 2q-199 35 -315.5 189t-116.5 378q0 254 147.5 413t391.5 159q112 0 203.5 -28t150 -72.5t100 -103.5t61 -116.5t25.5 -116.5h-247q-11 86 -88 146.5t-183 60.5q-137 0 -212 -93t-75 -249q0 -155 76.5 -249.5t212.5 -94.5z" />
    <glyph glyph-name="egrave" unicode="&#xe8;" horiz-adv-x="1177" 
d="M471 1208l-238 332h261l174 -332h-197zM1110 567q0 -39 -6 -88h-787q10 -128 89 -202t188 -74q90 0 161.5 37.5t106.5 113.5h225q-12 -71 -47.5 -134t-94.5 -115.5t-150.5 -83.5t-202.5 -31q-243 0 -393 162t-150 411q0 253 144.5 413.5t398.5 160.5q240 0 379 -154.5
t139 -415.5zM590 920q-113 0 -179.5 -65.5t-86.5 -180.5h520q-15 117 -79 181.5t-175 64.5z" />
    <glyph glyph-name="eacute" unicode="&#xe9;" horiz-adv-x="1177" 
d="M920 1540l-238 -332h-197l174 332h261zM1110 567q0 -39 -6 -88h-787q10 -128 89 -202t188 -74q90 0 161.5 37.5t106.5 113.5h225q-12 -71 -47.5 -134t-94.5 -115.5t-150.5 -83.5t-202.5 -31q-243 0 -393 162t-150 411q0 253 144.5 413.5t398.5 160.5q240 0 379 -154.5
t139 -415.5zM324 674h520q-15 117 -79 181.5t-175 64.5q-113 0 -179.5 -65.5t-86.5 -180.5z" />
    <glyph glyph-name="ecircumflex" unicode="&#xea;" horiz-adv-x="1177" 
d="M430 1190h-199l213 350h269l215 -350h-199l-149 237zM1110 567q0 -39 -6 -88h-787q10 -128 89 -202t188 -74q90 0 161.5 37.5t106.5 113.5h225q-12 -71 -47.5 -134t-94.5 -115.5t-150.5 -83.5t-202.5 -31q-243 0 -393 162t-150 411q0 253 144.5 413.5t398.5 160.5
q240 0 379 -154.5t139 -415.5zM590 920q-113 0 -179.5 -65.5t-86.5 -180.5h520q-15 117 -79 181.5t-175 64.5z" />
    <glyph glyph-name="edieresis" unicode="&#xeb;" horiz-adv-x="1177" 
d="M367 1194q-62 0 -106 44.5t-44 107.5q0 62 44.5 106.5t105.5 44.5q63 0 107 -44.5t44 -106.5q0 -63 -44 -107.5t-107 -44.5zM793 1194q-62 0 -107 44.5t-45 107.5q0 61 45 106t107 45q61 0 105 -44.5t44 -106.5q0 -63 -43.5 -107.5t-105.5 -44.5zM1110 567q0 -39 -6 -88
h-787q10 -128 89 -202t188 -74q90 0 161.5 37.5t106.5 113.5h225q-12 -71 -47.5 -134t-94.5 -115.5t-150.5 -83.5t-202.5 -31q-243 0 -393 162t-150 411q0 253 144.5 413.5t398.5 160.5q240 0 379 -154.5t139 -415.5zM590 920q-113 0 -179.5 -65.5t-86.5 -180.5h520
q-15 117 -79 181.5t-175 64.5z" />
    <glyph glyph-name="igrave" unicode="&#xec;" horiz-adv-x="641" 
d="M49 1536h262l174 -334h-196zM270 1024h258v-1024h-258v1024z" />
    <glyph glyph-name="iacute" unicode="&#xed;" horiz-adv-x="630" 
d="M307 1536h260l-237 -334h-197zM98 1024h258v-1024h-258v1024z" />
    <glyph glyph-name="icircumflex" unicode="&#xee;" horiz-adv-x="909" 
d="M311 1536h269l217 -350h-201l-150 235l-149 -235h-199zM317 1024h258v-1024h-258v1024z" />
    <glyph glyph-name="idieresis" unicode="&#xef;" horiz-adv-x="937" 
d="M250 1190q-62 0 -107 44t-45 107q0 61 45 105.5t107 44.5q63 0 107 -44t44 -106q0 -63 -44 -107t-107 -44zM676 1190q-62 0 -107 44t-45 107q0 61 45 105.5t107 44.5q61 0 105 -44t44 -106q0 -63 -43.5 -107t-105.5 -44zM334 1024h258v-1024h-258v1024z" />
    <glyph glyph-name="eth" unicode="&#xf0;" horiz-adv-x="1253" 
d="M801 1409q183 -140 289 -376.5t106 -520.5q0 -146 -75 -268.5t-204.5 -193t-283.5 -70.5q-155 0 -284.5 70.5t-204 193t-74.5 268.5q0 147 74.5 269.5t204 192.5t284.5 70q119 0 221 -51q-65 161 -182 248l-99 -123l-79 62l90 112q-121 61 -269 64l52 205q185 0 350 -97
l90 113l80 -61zM633 207q126 0 215.5 89t89.5 216q0 128 -89 217.5t-216 89.5q-128 0 -217.5 -89t-89.5 -218q0 -127 89.5 -216t217.5 -89z" />
    <glyph glyph-name="ntilde" unicode="&#xf1;" horiz-adv-x="1247" 
d="M279 1192q-26 127 33 211t165 84q126 0 203 -117q26 -45 68 -45q41 0 56.5 40t-3.5 103h153q26 -125 -31.5 -208.5t-168.5 -83.5q-123 0 -201 116q-29 45 -70 45q-39 0 -54 -41t3 -104h-153zM741 1141q193 0 302.5 -109t109.5 -303v-729h-279v696q0 96 -55 147.5
t-157 51.5q-111 0 -193 -59t-82 -154v-682h-281v1126h250l19 -147q61 74 161 118t205 44z" />
    <glyph glyph-name="ograve" unicode="&#xf2;" horiz-adv-x="1247" 
d="M246 1536h260l174 -334h-197zM625 -14q-164 0 -295 77t-203 209t-72 293q0 162 72 294t203 209t295 77t295 -77t203.5 -209t72.5 -294q0 -161 -72.5 -293t-203.5 -209t-295 -77zM625 231q130 0 212.5 96t82.5 238t-82.5 239t-212.5 97q-131 0 -213 -97t-82 -239t82 -238
t213 -96z" />
    <glyph glyph-name="oacute" unicode="&#xf3;" horiz-adv-x="1247" 
d="M672 1536h260l-238 -334h-196zM625 -14q-164 0 -295 77t-203 209t-72 293q0 162 72 294t203 209t295 77t295 -77t203.5 -209t72.5 -294q0 -161 -72.5 -293t-203.5 -209t-295 -77zM625 231q130 0 212.5 96t82.5 238t-82.5 239t-212.5 97q-131 0 -213 -97t-82 -239t82 -238
t213 -96z" />
    <glyph glyph-name="ocircumflex" unicode="&#xf4;" horiz-adv-x="1247" 
d="M459 1536h268l215 -350h-199l-149 235l-150 -235h-198zM625 -14q-164 0 -295 77t-203 209t-72 293q0 162 72 294t203 209t295 77t295 -77t203.5 -209t72.5 -294q0 -161 -72.5 -293t-203.5 -209t-295 -77zM625 231q130 0 212.5 96t82.5 238t-82.5 239t-212.5 97
q-131 0 -213 -97t-82 -239t82 -238t213 -96z" />
    <glyph glyph-name="otilde" unicode="&#xf5;" horiz-adv-x="1247" 
d="M729 1176q-120 0 -201 116q-26 45 -67 45q-40 0 -55.5 -41t2.5 -104h-154q-24 127 35 211t164 84q128 0 202 -117q26 -45 70 -45q40 0 55 40t-2 103h152q26 -125 -32 -208.5t-169 -83.5zM625 -14q-164 0 -295 77t-203 209t-72 293q0 162 72 294t203 209t295 77t295 -77
t203.5 -209t72.5 -294q0 -161 -72.5 -293t-203.5 -209t-295 -77zM625 231q130 0 212.5 96t82.5 238t-82.5 239t-212.5 97q-131 0 -213 -97t-82 -239t82 -238t213 -96z" />
    <glyph glyph-name="odieresis" unicode="&#xf6;" horiz-adv-x="1247" 
d="M412 1190q-62 0 -107 44t-45 107q0 61 45 105.5t107 44.5t106.5 -44.5t44.5 -105.5q0 -63 -44.5 -107t-106.5 -44zM836 1190q-61 0 -105.5 44.5t-44.5 106.5q0 61 45 105.5t105 44.5q63 0 107 -44t44 -106q0 -63 -44 -107t-107 -44zM625 -14q-164 0 -295 77t-203 209
t-72 293q0 162 72 294t203 209t295 77t295 -77t203.5 -209t72.5 -294q0 -161 -72.5 -293t-203.5 -209t-295 -77zM625 231q130 0 212.5 96t82.5 238t-82.5 239t-212.5 97q-131 0 -213 -97t-82 -239t82 -238t213 -96z" />
    <glyph glyph-name="divide" unicode="&#xf7;" horiz-adv-x="1427" 
d="M715 776q-55 0 -95 39.5t-40 95.5q0 55 40.5 95.5t94.5 40.5t94.5 -40.5t40.5 -95.5q0 -56 -40 -95.5t-95 -39.5zM158 659h1124v-202h-1124v202zM715 80q-55 0 -95 39.5t-40 95.5q0 55 40.5 95t94.5 40t94.5 -40t40.5 -95q0 -56 -40 -95.5t-95 -39.5z" />
    <glyph glyph-name="oslash" unicode="&#xf8;" horiz-adv-x="1226" 
d="M975 1028q95 -83 148 -201.5t53 -257.5q0 -162 -71.5 -295.5t-200.5 -211.5t-290 -78q-151 0 -274 69l-78 -121h-123l117 179q-96 82 -148.5 201t-52.5 257q0 163 70.5 296.5t199 211.5t289.5 78q148 0 275 -68l78 121h123zM326 569q0 -141 75 -231l349 532
q-64 39 -136 39q-128 0 -208 -98t-80 -242zM614 233q128 0 208.5 97t80.5 239q0 139 -76 234l-348 -535q57 -35 135 -35z" />
    <glyph glyph-name="ugrave" unicode="&#xf9;" horiz-adv-x="1271" 
d="M510 1202l-240 334h260l175 -334h-195zM1171 1126v-1126h-249l-19 152q-62 -75 -161 -118.5t-203 -43.5q-186 0 -303 120.5t-117 309.5v706h280v-673q0 -99 58 -158t159 -59q109 0 192 61t83 156v673h280z" />
    <glyph glyph-name="uacute" unicode="&#xfa;" horiz-adv-x="1271" 
d="M721 1202h-199l176 334h258zM1171 1126v-1126h-249l-19 152q-62 -75 -161 -118.5t-203 -43.5q-186 0 -303 120.5t-117 309.5v706h280v-673q0 -99 58 -158t159 -59q109 0 192 61t83 156v673h280z" />
    <glyph glyph-name="ucircumflex" unicode="&#xfb;" horiz-adv-x="1271" 
d="M469 1186h-197l211 350h269l217 -350h-201l-150 235zM1171 1126v-1126h-249l-19 152q-62 -75 -161 -118.5t-203 -43.5q-186 0 -303 120.5t-117 309.5v706h280v-673q0 -99 58 -158t159 -59q109 0 192 61t83 156v673h280z" />
    <glyph glyph-name="udieresis" unicode="&#xfc;" horiz-adv-x="1271" 
d="M408 1190q-63 0 -107.5 44t-44.5 107q0 62 44.5 106t107.5 44q61 0 105 -44t44 -106q0 -63 -43.5 -107t-105.5 -44zM831 1190q-62 0 -106.5 44t-44.5 107q0 61 44.5 105.5t106.5 44.5q61 0 105.5 -44.5t44.5 -105.5q0 -63 -44 -107t-106 -44zM1171 1126v-1126h-249
l-19 152q-62 -75 -161 -118.5t-203 -43.5q-186 0 -303 120.5t-117 309.5v706h280v-673q0 -99 58 -158t159 -59q109 0 192 61t83 156v673h280z" />
    <glyph glyph-name="yacute" unicode="&#xfd;" horiz-adv-x="1282" 
d="M711 1202h-199l176 334h258zM1227 1126l-674 -1679h-254l256 631h-61l-435 1048h277l323 -772l299 772h269z" />
    <glyph glyph-name="thorn" unicode="&#xfe;" horiz-adv-x="1312" 
d="M735 1044q140 0 257.5 -70t185 -192.5t67.5 -269.5q0 -146 -67.5 -268.5t-185 -193t-257.5 -70.5q-105 0 -194 42t-150 117v-651h-258v2048h258v-651q61 75 150 117t194 42zM696 207q129 0 218.5 88.5t89.5 216.5q0 129 -89.5 218t-218.5 89q-126 0 -215.5 -89.5
t-89.5 -217.5q0 -127 89.5 -216t215.5 -89z" />
    <glyph glyph-name="ydieresis" unicode="&#xff;" horiz-adv-x="1282" 
d="M401 1190q-63 0 -107 44t-44 107q0 62 44 106t107 44q61 0 105.5 -44.5t44.5 -105.5q0 -63 -44 -107t-106 -44zM825 1190q-62 0 -106.5 44t-44.5 107q0 61 44.5 105.5t106.5 44.5q61 0 105.5 -44.5t44.5 -105.5q0 -63 -44 -107t-106 -44zM1227 1126l-674 -1679h-254
l256 631h-61l-435 1048h277l323 -772l299 772h269z" />
    <glyph glyph-name="Amacron" unicode="&#x100;" horiz-adv-x="1568" 
d="M1100 1720h-635v164h635v-164zM1124 334h-690l-127 -334h-289l617 1536h297l616 -1536h-286zM1049 565l-265 701l-272 -701h537z" />
    <glyph glyph-name="amacron" unicode="&#x101;" horiz-adv-x="1159" 
d="M815 1208h-635v164h635v-164zM432 -14q-165 0 -267 89t-102 244q0 151 126 245t335 112l240 20v25q0 201 -205 201q-97 0 -161.5 -47t-73.5 -144h-232q6 82 35.5 152t84 128.5t146 92t209.5 33.5q210 0 330.5 -106t120.5 -314v-369q0 -141 88 -141v-207h-76
q-35 2 -56.5 4t-53 9.5t-52.5 20t-42 36.5t-35 57q-47 -63 -145.5 -102t-213.5 -39zM498 193q85 0 156.5 42.5t109.5 104.5v174l-189 -20q-118 -13 -179.5 -54.5t-61.5 -107.5q0 -63 47 -101t117 -38z" />
    <glyph glyph-name="Abreve" unicode="&#x102;" horiz-adv-x="1568" 
d="M780 1659q-161 0 -258.5 89t-97.5 251h149q0 -77 58 -134t149 -57q92 0 150.5 57t58.5 134h150q0 -162 -98.5 -251t-260.5 -89zM1124 334h-690l-127 -334h-289l617 1536h297l616 -1536h-286zM1049 565l-265 701l-272 -701h537z" />
    <glyph glyph-name="abreve" unicode="&#x103;" horiz-adv-x="1159" 
d="M510 1147q-161 0 -258.5 89t-97.5 251h149q0 -77 58 -134t149 -57q92 0 151.5 57t59.5 134h147q0 -162 -98 -251t-260 -89zM432 -14q-165 0 -267 89t-102 244q0 151 126 245t335 112l240 20v25q0 201 -205 201q-97 0 -161.5 -47t-73.5 -144h-232q6 82 35.5 152t84 128.5
t146 92t209.5 33.5q210 0 330.5 -106t120.5 -314v-369q0 -141 88 -141v-207h-76q-35 2 -56.5 4t-53 9.5t-52.5 20t-42 36.5t-35 57q-47 -63 -145.5 -102t-213.5 -39zM498 193q85 0 156.5 42.5t109.5 104.5v174l-189 -20q-118 -13 -179.5 -54.5t-61.5 -107.5q0 -63 47 -101
t117 -38z" />
    <glyph glyph-name="Aogonek" unicode="&#x104;" horiz-adv-x="1667" 
d="M1565 -299l84 -115q-63 -63 -145 -92.5t-169 -23.5q-115 6 -184.5 63.5t-69.5 163.5q0 93 59.5 170.5t174.5 132.5h-53l-138 334h-690l-127 -334h-289l617 1536h297l616 -1536h-4q-141 -14 -216 -99.5t-75 -181.5q0 -55 33 -87.5t92 -32.5q55 0 106 28.5t81 73.5z
M512 565h537l-265 701z" />
    <glyph glyph-name="aogonek" unicode="&#x105;" horiz-adv-x="1144" 
d="M1153 -299l82 -115q-125 -128 -313 -118q-114 8 -184 66t-70 163q0 83 69 171t174 148q-84 24 -120 111q-47 -63 -145.5 -102t-213.5 -39q-165 0 -267 89t-102 244q0 151 126 245t335 112l240 20v25q0 201 -205 201q-97 0 -161.5 -47t-73.5 -144h-232q6 82 35.5 152
t84 128.5t146 92t209.5 33.5q210 0 330.5 -106t120.5 -314v-369q0 -141 88 -141v-203l16 -4q-128 -28 -204 -108t-76 -173q0 -55 32.5 -88.5t90.5 -33.5q54 0 105 29t83 75zM764 340v174l-189 -20q-118 -13 -179.5 -54.5t-61.5 -107.5q0 -63 47 -101t117 -38
q85 0 156.5 42.5t109.5 104.5z" />
    <glyph glyph-name="Cacute" unicode="&#x106;" horiz-adv-x="1642" 
d="M913 2048h261l-236 -334h-199zM819 -20q-215 -1 -386 105t-264 286t-93 397t92.5 396.5t263.5 285.5t387 106q148 0 274.5 -46t214 -126t141 -187t62.5 -228h-256q-7 45 -25.5 89t-54 89t-83.5 79t-118.5 55.5t-154.5 21.5q-150 0 -262.5 -71.5t-170.5 -192.5t-58 -271
t58 -271t170.5 -192.5t262.5 -71.5q97 0 179 30.5t134 79t83.5 103t39.5 107.5h256q-10 -105 -66.5 -207.5t-146 -183.5t-215.5 -131t-264 -51z" />
    <glyph glyph-name="cacute" unicode="&#x107;" horiz-adv-x="1173" 
d="M629 1536h260l-238 -334h-196zM584 -10q-243 0 -391 161t-148 414q0 254 147.5 413t391.5 159q112 0 203.5 -28t150 -72.5t100 -103.5t61 -116.5t25.5 -116.5h-247q-11 86 -88 146.5t-183 60.5q-137 0 -212 -93t-75 -249q0 -155 76.5 -249.5t212.5 -94.5q102 0 177.5 64
t91.5 151h245q-7 -63 -26.5 -121t-60.5 -119t-99 -105t-148.5 -72.5t-203.5 -28.5z" />
    <glyph glyph-name="Cdotaccent" unicode="&#x10a;" horiz-adv-x="1642" 
d="M821 1702q-63 0 -107 44t-44 107q0 62 44 106t107 44q61 0 105.5 -44.5t44.5 -105.5q0 -63 -44 -107t-106 -44zM819 -20q-215 -1 -386 105t-264 286t-93 397t92.5 396.5t263.5 285.5t387 106q148 0 274.5 -46t214 -126t141 -187t62.5 -228h-256q-7 45 -25.5 89t-54 89
t-83.5 79t-118.5 55.5t-154.5 21.5q-150 0 -262.5 -71.5t-170.5 -192.5t-58 -271t58 -271t170.5 -192.5t262.5 -71.5q97 0 179 30.5t134 79t83.5 103t39.5 107.5h256q-10 -105 -66.5 -207.5t-146 -183.5t-215.5 -131t-264 -51z" />
    <glyph glyph-name="cdotaccent" unicode="&#x10b;" horiz-adv-x="1173" 
d="M594 1190q-62 0 -106 44t-44 107q0 61 44 105.5t106 44.5q63 0 107 -44t44 -106q0 -63 -44 -107t-107 -44zM584 -10q-243 0 -391 161t-148 414q0 254 147.5 413t391.5 159q112 0 203.5 -28t150 -72.5t100 -103.5t61 -116.5t25.5 -116.5h-247q-11 86 -88 146.5t-183 60.5
q-137 0 -212 -93t-75 -249q0 -155 76.5 -249.5t212.5 -94.5q102 0 177.5 64t91.5 151h245q-7 -63 -26.5 -121t-60.5 -119t-99 -105t-148.5 -72.5t-203.5 -28.5z" />
    <glyph glyph-name="Ccaron" unicode="&#x10c;" horiz-adv-x="1642" 
d="M473 2048h191l157 -233l158 233h190l-215 -350h-268zM819 -20q-215 -1 -386 105t-264 286t-93 397t92.5 396.5t263.5 285.5t387 106q148 0 274.5 -46t214 -126t141 -187t62.5 -228h-256q-7 45 -25.5 89t-54 89t-83.5 79t-118.5 55.5t-154.5 21.5q-150 0 -262.5 -71.5
t-170.5 -192.5t-58 -271t58 -271t170.5 -192.5t262.5 -71.5q97 0 179 30.5t134 79t83.5 103t39.5 107.5h256q-10 -105 -66.5 -207.5t-146 -183.5t-215.5 -131t-264 -51z" />
    <glyph glyph-name="ccaron" unicode="&#x10d;" horiz-adv-x="1173" 
d="M231 1536h191l158 -233l157 233h191l-215 -350h-269zM584 -10q-243 0 -391 161t-148 414q0 254 147.5 413t391.5 159q112 0 203.5 -28t150 -72.5t100 -103.5t61 -116.5t25.5 -116.5h-247q-11 86 -88 146.5t-183 60.5q-137 0 -212 -93t-75 -249q0 -155 76.5 -249.5
t212.5 -94.5q102 0 177.5 64t91.5 151h245q-7 -63 -26.5 -121t-60.5 -119t-99 -105t-148.5 -72.5t-203.5 -28.5z" />
    <glyph glyph-name="Dcaron" unicode="&#x10e;" horiz-adv-x="1490" 
d="M254 2048h190l158 -233l158 233h190l-215 -350h-268zM129 1536h510q128 0 242.5 -30.5t211 -93.5t166.5 -153.5t109 -217t39 -277.5q0 -181 -60 -327.5t-165 -241t-244 -145t-299 -50.5h-510v1536zM637 233q109 0 199.5 31.5t160 94.5t108 166.5t38.5 238.5
q0 144 -38.5 250.5t-108.5 169t-159 92t-200 29.5h-244v-1072h244z" />
    <glyph glyph-name="dcaron" unicode="&#x10f;" horiz-adv-x="1673" 
d="M1391 1249q-45 17 -73 56t-28 86q0 63 44 106t106 43q61 0 103 -43t42 -106q0 -54 -43 -136.5t-96 -150.5h-139zM1180 1534v-1532l-242 -2l-23 133q-125 -143 -342 -143q-227 0 -371.5 160t-144.5 405q0 162 65 294.5t184 210t269 77.5q194 0 328 -144v541h277zM627 223
q96 0 170.5 60t105.5 157v232q-32 98 -106 158.5t-170 60.5q-131 0 -212 -96t-81 -240q0 -141 81 -236.5t212 -95.5z" />
    <glyph glyph-name="Dcroat" unicode="&#x110;" horiz-adv-x="1638" 
d="M786 1536q128 0 242.5 -30.5t211 -93.5t166.5 -153.5t109 -217t39 -277.5q0 -181 -60 -327.5t-165 -241t-244 -145t-299 -50.5h-512v692h-145v152h145v692h512zM784 233q109 0 199 31.5t159.5 94.5t108.5 166.5t39 238.5q0 144 -38.5 250.5t-109 169t-159.5 92t-199 29.5
h-243v-461h219v-152h-219v-459h243z" />
    <glyph glyph-name="dcroat" unicode="&#x111;" horiz-adv-x="1318" 
d="M1231 1188h-144v-1188l-229 -2l-14 127q-122 -145 -312 -145q-209 0 -342 153t-133 379q0 227 133 379.5t342 152.5q185 0 302 -133v277h-269v151h269v197h253v-197h144v-151zM582 207q88 0 156 55t96 146v210q-28 90 -96 145.5t-156 55.5q-121 0 -196 -88t-75 -219
q0 -130 75 -217.5t196 -87.5z" />
    <glyph glyph-name="Emacron" unicode="&#x112;" horiz-adv-x="1222" 
d="M897 1720h-635v164h635v-164zM383 1305v-420h639v-234h-639v-418h725v-233h-991v1536h991v-231h-725z" />
    <glyph glyph-name="emacron" unicode="&#x113;" horiz-adv-x="1177" 
d="M899 1212h-635v166h635v-166zM1110 567q0 -39 -6 -88h-787q10 -128 89 -202t188 -74q90 0 161.5 37.5t106.5 113.5h225q-12 -71 -47.5 -134t-94.5 -115.5t-150.5 -83.5t-202.5 -31q-243 0 -393 162t-150 411q0 253 144.5 413.5t398.5 160.5q240 0 379 -154.5t139 -415.5z
M590 920q-113 0 -179.5 -65.5t-86.5 -180.5h520q-15 117 -79 181.5t-175 64.5z" />
    <glyph glyph-name="Edotaccent" unicode="&#x116;" horiz-adv-x="1222" 
d="M580 1702q-63 0 -107.5 44t-44.5 107q0 62 44.5 106t107.5 44q62 0 106.5 -44.5t44.5 -105.5q0 -63 -44.5 -107t-106.5 -44zM383 1305v-420h639v-234h-639v-418h725v-233h-991v1536h991v-231h-725z" />
    <glyph glyph-name="edotaccent" unicode="&#x117;" horiz-adv-x="1177" 
d="M582 1194q-63 0 -107.5 44.5t-44.5 107.5q0 62 44.5 106.5t107.5 44.5q62 0 106.5 -44.5t44.5 -106.5q0 -63 -44.5 -107.5t-106.5 -44.5zM1110 567q0 -39 -6 -88h-787q10 -128 89 -202t188 -74q90 0 161.5 37.5t106.5 113.5h225q-12 -71 -47.5 -134t-94.5 -115.5
t-150.5 -83.5t-202.5 -31q-243 0 -393 162t-150 411q0 253 144.5 413.5t398.5 160.5q240 0 379 -154.5t139 -415.5zM590 920q-113 0 -179.5 -65.5t-86.5 -180.5h520q-15 117 -79 181.5t-175 64.5z" />
    <glyph glyph-name="Eogonek" unicode="&#x118;" horiz-adv-x="1247" 
d="M1044 -299l82 -115q-63 -63 -144.5 -92.5t-168.5 -23.5q-113 6 -183.5 63.5t-70.5 163.5q0 92 60 169.5t174 133.5h-676v1536h991v-231h-725v-420h639v-234h-639v-418h725v-233h-84q-126 -9 -208.5 -96.5t-82.5 -184.5q0 -55 32.5 -87.5t90.5 -32.5q54 0 105.5 28.5
t82.5 73.5z" />
    <glyph glyph-name="eogonek" unicode="&#x119;" horiz-adv-x="1136" 
d="M1110 567q0 -39 -6 -88h-787q10 -128 89 -202t188 -74q90 0 161.5 37.5t106.5 113.5h225q-10 -63 -39.5 -120t-77.5 -107t-121 -84.5t-163 -46.5l-6 -8q-55 -74 -55 -150q0 -55 33.5 -88t91.5 -33q54 0 105 29t83 74l82 -115q-127 -127 -313 -117q-114 6 -184 64t-70 166
q0 93 57 168v10q-209 28 -335 184.5t-126 382.5q0 253 144.5 413.5t398.5 160.5q240 0 379 -154.5t139 -415.5zM324 674h520q-15 117 -79 181.5t-175 64.5q-113 0 -179.5 -65.5t-86.5 -180.5z" />
    <glyph glyph-name="Ecaron" unicode="&#x11a;" horiz-adv-x="1222" 
d="M442 1698l-213 350h191l158 -233l157 233h191l-215 -350h-269zM383 1305v-420h639v-234h-639v-418h725v-233h-991v1536h991v-231h-725z" />
    <glyph glyph-name="ecaron" unicode="&#x11b;" horiz-adv-x="1177" 
d="M444 1190l-213 350h191l158 -233l157 233h191l-215 -350h-269zM1110 567q0 -39 -6 -88h-787q10 -128 89 -202t188 -74q90 0 161.5 37.5t106.5 113.5h225q-12 -71 -47.5 -134t-94.5 -115.5t-150.5 -83.5t-202.5 -31q-243 0 -393 162t-150 411q0 253 144.5 413.5
t398.5 160.5q240 0 379 -154.5t139 -415.5zM590 920q-113 0 -179.5 -65.5t-86.5 -180.5h520q-15 117 -79 181.5t-175 64.5z" />
    <glyph glyph-name="Gbreve" unicode="&#x11e;" horiz-adv-x="1581" 
d="M821 1659q-161 0 -258.5 89t-97.5 251h149q0 -77 58 -134t149 -57q92 0 150.5 57t58.5 134h150q0 -162 -98.5 -251t-260.5 -89zM1479 809v-262v-547h-179l-36 205q-83 -113 -198.5 -164t-285.5 -51q-217 0 -382.5 99t-253 273.5t-87.5 399.5q0 231 89 409t250.5 275.5
t371.5 97.5q177 0 320 -56t240 -176t118 -292h-256q-27 131 -137.5 207t-259.5 76q-233 0 -361.5 -144t-128.5 -397q0 -120 38.5 -221t104 -168t151.5 -104.5t181 -37.5q192 0 311 95.5t119 257.5h-383v225h654z" />
    <glyph glyph-name="gbreve" unicode="&#x11f;" horiz-adv-x="1177" 
d="M618 1147q-161 0 -258.5 89t-97.5 251h150q0 -77 57.5 -134t148.5 -57q92 0 151.5 57t59.5 134h148q0 -162 -98.5 -251t-260.5 -89zM580 -508q-224 -4 -360 78t-157 213q-12 78 21.5 165.5t112.5 131.5q-46 16 -81.5 65.5t-35.5 106.5q0 125 149 205q-51 49 -87 128.5
t-36 166.5q0 161 131 275t332 114q72 0 157 -21.5t130 -56.5q16 50 64.5 87.5t103 51t96.5 4.5v-174q-48 15 -94 -1t-65 -64q92 -119 92 -230q0 -182 -135.5 -297.5t-337.5 -120.5q-137 -7 -215 41q-34 -12 -50.5 -35t-7.5 -46q8 -27 48 -46t112 -20l223 -2
q180 -3 291.5 -76.5t126.5 -206.5q21 -202 -124.5 -316t-403.5 -120zM793 739q0 85 -62.5 134t-161.5 49q-96 0 -156.5 -50.5t-60.5 -134.5t61 -136t156 -52q99 0 161.5 52t62.5 138zM856 -119q-5 121 -283 121h-174q-45 -11 -71.5 -52t-26.5 -85q0 -75 71 -115.5t187 -40.5
q139 0 221 47t76 125z" />
    <glyph glyph-name="Gdotaccent" unicode="&#x120;" horiz-adv-x="1581" 
d="M885 1702q-63 0 -107.5 44t-44.5 107q0 62 44.5 106t107.5 44q61 0 105 -44t44 -106q0 -63 -43.5 -107t-105.5 -44zM1479 809v-262v-547h-179l-36 205q-83 -113 -198.5 -164t-285.5 -51q-217 0 -382.5 99t-253 273.5t-87.5 399.5q0 231 89 409t250.5 275.5t371.5 97.5
q177 0 320 -56t240 -176t118 -292h-256q-27 131 -137.5 207t-259.5 76q-233 0 -361.5 -144t-128.5 -397q0 -120 38.5 -221t104 -168t151.5 -104.5t181 -37.5q192 0 311 95.5t119 257.5h-383v225h654z" />
    <glyph glyph-name="gdotaccent" unicode="&#x121;" horiz-adv-x="1177" 
d="M590 1190q-63 0 -107.5 44t-44.5 107q0 62 44.5 106t107.5 44q62 0 106.5 -44.5t44.5 -105.5q0 -63 -44.5 -107t-106.5 -44zM580 -508q-224 -4 -360 78t-157 213q-12 78 21.5 165.5t112.5 131.5q-46 16 -81.5 65.5t-35.5 106.5q0 125 149 205q-51 49 -87 128.5t-36 166.5
q0 161 131 275t332 114q72 0 157 -21.5t130 -56.5q16 50 64.5 87.5t103 51t96.5 4.5v-174q-48 15 -94 -1t-65 -64q92 -119 92 -230q0 -182 -135.5 -297.5t-337.5 -120.5q-137 -7 -215 41q-34 -12 -50.5 -35t-7.5 -46q8 -27 48 -46t112 -20l223 -2q180 -3 291.5 -76.5
t126.5 -206.5q21 -202 -124.5 -316t-403.5 -120zM793 739q0 85 -62.5 134t-161.5 49q-96 0 -156.5 -50.5t-60.5 -134.5t61 -136t156 -52q99 0 161.5 52t62.5 138zM856 -119q-5 121 -283 121h-174q-45 -11 -71.5 -52t-26.5 -85q0 -75 71 -115.5t187 -40.5q139 0 221 47
t76 125z" />
    <glyph glyph-name="uni0122" unicode="&#x122;" horiz-adv-x="1581" 
d="M1479 809v-262v-547h-179l-36 205q-83 -113 -198.5 -164t-285.5 -51q-217 0 -382.5 99t-253 273.5t-87.5 399.5q0 231 89 409t250.5 275.5t371.5 97.5q177 0 320 -56t240 -176t118 -292h-256q-27 131 -137.5 207t-259.5 76q-233 0 -361.5 -144t-128.5 -397
q0 -120 38.5 -221t104 -168t151.5 -104.5t181 -37.5q192 0 311 95.5t119 257.5h-383v225h654zM813 -387q-44 15 -72 54.5t-28 86.5q0 62 44 106t105 44t103.5 -43.5t42.5 -106.5q0 -55 -42.5 -136t-97.5 -153h-139z" />
    <glyph glyph-name="uni0123" unicode="&#x123;" horiz-adv-x="1177" 
d="M649 1452q46 -17 73.5 -55.5t27.5 -85.5q0 -63 -43.5 -106.5t-106.5 -43.5q-61 0 -103 43.5t-42 106.5q0 54 43.5 136.5t97.5 149.5h137zM580 -508q-224 -4 -360 78t-157 213q-12 78 21.5 165.5t112.5 131.5q-46 16 -81.5 65.5t-35.5 106.5q0 125 149 205
q-51 49 -87 128.5t-36 166.5q0 161 131 275t332 114q72 0 157 -21.5t130 -56.5q16 50 64.5 87.5t103 51t96.5 4.5v-174q-48 15 -94 -1t-65 -64q92 -119 92 -230q0 -182 -135.5 -297.5t-337.5 -120.5q-137 -7 -215 41q-34 -12 -50.5 -35t-7.5 -46q8 -27 48 -46t112 -20
l223 -2q180 -3 291.5 -76.5t126.5 -206.5q21 -202 -124.5 -316t-403.5 -120zM793 739q0 85 -62.5 134t-161.5 49q-96 0 -156.5 -50.5t-60.5 -134.5t61 -136t156 -52q99 0 161.5 52t62.5 138zM856 -119q-5 121 -283 121h-174q-45 -11 -71.5 -52t-26.5 -85q0 -75 71 -115.5
t187 -40.5q139 0 221 47t76 125z" />
    <glyph glyph-name="Hbar" unicode="&#x126;" horiz-adv-x="1767" 
d="M1634 1155h-127v-1155h-266v651h-713v-651h-268v1155h-127v102h127v279h268v-279h713v279h266v-279h127v-102zM1241 1155h-713v-268h713v268z" />
    <glyph glyph-name="hbar" unicode="&#x127;" horiz-adv-x="1351" 
d="M866 1137q194 0 304 -108.5t110 -301.5v-727h-281v692q0 96 -56 147.5t-159 51.5q-110 0 -192 -59.5t-82 -155.5v-676h-281v1198h-106v152h106v186h281v-186h276v-152h-276v-209q62 68 158.5 108t197.5 40z" />
    <glyph glyph-name="Itilde" unicode="&#x128;" horiz-adv-x="532" 
d="M401 1688q-119 0 -200 116q-26 45 -68 45q-40 0 -55.5 -41t2.5 -104h-156q-24 127 35.5 211t165.5 84q129 0 203 -117q26 -45 69 -45q40 0 55.5 40t-1.5 103h151q26 -125 -32 -208.5t-169 -83.5zM133 1536h266v-1536h-266v1536z" />
    <glyph glyph-name="itilde" unicode="&#x129;" horiz-adv-x="524" 
d="M399 1176q-122 0 -200 116q-29 45 -70 45q-39 0 -54.5 -41t1.5 -104h-154q-24 127 35.5 211t165.5 84q126 0 203 -117q26 -45 67 -45t56.5 40t-3.5 103h154q26 -125 -32 -208.5t-169 -83.5zM133 1024h258v-1024h-258v1024z" />
    <glyph glyph-name="Imacron" unicode="&#x12a;" horiz-adv-x="532" 
d="M-53 1884h637v-164h-637v164zM133 1536h266v-1536h-266v1536z" />
    <glyph glyph-name="imacron" unicode="&#x12b;" horiz-adv-x="524" 
d="M-57 1372h637v-164h-637v164zM133 1024h258v-1024h-258v1024z" />
    <glyph glyph-name="Iogonek" unicode="&#x12e;" horiz-adv-x="532" 
d="M473 -414q-62 -63 -144 -92.5t-169 -23.5q-114 6 -185 64t-71 163q0 92 60.5 169.5t176.5 133.5h-8v1536h266v-1536h-28q-125 -9 -208 -97t-83 -184q0 -55 33 -87.5t92 -32.5q53 0 104.5 28.5t81.5 73.5z" />
    <glyph glyph-name="iogonek" unicode="&#x12f;" horiz-adv-x="524" 
d="M262 1190q-62 0 -106.5 44t-44.5 107q0 61 44.5 105.5t106.5 44.5t107 -44.5t45 -105.5q0 -63 -45 -107t-107 -44zM471 -414q-63 -63 -144.5 -92.5t-168.5 -23.5q-115 6 -186.5 64t-71.5 163q0 92 60.5 169.5t176.5 133.5h-4v1024h258v-1024h-24q-125 -9 -208 -97
t-83 -184q0 -55 33 -87.5t92 -32.5q55 0 105.5 28.5t80.5 73.5z" />
    <glyph glyph-name="Idotaccent" unicode="&#x130;" horiz-adv-x="532" 
d="M266 1702q-63 0 -107 44t-44 107q0 62 44 106t107 44q62 0 107 -44.5t45 -105.5q0 -63 -45 -107t-107 -44zM133 1536h266v-1536h-266v1536z" />
    <glyph glyph-name="dotlessi" unicode="&#x131;" horiz-adv-x="524" 
d="M133 1024h258v-1024h-258v1024z" />
    <glyph glyph-name="IJ" unicode="&#x132;" horiz-adv-x="1554" 
d="M182 1536h269v-1536h-269v1536zM940 -20q-104 0 -162 20v270q70 -24 148 -24q53 0 92 39t39 94v1157h264v-1180q0 -166 -108 -271t-273 -105z" />
    <glyph glyph-name="ij" unicode="&#x133;" horiz-adv-x="1312" 
d="M997 1235q-62 0 -106.5 44t-44.5 107q0 61 44.5 105.5t106.5 44.5q61 0 106.5 -44.5t45.5 -105.5q0 -62 -45.5 -106.5t-106.5 -44.5zM324 1204q-60 0 -105 45.5t-45 106.5q0 62 44.5 106.5t105.5 44.5q63 0 108 -44t45 -107q0 -62 -45 -107t-108 -45zM655 -510v227h47
q87 0 125.5 35t38.5 119v1255h260v-1276q0 -64 -14.5 -117t-38.5 -89.5t-58.5 -64.5t-71 -44.5t-80 -27t-81.5 -14t-80 -3.5h-47zM195 1024h258v-1024h-258v1024z" />
    <glyph glyph-name="uni0136" unicode="&#x136;" horiz-adv-x="1380" 
d="M1032 0l-643 694v-694h-266v1536h266v-696l563 696h310l-598 -758l716 -778h-348zM635 -365q-44 15 -72 55t-28 87q0 61 43.5 105t105.5 44q61 0 103 -43t42 -106q0 -55 -42.5 -136.5t-96.5 -152.5h-139z" />
    <glyph glyph-name="uni0137" unicode="&#x137;" horiz-adv-x="1114" 
d="M111 0v1536h280v-836l344 426h291l-434 -518l485 -608h-297l-389 492v-492h-280zM541 -365q-44 17 -71.5 57t-27.5 87q0 62 43.5 105.5t106.5 43.5q60 0 102.5 -43.5t42.5 -105.5q0 -55 -43.5 -138.5t-97.5 -150.5h-139z" />
    <glyph glyph-name="Lacute" unicode="&#x139;" horiz-adv-x="995" 
d="M346 2048h260l-237 -334h-197zM133 1536h266v-1303h535v-233h-801v1536z" />
    <glyph glyph-name="lacute" unicode="&#x13a;" horiz-adv-x="714" 
d="M330 2048h260l-238 -334h-196zM150 0v1536h258v-1536h-258z" />
    <glyph glyph-name="uni013B" unicode="&#x13b;" horiz-adv-x="995" 
d="M133 1536h266v-1303h535v-233h-801v1536zM483 -403q-44 17 -71 55.5t-27 85.5q0 63 43.5 106t106.5 43q60 0 102.5 -43t42.5 -106q0 -54 -43.5 -137t-97.5 -150h-140z" />
    <glyph glyph-name="uni013C" unicode="&#x13c;" horiz-adv-x="714" 
d="M150 0v1536h258v-1536h-258zM229 -383q-44 17 -71 55.5t-27 85.5q0 63 43.5 106.5t106.5 43.5q60 0 102.5 -43.5t42.5 -106.5q0 -54 -43.5 -136.5t-97.5 -149.5h-140z" />
    <glyph glyph-name="Lcaron" unicode="&#x13d;" horiz-adv-x="1019" 
d="M801 1245q-46 17 -73.5 57t-27.5 87q0 62 43.5 105.5t106.5 43.5q61 0 103 -43.5t42 -105.5q0 -55 -43.5 -138.5t-97.5 -150.5h-137zM133 1536h266v-1303h535v-233h-801v1536z" />
    <glyph glyph-name="lcaron" unicode="&#x13e;" horiz-adv-x="927" 
d="M680 1257q-44 17 -71 57t-27 87q0 62 43 105.5t106 43.5q60 0 103 -44t43 -105q0 -55 -44 -138.5t-98 -150.5h-139zM150 0v1536h258v-1536h-258z" />
    <glyph glyph-name="ldot" unicode="&#x140;" horiz-adv-x="780" 
d="M150 0v1536h258v-1536h-258zM629 625q-46 0 -79.5 32.5t-33.5 79.5q0 46 33.5 80.5t79.5 34.5q45 0 79.5 -35t34.5 -80q0 -46 -34.5 -79t-79.5 -33z" />
    <glyph glyph-name="Lslash" unicode="&#x141;" horiz-adv-x="995" 
d="M934 233v-233h-801v547l-86 -90h-162l248 262v817h266v-539l80 84h166l-246 -256v-592h535z" />
    <glyph glyph-name="lslash" unicode="&#x142;" horiz-adv-x="714" 
d="M657 1083l-247 -258l-2 -2v-823h-258v553l-93 -94h-159l252 264v813h258v-541l2 2l82 86h165z" />
    <glyph glyph-name="Nacute" unicode="&#x143;" horiz-adv-x="1632" 
d="M922 1714h-199l176 334h258zM1499 1536v-1536h-266l-834 1128v-1128h-266v1536h268l834 -1126v1126h264z" />
    <glyph glyph-name="nacute" unicode="&#x144;" horiz-adv-x="1226" 
d="M719 1202h-199l176 334h258zM741 1141q193 0 302.5 -109t109.5 -303v-729h-279v696q0 96 -55 147.5t-157 51.5q-111 0 -193 -59t-82 -154v-682h-281v1126h250l19 -147q61 74 161 118t205 44z" />
    <glyph glyph-name="uni0145" unicode="&#x145;" horiz-adv-x="1632" 
d="M1499 1536v-1536h-266l-834 1128v-1128h-266v1536h268l834 -1126v1126h264zM793 -360q-46 17 -73.5 56.5t-27.5 86.5q0 62 43.5 105.5t106.5 43.5q61 0 103 -43.5t42 -105.5q0 -55 -43.5 -138.5t-97.5 -150.5h-137z" />
    <glyph glyph-name="uni0146" unicode="&#x146;" horiz-adv-x="1226" 
d="M741 1141q193 0 302.5 -109t109.5 -303v-729h-279v696q0 96 -55 147.5t-157 51.5q-111 0 -193 -59t-82 -154v-682h-281v1126h250l19 -147q61 74 161 118t205 44zM555 -395q-44 17 -71 55.5t-27 85.5q0 63 43 106.5t106 43.5q60 0 103 -43.5t43 -106.5q0 -54 -44 -137
t-98 -150h-139z" />
    <glyph glyph-name="Ncaron" unicode="&#x147;" horiz-adv-x="1632" 
d="M684 1698l-213 350h191l157 -233l158 233h190l-215 -350h-268zM1499 1536v-1536h-266l-834 1128v-1128h-266v1536h268l834 -1126v1126h264z" />
    <glyph glyph-name="ncaron" unicode="&#x148;" horiz-adv-x="1226" 
d="M481 1186l-211 350h191l155 -233l160 233h191l-217 -350h-269zM741 1141q193 0 302.5 -109t109.5 -303v-729h-279v696q0 96 -55 147.5t-157 51.5q-111 0 -193 -59t-82 -154v-682h-281v1126h250l19 -147q61 74 161 118t205 44z" />
    <glyph glyph-name="Eng" unicode="&#x14a;" horiz-adv-x="1679" 
d="M1518 1536v-1657q0 -89 -32 -155t-90 -104t-131 -56.5t-163 -18.5v172q35 -1 59.5 4.5t47 21.5t33.5 50t11 86v133l-835 1102v-1114h-256v1536h258l842 -1112v1112h256z" />
    <glyph glyph-name="eng" unicode="&#x14b;" horiz-adv-x="1265" 
d="M1153 729v-729h-55v-139q0 -87 -32.5 -153t-90.5 -104.5t-132 -57t-163 -17.5v172q36 -1 61.5 4.5t49.5 21t36.5 49.5t12.5 85v153l34 4v678q0 96 -55 147.5t-157 51.5q-111 0 -193 -59t-82 -154v-682h-281v1126h250l19 -147q61 74 161 118t205 44q193 0 302.5 -109
t109.5 -303z" />
    <glyph glyph-name="Omacron" unicode="&#x14c;" horiz-adv-x="1669" 
d="M518 1884h635v-164h-635v164zM836 -20q-217 0 -389.5 106t-266.5 285.5t-94 396.5t94 396.5t266.5 285.5t389.5 106q216 0 388.5 -106t266.5 -285.5t94 -396.5t-94 -396.5t-266.5 -285.5t-388.5 -106zM836 238q149 0 261.5 70.5t171 190t58.5 269.5q0 151 -58.5 271
t-171 190.5t-261.5 70.5q-150 0 -264 -70.5t-173 -190.5t-59 -271q0 -150 59 -269.5t173 -190t264 -70.5z" />
    <glyph glyph-name="omacron" unicode="&#x14d;" horiz-adv-x="1185" 
d="M276 1372h635v-164h-635v164zM594 -20q-150 0 -270.5 71t-187 192.5t-66.5 268.5q0 226 148 379t376 153q150 0 270 -70.5t187 -192t67 -269.5q0 -147 -66.5 -268.5t-187 -192.5t-270.5 -71zM594 207q118 0 193 87.5t75 217.5q0 131 -75 219t-193 88q-121 0 -195.5 -87.5
t-74.5 -219.5q0 -130 74.5 -217.5t195.5 -87.5z" />
    <glyph glyph-name="Ohungarumlaut" unicode="&#x150;" horiz-adv-x="1669" 
d="M836 2048h243l-352 -362h-182zM1235 2048h244l-353 -362h-182zM836 -20q-217 0 -389.5 106t-266.5 285.5t-94 396.5t94 396.5t266.5 285.5t389.5 106q216 0 388.5 -106t266.5 -285.5t94 -396.5t-94 -396.5t-266.5 -285.5t-388.5 -106zM836 238q149 0 261.5 70.5t171 190
t58.5 269.5q0 151 -58.5 271t-171 190.5t-261.5 70.5q-150 0 -264 -70.5t-173 -190.5t-59 -271q0 -150 59 -269.5t173 -190t264 -70.5z" />
    <glyph glyph-name="ohungarumlaut" unicode="&#x151;" horiz-adv-x="1185" 
d="M594 1536h242l-353 -362h-180zM991 1536h244l-350 -362h-183zM594 -20q-150 0 -270.5 71t-187 192.5t-66.5 268.5q0 226 148 379t376 153q150 0 270 -70.5t187 -192t67 -269.5q0 -147 -66.5 -268.5t-187 -192.5t-270.5 -71zM594 207q118 0 193 87.5t75 217.5
q0 131 -75 219t-193 88q-121 0 -195.5 -87.5t-74.5 -219.5q0 -130 74.5 -217.5t195.5 -87.5z" />
    <glyph glyph-name="OE" unicode="&#x152;" horiz-adv-x="2654" 
d="M2435 1305h-725v-420h639v-234h-639v-418h725v-233h-991v199q-107 -102 -245.5 -159.5t-293.5 -57.5q-214 0 -395.5 105.5t-287 287t-105.5 395.5q0 161 62.5 307t167.5 251.5t251 168t307 62.5q155 0 294 -57.5t245 -160.5v195h991v-231zM905 238q146 0 268.5 70.5
t193.5 193t71 268.5t-71 268.5t-193.5 193.5t-268.5 71t-268.5 -71t-193 -193.5t-70.5 -268.5t70.5 -268.5t193 -193t268.5 -70.5z" />
    <glyph glyph-name="oe" unicode="&#x153;" horiz-adv-x="1941" 
d="M1921 567q0 -39 -6 -88h-787q10 -128 89 -202t188 -74q90 0 161.5 37.5t106.5 113.5h225q-12 -71 -47.5 -134t-94.5 -115.5t-150.5 -83.5t-202.5 -31q-248 0 -399 170q-75 -85 -180 -132.5t-228 -47.5q-161 0 -290 78t-200 211.5t-71 295.5q0 163 71 296.5t200 211.5
t290 78q122 0 225.5 -47t177.5 -131q148 164 404 164q240 0 379 -154.5t139 -415.5zM1135 674h520q-15 117 -79 181.5t-175 64.5q-113 0 -179.5 -65.5t-86.5 -180.5zM596 229q100 0 171.5 61t100.5 161q-8 49 -8 112q0 67 8 119q-29 100 -100.5 160.5t-171.5 60.5
q-128 0 -208.5 -97t-80.5 -241q0 -142 80.5 -239t208.5 -97z" />
    <glyph glyph-name="Racute" unicode="&#x154;" horiz-adv-x="1239" 
d="M743 1714h-198l176 334h258zM1305 0h-299l-367 592h-260v-592h-266v1536h675q122 0 225.5 -69t162.5 -180.5t59 -235.5q0 -155 -93.5 -283t-234.5 -160zM778 801q92 0 153.5 72.5t61.5 179.5q0 106 -62 179t-153 73h-399v-504h399z" />
    <glyph glyph-name="racute" unicode="&#x155;" horiz-adv-x="874" 
d="M545 1202h-197l174 334h260zM799 1139v-244q-204 3 -310 -83t-106 -284v-528h-281v1126h260l19 -170q35 76 139.5 131t278.5 52z" />
    <glyph glyph-name="uni0156" unicode="&#x156;" horiz-adv-x="1239" 
d="M1305 0h-299l-367 592h-260v-592h-266v1536h675q122 0 225.5 -69t162.5 -180.5t59 -235.5q0 -155 -93.5 -283t-234.5 -160zM778 801q92 0 153.5 72.5t61.5 179.5q0 106 -62 179t-153 73h-399v-504h399zM606 -365q-44 17 -71 57t-27 87q0 62 43 105.5t106 43.5
q60 0 103 -44t43 -105q0 -55 -43.5 -138.5t-97.5 -150.5h-140z" />
    <glyph glyph-name="uni0157" unicode="&#x157;" horiz-adv-x="874" 
d="M799 1139v-244q-204 3 -310 -83t-106 -284v-528h-281v1126h260l19 -170q35 76 139.5 131t278.5 52zM201 -387q-44 17 -71.5 56.5t-27.5 86.5q0 62 43.5 106t106.5 44q60 0 102.5 -44t42.5 -106q0 -55 -43.5 -138t-97.5 -150h-139z" />
    <glyph glyph-name="Rcaron" unicode="&#x158;" horiz-adv-x="1239" 
d="M506 1698l-211 350h190l156 -233l160 233h190l-217 -350h-268zM1305 0h-299l-367 592h-260v-592h-266v1536h675q122 0 225.5 -69t162.5 -180.5t59 -235.5q0 -155 -93.5 -283t-234.5 -160zM778 801q92 0 153.5 72.5t61.5 179.5q0 106 -62 179t-153 73h-399v-504h399z" />
    <glyph glyph-name="rcaron" unicode="&#x159;" horiz-adv-x="874" 
d="M313 1186l-213 350h191l158 -233l157 233h191l-215 -350h-269zM799 1139v-244q-204 3 -310 -83t-106 -284v-528h-281v1126h260l19 -170q35 76 139.5 131t278.5 52z" />
    <glyph glyph-name="Sacute" unicode="&#x15a;" horiz-adv-x="1312" 
d="M776 2048h258l-235 -334h-199zM657 -20q-244 0 -396 137.5t-173 357.5h238q11 -48 33.5 -89.5t61.5 -78.5t101.5 -58.5t143.5 -21.5q128 0 206.5 50.5t79.5 150.5q0 37 -13 69.5t-38.5 58t-56 47t-72.5 41t-81.5 35.5t-88.5 34q-15 5 -22 8q-57 21 -93 35.5t-87.5 39
t-84 46.5t-69.5 54.5t-58 67t-35 80t-14 97.5q0 126 74 222t193.5 144.5t261.5 48.5q477 0 561 -473h-246q-12 101 -91.5 175.5t-217.5 74.5q-106 0 -184 -49t-78 -133q0 -29 10.5 -54.5t36.5 -48.5t48.5 -39t68 -36.5t72 -31.5t81.5 -32q177 -71 241 -105
q186 -101 234 -248q19 -57 19 -124q0 -110 -45 -197.5t-123.5 -142.5t-180 -83.5t-217.5 -28.5z" />
    <glyph glyph-name="sacute" unicode="&#x15b;" horiz-adv-x="1005" 
d="M582 1536h260l-236 -334h-198zM551 -16q-114 0 -207 33.5t-151 88t-91 118.5t-39 130h238q17 -75 87 -123t155 -45q85 4 127.5 40.5t42.5 97.5q0 27 -13.5 49t-34 37t-56 29.5t-67 23t-79.5 20.5q-63 16 -106 29.5t-97.5 39.5t-87.5 56.5t-56.5 79.5t-23.5 109
q0 158 124 253t321 95q80 0 153 -21t134.5 -62t102 -109t48.5 -154h-238q-14 63 -66.5 97.5t-121.5 37.5q-75 5 -123.5 -23t-48.5 -82q0 -24 13 -44t28.5 -32t51.5 -26t57 -20.5t71 -19.5l33 -9q60 -17 103 -32.5t95 -44t84.5 -62t55 -85.5t22.5 -116q0 -160 -121 -257
t-319 -97z" />
    <glyph glyph-name="Scedilla" unicode="&#x15e;" horiz-adv-x="1312" 
d="M729 909q177 -71 241 -105q186 -101 234 -248q19 -57 19 -124q0 -139 -70.5 -240t-184.5 -152t-259 -58l-60 -109q104 19 176 -35.5t72 -150.5q0 -92 -63.5 -155.5t-155.5 -63.5q-74 0 -143.5 41.5t-94.5 101.5l113 43q19 -28 55.5 -48t69.5 -20q41 0 68.5 29.5
t27.5 71.5q0 62 -52 82.5t-128 -11.5l-96 58l90 168q-215 20 -348 154t-152 337h238q11 -48 33.5 -89.5t61.5 -78.5t101.5 -58.5t143.5 -21.5q128 0 206.5 50.5t79.5 150.5q0 37 -13 69.5t-38.5 58t-56 47t-72.5 41t-81.5 35.5t-88.5 34q-15 5 -22 8q-57 21 -93 35.5
t-87.5 39t-84 46.5t-69.5 54.5t-58 67t-35 80t-14 97.5q0 126 74 222t193.5 144.5t261.5 48.5q477 0 561 -473h-246q-12 101 -91.5 175.5t-217.5 74.5q-106 0 -184 -49t-78 -133q0 -29 10.5 -54.5t36.5 -48.5t48.5 -39t68 -36.5t72 -31.5t81.5 -32z" />
    <glyph glyph-name="scedilla" unicode="&#x15f;" horiz-adv-x="1005" 
d="M551 -16q-114 0 -207 33.5t-151 88t-91 118.5t-39 130h238q17 -75 87 -123t155 -45q85 4 127.5 40.5t42.5 97.5q0 27 -13.5 49t-34 37t-56 29.5t-67 23t-79.5 20.5q-63 16 -106 29.5t-97.5 39.5t-87.5 56.5t-56.5 79.5t-23.5 109q0 158 124 253t321 95q80 0 153 -21
t134.5 -62t102 -109t48.5 -154h-238q-14 63 -66.5 97.5t-121.5 37.5q-75 5 -123.5 -23t-48.5 -82q0 -24 13 -44t28.5 -32t51.5 -26t57 -20.5t71 -19.5l33 -9q60 -17 103 -32.5t95 -44t84.5 -62t55 -85.5t22.5 -116q0 -160 -121 -257t-319 -97zM578 -18l-58 -111
q102 20 174 -34t72 -150q0 -92 -63.5 -155.5t-155.5 -63.5q-74 0 -143 41.5t-95 101.5l113 43q19 -29 55 -48.5t70 -19.5q41 0 69.5 29.5t28.5 71.5q0 62 -52.5 82t-129.5 -13l-94 58l88 170z" />
    <glyph glyph-name="Scaron" unicode="&#x160;" horiz-adv-x="1312" 
d="M348 2048h191l157 -233l158 233h190l-215 -350h-268zM657 -20q-244 0 -396 137.5t-173 357.5h238q11 -48 33.5 -89.5t61.5 -78.5t101.5 -58.5t143.5 -21.5q128 0 206.5 50.5t79.5 150.5q0 37 -13 69.5t-38.5 58t-56 47t-72.5 41t-81.5 35.5t-88.5 34q-15 5 -22 8
q-57 21 -93 35.5t-87.5 39t-84 46.5t-69.5 54.5t-58 67t-35 80t-14 97.5q0 126 74 222t193.5 144.5t261.5 48.5q477 0 561 -473h-246q-12 101 -91.5 175.5t-217.5 74.5q-106 0 -184 -49t-78 -133q0 -29 10.5 -54.5t36.5 -48.5t48.5 -39t68 -36.5t72 -31.5t81.5 -32
q177 -71 241 -105q186 -101 234 -248q19 -57 19 -124q0 -110 -45 -197.5t-123.5 -142.5t-180 -83.5t-217.5 -28.5z" />
    <glyph glyph-name="scaron" unicode="&#x161;" horiz-adv-x="1005" 
d="M156 1536h190l158 -233l158 233h190l-215 -350h-268zM551 -16q-114 0 -207 33.5t-151 88t-91 118.5t-39 130h238q17 -75 87 -123t155 -45q85 4 127.5 40.5t42.5 97.5q0 27 -13.5 49t-34 37t-56 29.5t-67 23t-79.5 20.5q-63 16 -106 29.5t-97.5 39.5t-87.5 56.5
t-56.5 79.5t-23.5 109q0 158 124 253t321 95q80 0 153 -21t134.5 -62t102 -109t48.5 -154h-238q-14 63 -66.5 97.5t-121.5 37.5q-75 5 -123.5 -23t-48.5 -82q0 -24 13 -44t28.5 -32t51.5 -26t57 -20.5t71 -19.5l33 -9q60 -17 103 -32.5t95 -44t84.5 -62t55 -85.5t22.5 -116
q0 -160 -121 -257t-319 -97z" />
    <glyph glyph-name="uni0162" unicode="&#x162;" horiz-adv-x="1230" 
d="M745 0h-51l-67 -129q102 20 173.5 -34t71.5 -150q0 -92 -63 -155.5t-154 -63.5q-75 0 -144 41.5t-95 101.5l114 43q17 -29 53 -48.5t72 -19.5q41 0 69 29.5t28 71.5q0 62 -53 82.5t-128 -13.5l-96 58l98 186h-90v1305h-446v231h1153v-231h-445v-1305z" />
    <glyph glyph-name="uni0163" unicode="&#x163;" horiz-adv-x="761" 
d="M659 -2q-56 0 -97 2.5t-87.5 11t-79.5 24t-65 42t-51 64t-31 91.5t-12 123v553h-187v221h187v406h260v-406h290v-221h-292v-532q0 -83 39.5 -118.5t125.5 -35.5h136v-225h-136zM485 -129q104 20 176 -34t72 -150q0 -92 -63.5 -155.5t-155.5 -63.5q-74 0 -143.5 41.5
t-94.5 101.5l113 43q19 -29 55 -48.5t70 -19.5q41 0 68.5 29.5t27.5 71.5q0 62 -52 82t-128 -13l-96 58l98 186l111 -14z" />
    <glyph glyph-name="Tcaron" unicode="&#x164;" horiz-adv-x="1210" 
d="M512 1698l-213 350h190l158 -233l158 233h190l-215 -350h-268zM1190 1305h-445v-1305h-262v1305h-446v231h1153v-231z" />
    <glyph glyph-name="tcaron" unicode="&#x165;" horiz-adv-x="847" 
d="M686 1305q-46 17 -73 56.5t-27 86.5q0 62 43 105.5t106 43.5q61 0 103.5 -43.5t42.5 -105.5q0 -55 -44 -138.5t-98 -150.5h-137zM659 -2q-56 0 -97 2.5t-87.5 11t-79.5 24t-65 42t-51 64t-31 91.5t-12 123v553h-187v221h187v406h260v-406h290v-221h-292v-532
q0 -83 39.5 -118.5t125.5 -35.5h136v-225h-136z" />
    <glyph glyph-name="Tbar" unicode="&#x166;" horiz-adv-x="1155" 
d="M1190 1305h-445v-461h76l144 -25l-88 -127h-132v-692h-262v707l-182 12l55 125h127v461h-446v231h1153v-231z" />
    <glyph glyph-name="tbar" unicode="&#x167;" horiz-adv-x="761" 
d="M659 223h136v-225h-136q-56 0 -97 2.5t-87.5 11t-79.5 24t-65 42t-51 64t-31 91.5t-12 123v80h-187v152h187v321h-187v221h187v406h260v-406h290v-221h-292v-321h221v-152h-221v-59q0 -83 39.5 -118.5t125.5 -35.5z" />
    <glyph glyph-name="Utilde" unicode="&#x168;" horiz-adv-x="1503" 
d="M889 1688q-122 0 -203 116q-26 45 -68 45q-40 0 -55.5 -41t2.5 -104h-151q-26 127 33 211t165 84q126 0 203 -117q23 -45 68 -45q40 0 55.5 40t-2.5 103h151q26 -126 -30.5 -209t-167.5 -83zM731 -20q-169 0 -310.5 69t-222.5 188t-81 261v1038h266v-991
q0 -138 101.5 -235t246.5 -97t248.5 97t103.5 235v991h267v-1038q0 -142 -83 -261.5t-225.5 -188t-310.5 -68.5z" />
    <glyph glyph-name="Umacron" unicode="&#x16a;" horiz-adv-x="1503" 
d="M434 1884h635v-164h-635v164zM731 -20q-169 0 -310.5 69t-222.5 188t-81 261v1038h266v-991q0 -138 101.5 -235t246.5 -97t248.5 97t103.5 235v991h267v-1038q0 -142 -83 -261.5t-225.5 -188t-310.5 -68.5z" />
    <glyph glyph-name="umacron" unicode="&#x16b;" horiz-adv-x="1232" 
d="M936 1208h-635v164h635v-164zM1171 1126v-1126h-249l-19 152q-62 -75 -161 -118.5t-203 -43.5q-186 0 -303 120.5t-117 309.5v706h280v-673q0 -99 58 -158t159 -59q109 0 192 61t83 156v673h280z" />
    <glyph glyph-name="Uring" unicode="&#x16e;" horiz-adv-x="1503" 
d="M752 1647q-95 0 -163.5 68t-68.5 163q0 92 68.5 159.5t163.5 67.5q93 0 160 -67t67 -160q0 -95 -66.5 -163t-160.5 -68zM752 1757q51 0 84.5 33.5t33.5 87.5q0 50 -34 85.5t-84 35.5t-84.5 -35.5t-34.5 -85.5q0 -54 33.5 -87.5t85.5 -33.5zM731 -20q-169 0 -310.5 69
t-222.5 188t-81 261v1038h266v-991q0 -138 101.5 -235t246.5 -97t248.5 97t103.5 235v991h267v-1038q0 -142 -83 -261.5t-225.5 -188t-310.5 -68.5z" />
    <glyph glyph-name="uring" unicode="&#x16f;" horiz-adv-x="1232" 
d="M618 1135q-95 0 -162 68t-67 163q0 93 67 160t162 67q94 0 161 -67.5t67 -159.5q0 -95 -67 -163t-161 -68zM618 1487q-49 0 -82.5 -35.5t-33.5 -85.5q0 -53 33 -87t83 -34q52 0 86.5 34t34.5 87q0 50 -35 85.5t-86 35.5zM1171 1126v-1126h-249l-19 152
q-62 -75 -161 -118.5t-203 -43.5q-186 0 -303 120.5t-117 309.5v706h280v-673q0 -99 58 -158t159 -59q109 0 192 61t83 156v673h280z" />
    <glyph glyph-name="Uhungarumlaut" unicode="&#x170;" horiz-adv-x="1503" 
d="M752 2048h243l-352 -362h-182zM1151 2048h244l-353 -362h-182zM731 -20q-169 0 -310.5 69t-222.5 188t-81 261v1038h266v-991q0 -138 101.5 -235t246.5 -97t248.5 97t103.5 235v991h267v-1038q0 -142 -83 -261.5t-225.5 -188t-310.5 -68.5z" />
    <glyph glyph-name="uhungarumlaut" unicode="&#x171;" horiz-adv-x="1232" 
d="M510 1174h-182l290 362h244zM727 1174l291 362h244l-353 -362h-182zM1171 1126v-1126h-249l-19 152q-62 -75 -161 -118.5t-203 -43.5q-186 0 -303 120.5t-117 309.5v706h280v-673q0 -99 58 -158t159 -59q109 0 192 61t83 156v673h280z" />
    <glyph glyph-name="Uogonek" unicode="&#x172;" horiz-adv-x="1503" 
d="M1083 1536h267v-1038q0 -194 -149.5 -338.5t-373.5 -173.5h4q-84 -36 -137 -111t-53 -149q0 -55 32.5 -88t90.5 -33q54 0 105.5 28.5t82.5 73.5l82 -115q-126 -126 -313 -116q-114 6 -184 64t-70 165q0 169 188 279q-231 23 -384.5 168.5t-153.5 345.5v1038h266v-991
q0 -138 101.5 -235t246.5 -97t248.5 97t103.5 235v991z" />
    <glyph glyph-name="uogonek" unicode="&#x173;" horiz-adv-x="1232" 
d="M1122 -299l82 -115q-63 -63 -144.5 -92.5t-168.5 -23.5q-113 6 -183.5 63.5t-70.5 163.5q0 94 58.5 172t172.5 131h54l-19 152q-62 -75 -161 -118.5t-203 -43.5q-186 0 -303 120.5t-117 309.5v706h280v-673q0 -99 58 -158t159 -59q109 0 192 61t83 156v673h280v-1126h-71
q-125 -9 -208 -97t-83 -184q0 -55 33.5 -87.5t91.5 -32.5q54 0 105.5 28.5t82.5 73.5z" />
    <glyph glyph-name="Wcircumflex" unicode="&#x174;" horiz-adv-x="2332" 
d="M1018 1698h-199l213 350h268l216 -350h-199l-150 235zM2253 1536l-441 -1536h-292l-367 1083l-338 -1083h-293l-473 1536h289l338 -1241l346 1241h264l373 -1243l307 1243h287z" />
    <glyph glyph-name="wcircumflex" unicode="&#x175;" horiz-adv-x="1568" 
d="M643 1186h-199l213 350h269l215 -350h-199l-149 235zM1710 1124l-354 -1124h-318l-164 596l-161 -596h-316l-356 1124h317l205 -798l201 798h244l196 -800l193 800h313z" />
    <glyph glyph-name="Ycircumflex" unicode="&#x176;" horiz-adv-x="1368" 
d="M537 1698h-199l213 350h268l215 -350h-198l-150 235zM817 727v-727h-264v723l-539 813h297l373 -586l377 586h293z" />
    <glyph glyph-name="ycircumflex" unicode="&#x177;" horiz-adv-x="1234" 
d="M455 1186h-199l213 350h268l215 -350h-198l-150 235zM1227 1126l-674 -1679h-254l256 631h-61l-435 1048h277l323 -772l299 772h269z" />
    <glyph glyph-name="Ydieresis" unicode="&#x178;" horiz-adv-x="1368" 
d="M473 1702q-62 0 -105.5 44t-43.5 107q0 62 44 106t105 44q63 0 107.5 -44t44.5 -106q0 -63 -44.5 -107t-107.5 -44zM899 1702q-62 0 -106.5 44t-44.5 107q0 61 44.5 105.5t106.5 44.5q61 0 105.5 -44.5t44.5 -105.5q0 -63 -44 -107t-106 -44zM817 727v-727h-264v723
l-539 813h297l373 -586l377 586h293z" />
    <glyph glyph-name="Zacute" unicode="&#x179;" horiz-adv-x="1320" 
d="M782 1714h-196l174 334h260zM1243 233v-233h-1169v141l798 1164h-778v231h1137v-141l-801 -1162h813z" />
    <glyph glyph-name="zacute" unicode="&#x17a;" horiz-adv-x="1067" 
d="M627 1536h260l-236 -334h-198zM88 186l555 627h-549v211h877v-182l-555 -631h563v-211h-891v186z" />
    <glyph glyph-name="Zdotaccent" unicode="&#x17b;" horiz-adv-x="1320" 
d="M682 1702q-63 0 -107.5 44t-44.5 107q0 62 44.5 106t107.5 44q62 0 107 -44.5t45 -105.5q0 -63 -45 -107t-107 -44zM1243 233v-233h-1169v141l798 1164h-778v231h1137v-141l-801 -1162h813z" />
    <glyph glyph-name="zdotaccent" unicode="&#x17c;" horiz-adv-x="1067" 
d="M549 1190q-62 0 -107 44t-45 107q0 61 45 105.5t107 44.5t106.5 -44.5t44.5 -105.5q0 -63 -44.5 -107t-106.5 -44zM88 186l555 627h-549v211h877v-182l-555 -631h563v-211h-891v186z" />
    <glyph glyph-name="Zcaron" unicode="&#x17d;" horiz-adv-x="1320" 
d="M545 1698l-213 350h190l158 -233l158 233h190l-215 -350h-268zM1243 233v-233h-1169v141l798 1164h-778v231h1137v-141l-801 -1162h813z" />
    <glyph glyph-name="zcaron" unicode="&#x17e;" horiz-adv-x="1067" 
d="M201 1536h190l158 -233l158 233h190l-215 -350h-268zM88 186l555 627h-549v211h877v-182l-555 -631h563v-211h-891v186z" />
    <glyph glyph-name="florin" unicode="&#x192;" horiz-adv-x="950" 
d="M784 1372q-78 0 -130 -50t-66 -136l-27 -162h279l-29 -195h-281l-213 -1341h-231l211 1341h-170l31 195h172l30 197q23 143 139.5 239t262.5 96q45 0 87 -11t60 -25l-22 -181q-36 33 -103 33z" />
    <glyph glyph-name="uni01CD" unicode="&#x1cd;" horiz-adv-x="1558" 
d="M645 1698l-213 350h191l157 -233l158 233h190l-215 -350h-268zM1124 334h-690l-127 -334h-289l617 1536h297l616 -1536h-286zM1049 565l-265 701l-272 -701h537z" />
    <glyph glyph-name="uni01CE" unicode="&#x1ce;" horiz-adv-x="1132" 
d="M397 1186l-213 350h191l157 -233l158 233h191l-215 -350h-269zM432 -14q-165 0 -267 89t-102 244q0 151 126 245t335 112l240 20v25q0 201 -205 201q-97 0 -161.5 -47t-73.5 -144h-232q6 82 35.5 152t84 128.5t146 92t209.5 33.5q210 0 330.5 -106t120.5 -314v-369
q0 -141 88 -141v-207h-76q-35 2 -56.5 4t-53 9.5t-52.5 20t-42 36.5t-35 57q-47 -63 -145.5 -102t-213.5 -39zM498 193q85 0 156.5 42.5t109.5 104.5v174l-189 -20q-118 -13 -179.5 -54.5t-61.5 -107.5q0 -63 47 -101t117 -38z" />
    <glyph glyph-name="uni01CF" unicode="&#x1cf;" horiz-adv-x="532" 
d="M-86 2048h192l158 -233l158 233h190l-215 -350h-268zM133 1536h266v-1536h-266v1536z" />
    <glyph glyph-name="uni01D0" unicode="&#x1d0;" horiz-adv-x="524" 
d="M-88 1536h192l158 -233l158 233h190l-215 -350h-268zM133 1024h258v-1024h-258v1024z" />
    <glyph glyph-name="uni01D1" unicode="&#x1d1;" horiz-adv-x="1669" 
d="M487 2048h191l158 -233l157 233h191l-215 -350h-269zM836 -20q-217 0 -389.5 106t-266.5 285.5t-94 396.5t94 396.5t266.5 285.5t389.5 106q216 0 388.5 -106t266.5 -285.5t94 -396.5t-94 -396.5t-266.5 -285.5t-388.5 -106zM836 238q149 0 261.5 70.5t171 190
t58.5 269.5q0 151 -58.5 271t-171 190.5t-261.5 70.5q-150 0 -264 -70.5t-173 -190.5t-59 -271q0 -150 59 -269.5t173 -190t264 -70.5z" />
    <glyph glyph-name="uni01D2" unicode="&#x1d2;" horiz-adv-x="1185" 
d="M246 1536h190l158 -233l158 233h190l-215 -350h-268zM594 -20q-150 0 -270.5 71t-187 192.5t-66.5 268.5q0 226 148 379t376 153q150 0 270 -70.5t187 -192t67 -269.5q0 -147 -66.5 -268.5t-187 -192.5t-270.5 -71zM594 207q118 0 193 87.5t75 217.5q0 131 -75 219
t-193 88q-121 0 -195.5 -87.5t-74.5 -219.5q0 -130 74.5 -217.5t195.5 -87.5z" />
    <glyph glyph-name="uni01D3" unicode="&#x1d3;" horiz-adv-x="1503" 
d="M403 2048h191l158 -233l157 233h191l-215 -350h-269zM752 -20q-169 0 -310.5 68.5t-223 188t-81.5 261.5v1038h269v-991q0 -138 100.5 -235t245.5 -97t245.5 97t100.5 235v991h266v-1038q0 -107 -48 -203t-129.5 -165t-195 -109.5t-239.5 -40.5z" />
    <glyph glyph-name="uni01D4" unicode="&#x1d4;" horiz-adv-x="1232" 
d="M483 1186l-211 350h191l155 -233l160 233h191l-217 -350h-269zM1171 1126v-1126h-249l-19 152q-62 -75 -161 -118.5t-203 -43.5q-186 0 -303 120.5t-117 309.5v706h280v-673q0 -99 58 -158t159 -59q109 0 192 61t83 156v673h280z" />
    <glyph glyph-name="Gcaron" unicode="&#x1e6;" horiz-adv-x="1509" 
d="M719 1698l-213 350h190l158 -233l158 233h190l-215 -350h-268zM1479 809v-262v-547h-179l-36 205q-83 -113 -198.5 -164t-285.5 -51q-217 0 -382.5 99t-253 273.5t-87.5 399.5q0 231 89 409t250.5 275.5t371.5 97.5q177 0 320 -56t240 -176t118 -292h-256
q-27 131 -137.5 207t-259.5 76q-233 0 -361.5 -144t-128.5 -397q0 -120 38.5 -221t104 -168t151.5 -104.5t181 -37.5q192 0 311 95.5t119 257.5h-383v225h654z" />
    <glyph glyph-name="gcaron" unicode="&#x1e7;" horiz-adv-x="1234" 
d="M455 1186l-213 350h190l158 -233l158 233h190l-215 -350h-268zM580 -508q-224 -4 -360 78t-157 213q-12 78 21.5 165.5t112.5 131.5q-46 16 -81.5 65.5t-35.5 106.5q0 125 149 205q-51 49 -87 128.5t-36 166.5q0 161 131 275t332 114q72 0 157 -21.5t130 -56.5
q16 50 64.5 87.5t103 51t96.5 4.5v-174q-48 15 -94 -1t-65 -64q92 -119 92 -230q0 -182 -135.5 -297.5t-337.5 -120.5q-137 -7 -215 41q-34 -12 -50.5 -35t-7.5 -46q8 -27 48 -46t112 -20l223 -2q180 -3 291.5 -76.5t126.5 -206.5q21 -202 -124.5 -316t-403.5 -120zM793 739
q0 85 -62.5 134t-161.5 49q-96 0 -156.5 -50.5t-60.5 -134.5t61 -136t156 -52q99 0 161.5 52t62.5 138zM856 -119q-5 121 -283 121h-174q-45 -11 -71.5 -52t-26.5 -85q0 -75 71 -115.5t187 -40.5q139 0 221 47t76 125z" />
    <glyph glyph-name="Oslashacute" unicode="&#x1fe;" horiz-adv-x="1669" 
d="M938 1714h-199l174 334h261zM1323 1378q124 -110 193 -268.5t69 -341.5q0 -217 -94 -396.5t-266.5 -285.5t-388.5 -106q-214 0 -379 100l-88 -135h-162l141 213q-125 108 -193.5 267t-68.5 343q0 217 94 396.5t266.5 285.5t389.5 106q203 0 376 -100l88 133h164zM340 768
q0 -246 149 -395l582 870q-105 57 -235 57q-150 0 -264 -70.5t-173 -190.5t-59 -271zM836 238q149 0 261.5 70.5t171 190t58.5 269.5q0 119 -37.5 221t-107.5 174l-582 -870q98 -55 236 -55z" />
    <glyph glyph-name="oslashacute" unicode="&#x1ff;" horiz-adv-x="1185" 
d="M694 1202h-196l174 334h260zM928 930q90 -74 140 -183t50 -235q0 -147 -66.5 -268.5t-187 -192.5t-270.5 -71q-142 0 -256 63l-74 -111h-114l108 162q-90 74 -139 182.5t-49 235.5q0 226 148 379t376 153q140 0 254 -63l74 111h114zM324 512q0 -129 69 -213l326 485
q-56 35 -125 35q-121 0 -195.5 -87.5t-74.5 -219.5zM594 207q118 0 193 87.5t75 217.5q0 125 -69 213l-326 -487q57 -31 127 -31z" />
    <glyph glyph-name="uni0218" unicode="&#x218;" horiz-adv-x="1312" 
d="M657 -20q-244 0 -396 137.5t-173 357.5h238q11 -48 33.5 -89.5t61.5 -78.5t101.5 -58.5t143.5 -21.5q128 0 206.5 50.5t79.5 150.5q0 37 -13 69.5t-38.5 58t-56 47t-72.5 41t-81.5 35.5t-88.5 34q-15 5 -22 8q-57 21 -93 35.5t-87.5 39t-84 46.5t-69.5 54.5t-58 67
t-35 80t-14 97.5q0 126 74 222t193.5 144.5t261.5 48.5q477 0 561 -473h-246q-12 101 -91.5 175.5t-217.5 74.5q-106 0 -184 -49t-78 -133q0 -29 10.5 -54.5t36.5 -48.5t48.5 -39t68 -36.5t72 -31.5t81.5 -32q177 -71 241 -105q186 -101 234 -248q19 -57 19 -124
q0 -110 -45 -197.5t-123.5 -142.5t-180 -83.5t-217.5 -28.5zM623 -442q-45 18 -73 56t-28 85q0 63 44 106t106 43q61 0 103 -43t42 -106q0 -54 -43 -136.5t-96 -150.5h-139z" />
    <glyph glyph-name="uni0219" unicode="&#x219;" horiz-adv-x="1005" 
d="M551 -16q-114 0 -207 33.5t-151 88t-91 118.5t-39 130h238q17 -75 87 -123t155 -45q85 4 127.5 40.5t42.5 97.5q0 27 -13.5 49t-34 37t-56 29.5t-67 23t-79.5 20.5q-63 16 -106 29.5t-97.5 39.5t-87.5 56.5t-56.5 79.5t-23.5 109q0 158 124 253t321 95q80 0 153 -21
t134.5 -62t102 -109t48.5 -154h-238q-14 63 -66.5 97.5t-121.5 37.5q-75 5 -123.5 -23t-48.5 -82q0 -24 13 -44t28.5 -32t51.5 -26t57 -20.5t71 -19.5l33 -9q60 -17 103 -32.5t95 -44t84.5 -62t55 -85.5t22.5 -116q0 -160 -121 -257t-319 -97zM475 -440q-45 17 -72.5 55.5
t-27.5 85.5q0 63 43.5 106t105.5 43t104 -43t42 -106q0 -54 -43 -136t-97 -151h-139z" />
    <glyph glyph-name="uni021A" unicode="&#x21a;" horiz-adv-x="1155" 
d="M1190 1305h-445v-1305h-262v1305h-446v231h1153v-231zM586 -428q-44 17 -71.5 56.5t-27.5 86.5q0 62 43.5 106t106.5 44q60 0 102.5 -44t42.5 -106q0 -55 -43.5 -138t-97.5 -150h-139z" />
    <glyph glyph-name="uni021B" unicode="&#x21b;" horiz-adv-x="761" 
d="M659 -2q-56 0 -97 2.5t-87.5 11t-79.5 24t-65 42t-51 64t-31 91.5t-12 123v553h-187v221h187v406h260v-406h290v-221h-292v-532q0 -83 39.5 -118.5t125.5 -35.5h136v-225h-136zM397 -430q-44 17 -71 56.5t-27 86.5q0 62 43.5 106t106.5 44q60 0 102.5 -44t42.5 -106
q0 -55 -43.5 -138t-97.5 -150h-140z" />
    <glyph glyph-name="uni0228" unicode="&#x228;" horiz-adv-x="1105" 
d="M1108 1305h-725v-420h639v-234h-639v-418h725v-233h-469l-68 -129q102 20 174 -34t72 -150q0 -92 -63.5 -155.5t-155.5 -63.5q-74 0 -143 41.5t-95 101.5l113 43q19 -29 55 -48.5t70 -19.5q41 0 69.5 29.5t28.5 71.5q0 62 -53 82t-129 -13l-94 58l98 186h-401v1536h991
v-231z" />
    <glyph glyph-name="uni0229" unicode="&#x229;" horiz-adv-x="1122" 
d="M1110 567q0 -39 -6 -88h-787q10 -128 89 -202t188 -74q90 0 161.5 37.5t106.5 113.5h225q-24 -142 -137 -245.5t-307 -116.5v-10l-61 -111q103 19 175 -36t72 -150q0 -92 -63.5 -156t-155.5 -64q-74 0 -143 42t-94 102l112 43q19 -28 55.5 -48t69.5 -20q41 0 69 29.5
t28 71.5q0 62 -53 82.5t-128 -11.5l-96 58l90 170q0 2 -1 5t-1 5q-214 26 -341.5 183t-127.5 386q0 253 144.5 413.5t398.5 160.5q240 0 379 -154.5t139 -415.5zM324 674h520q-15 117 -79 181.5t-175 64.5q-113 0 -179.5 -65.5t-86.5 -180.5z" />
    <glyph glyph-name="uni0237" unicode="&#x237;" horiz-adv-x="606" 
d="M78 -532q-40 0 -83 9.5t-63 22.5v217q21 -17 54.5 -28t60.5 -11q57 0 96 44t39 108v1194h258v-1210q0 -146 -105 -246t-257 -100z" />
    <glyph glyph-name="circumflex" unicode="&#x2c6;" horiz-adv-x="63" 
d="M252 1536h268l215 -350h-198l-150 235l-149 -235h-199z" />
    <glyph glyph-name="caron" unicode="&#x2c7;" horiz-adv-x="63" 
d="M39 1536h190l158 -233l158 233h190l-215 -350h-268z" />
    <glyph glyph-name="breve" unicode="&#x2d8;" horiz-adv-x="63" 
d="M588 1147q-161 0 -259 89t-98 251h150q0 -77 58 -134t149 -57q92 0 151.5 57t59.5 134h147q0 -162 -98 -251t-260 -89z" />
    <glyph glyph-name="dotaccent" unicode="&#x2d9;" horiz-adv-x="63" 
d="M313 1190q-63 0 -107 44t-44 107q0 62 44 106t107 44q62 0 107 -44.5t45 -105.5q0 -63 -45 -107t-107 -44z" />
    <glyph glyph-name="ring" unicode="&#x2da;" horiz-adv-x="63" 
d="M184 1135q-97 0 -165 68t-68 163q0 93 68.5 160t164.5 67q93 0 159.5 -67t66.5 -160q0 -95 -66 -163t-160 -68zM184 1245q50 0 84.5 34t34.5 87q0 50 -35 85.5t-84 35.5q-50 0 -84 -35.5t-34 -85.5q0 -54 33.5 -87.5t84.5 -33.5z" />
    <glyph glyph-name="ogonek" unicode="&#x2db;" horiz-adv-x="63" 
d="M256 -530q-115 6 -185.5 63.5t-70.5 163.5q0 114 88 203t256 139l121 -39q-125 -9 -208 -97t-83 -184q0 -55 33 -87.5t92 -32.5q55 0 105.5 28.5t80.5 73.5l84 -115q-63 -63 -144.5 -92.5t-168.5 -23.5z" />
    <glyph glyph-name="tilde" unicode="&#x2dc;" horiz-adv-x="65" 
d="M520 1237q-122 0 -203 117q-26 45 -67 45q-40 0 -55.5 -41.5t2.5 -104.5h-152q-26 127 33.5 211t165.5 84q125 0 202 -116q24 -46 68 -46q40 0 55.5 40.5t-2.5 103.5h152q26 -126 -31 -209.5t-168 -83.5z" />
    <glyph glyph-name="hungarumlaut" unicode="&#x2dd;" horiz-adv-x="63" 
d="M330 1536h243l-352 -362h-182zM729 1536h244l-352 -362h-183z" />
    <glyph glyph-name="gravecomb" unicode="&#x300;" 
d="M-473 1536h260l174 -334h-197z" />
    <glyph glyph-name="acutecomb" unicode="&#x301;" 
d="M-299 1536h260l-237 -334h-197z" />
    <glyph glyph-name="uni0302" unicode="&#x302;" 
d="M-522 1536h268l217 -350h-201l-149 235l-150 -235h-196z" />
    <glyph glyph-name="tildecomb" unicode="&#x303;" 
d="M-246 1237q-122 0 -203 117q-26 45 -67 45q-40 0 -55.5 -41.5t2.5 -104.5h-152q-26 127 33.5 211t165.5 84q126 0 203 -116q24 -46 67 -46q40 0 55.5 40.5t-2.5 103.5h152q26 -126 -31 -209.5t-168 -83.5z" />
    <glyph glyph-name="uni0304" unicode="&#x304;" 
d="M-672 1372h635v-164h-635v164z" />
    <glyph glyph-name="uni0306" unicode="&#x306;" 
d="M-690 1147q-160 0 -257 89t-97 251h149q0 -76 58 -133.5t147 -57.5q93 0 152 57t59 134h149q0 -162 -98 -251t-262 -89z" />
    <glyph glyph-name="uni0307" unicode="&#x307;" 
d="M-313 1190q-62 0 -106 44t-44 107q0 61 44.5 105.5t105.5 44.5q63 0 107 -44t44 -106q0 -63 -44 -107t-107 -44z" />
    <glyph glyph-name="uni0308" unicode="&#x308;" 
d="M-678 1190q-63 0 -107 44t-44 107q0 62 44 106t107 44q62 0 107 -44.5t45 -105.5q0 -63 -45 -107t-107 -44zM-254 1190q-62 0 -107 44t-45 107q0 61 45 105.5t107 44.5t107 -44.5t45 -105.5q0 -63 -45 -107t-107 -44z" />
    <glyph glyph-name="uni030A" unicode="&#x30a;" 
d="M-180 1135q-95 0 -163.5 68t-68.5 163q0 92 68.5 159.5t163.5 67.5q93 0 160 -67t67 -160q0 -95 -66.5 -163t-160.5 -68zM-180 1245q52 0 86.5 34t34.5 87q0 50 -35 85.5t-86 35.5q-49 0 -83 -35.5t-34 -85.5q0 -53 33.5 -87t83.5 -34z" />
    <glyph glyph-name="uni030B" unicode="&#x30b;" 
d="M-682 1536h244l-353 -362h-182zM-283 1536h244l-352 -362h-182z" />
    <glyph glyph-name="uni030C" unicode="&#x30c;" 
d="M-733 1536h190l156 -233l160 233h190l-217 -350h-268z" />
    <glyph glyph-name="uni0312" unicode="&#x312;" 
d="M-266 1356q44 -17 71 -57t27 -87q0 -62 -43 -105.5t-106 -43.5q-60 0 -103 44t-43 105q0 55 43.5 138.5t97.5 150.5h140z" />
    <glyph glyph-name="dotbelowcomb" unicode="&#x323;" 
d="M-190 -512q-62 0 -106 44.5t-44 107.5q0 61 44 105t106 44q63 0 107 -43.5t44 -105.5q0 -63 -44 -107.5t-107 -44.5z" />
    <glyph glyph-name="uni0326" unicode="&#x326;" 
d="M-281 2q-45 15 -72.5 54t-27.5 87q0 62 43.5 106t106.5 44q61 0 103 -43.5t42 -106.5q0 -55 -43.5 -138t-97.5 -150h-138z" />
    <glyph glyph-name="uni0327" unicode="&#x327;" 
d="M-256 -532q-74 0 -143.5 41.5t-94.5 101.5l113 43q19 -29 55 -48.5t70 -19.5q41 0 68.5 29.5t27.5 71.5q0 62 -52 82t-128 -13l-96 58l98 186h123l-70 -129q104 20 176 -34t72 -150q0 -92 -63.5 -155.5t-155.5 -63.5z" />
    <glyph glyph-name="uni0328" unicode="&#x328;" 
d="M-350 -530q-114 6 -185 64t-71 163q0 114 88.5 202.5t255.5 139.5l123 -39q-126 -9 -209.5 -97t-83.5 -184q0 -55 33.5 -87.5t91.5 -32.5q54 0 105.5 28.5t82.5 73.5l82 -115q-63 -63 -144.5 -92.5t-168.5 -23.5z" />
    <glyph glyph-name="uni0335" unicode="&#x335;" 
d="M-991 598h665v-152h-665v152z" />
    <glyph glyph-name="uni0336" unicode="&#x336;" 
d="M-1540 584h1501v-103h-1501v103z" />
    <glyph glyph-name="uni0337" unicode="&#x337;" 
d="M-365 834h166l-600 -625h-157z" />
    <glyph glyph-name="uni0338" unicode="&#x338;" 
d="M-178 1591h162l-1094 -1644h-166z" />
    <glyph glyph-name="uni0394" unicode="&#x394;" horiz-adv-x="1589" 
d="M61 141l594 1411h291l582 -1409v-143h-1467v141zM1253 211l-307 721q-12 34 -72 190t-77 209h-17q-10 -39 -65.5 -180.5t-69.5 -181.5l-321 -758h929z" />
    <glyph glyph-name="Lambda" unicode="&#x39b;" horiz-adv-x="1558" 
d="M1255 0l-475 1239l-479 -1239h-287l617 1536h297l616 -1536h-289z" />
    <glyph glyph-name="Xi" unicode="&#x39e;" horiz-adv-x="1208" 
d="M139 1536h905v-231h-905v231zM256 885h672v-234h-672v234zM139 233h905v-233h-905v233z" />
    <glyph glyph-name="uni03A9" unicode="&#x3a9;" horiz-adv-x="1769" 
d="M102 186h299v11q-110 98 -188 263.5t-78 356.5q0 152 56 286t154 230.5t239.5 152.5t304.5 56q169 0 311.5 -60t236 -160.5t145.5 -230.5t52 -272q0 -187 -79.5 -355t-192.5 -267v-11h305v-186h-629v139q149 80 250 247.5t101 389.5q0 114 -33.5 217.5t-95 184
t-157.5 128.5t-212 48q-226 0 -368 -164t-142 -414q0 -219 103 -391.5t247 -245.5v-139h-629v186z" />
    <glyph glyph-name="uni03BC" unicode="&#x3bc;" horiz-adv-x="1286" 
d="M891 1126h280v-1126h-249l-19 152q-62 -75 -161 -118.5t-203 -43.5q-116 0 -209 49v-551h-189v782q-22 71 -22 150v706h280v-673q0 -99 58 -158t159 -59q109 0 192 61t83 156v673z" />
    <glyph glyph-name="pi" unicode="&#x3c0;" horiz-adv-x="1425" 
d="M139 0q61 173 108.5 450t53.5 488q-171 0 -264 -27q5 28 12 75q17 112 39.5 130t140.5 13q89 -3 152 -3h1010l-21 -188h-186v-598q0 -220 30 -340h-233q-39 61 -39 319v619h-401q-10 -218 -58 -507t-108 -431h-236z" />
    <glyph glyph-name="uni1E04" unicode="&#x1e04;" horiz-adv-x="1333" 
d="M977 797q135 -36 215 -135.5t80 -247.5q0 -187 -126.5 -300.5t-316.5 -113.5h-718v1536h624q191 0 318 -114.5t127 -303.5q0 -115 -56 -198t-147 -123zM915 1092q0 87 -61.5 150t-148.5 63h-330v-408h330q89 0 149.5 54.5t60.5 140.5zM793 233q88 0 149.5 63t61.5 150
q0 90 -62 162t-149 72h-418v-447h418zM655 -115q62 0 106 -44t44 -105q0 -63 -44 -107.5t-106 -44.5q-63 0 -107 44.5t-44 107.5q0 62 44 105.5t107 43.5z" />
    <glyph glyph-name="uni1E05" unicode="&#x1e05;" horiz-adv-x="1232" 
d="M709 1137q150 0 268.5 -75.5t184 -206t65.5 -292.5q0 -161 -65.5 -291.5t-184 -206t-268.5 -75.5q-218 0 -347 153l-18 -143l-242 2v1536h277v-539q126 138 330 138zM657 229q129 0 211 96.5t82 237.5q0 142 -81.5 239t-211.5 97q-98 0 -173 -61t-105 -160v-227
q30 -100 105 -161t173 -61zM623 -115q61 0 105 -43.5t44 -105.5q0 -63 -43.5 -107.5t-105.5 -44.5q-63 0 -107.5 44.5t-44.5 107.5q0 62 44.5 105.5t107.5 43.5z" />
    <glyph glyph-name="uni1E24" unicode="&#x1e24;" horiz-adv-x="1513" 
d="M1380 1536v-1536h-266v651h-715v-651h-266v1536h266v-649h715v649h266zM760 -115q63 0 107 -43.5t44 -105.5q0 -63 -44 -107.5t-107 -44.5q-62 0 -106 44.5t-44 107.5q0 61 44 105t106 44z" />
    <glyph glyph-name="uni1E25" unicode="&#x1e25;" horiz-adv-x="1226" 
d="M760 1137q194 0 304 -108.5t110 -301.5v-727h-281v692q0 96 -56 147.5t-159 51.5q-110 0 -192.5 -59.5t-82.5 -155.5v-676h-280v1536h280v-547q61 67 158.5 107.5t198.5 40.5zM606 -115q62 0 107 -44t45 -105q0 -63 -45 -107.5t-107 -44.5q-63 0 -107 44.5t-44 107.5
q0 62 44 105.5t107 43.5z" />
    <glyph glyph-name="uni1E36" unicode="&#x1e36;" horiz-adv-x="995" 
d="M133 1536h266v-1303h535v-233h-801v1536zM535 -416q-62 0 -106 44.5t-44 107.5q0 61 44 105t106 44q63 0 107 -43.5t44 -105.5q0 -63 -44 -107.5t-107 -44.5z" />
    <glyph glyph-name="uni1E37" unicode="&#x1e37;" horiz-adv-x="714" 
d="M150 0v1536h258v-1536h-258zM283 -416q-63 0 -107.5 44.5t-44.5 107.5q0 62 44.5 105.5t107.5 43.5q61 0 105 -43.5t44 -105.5q0 -63 -43.5 -107.5t-105.5 -44.5z" />
    <glyph glyph-name="uni1E44" unicode="&#x1e44;" horiz-adv-x="1632" 
d="M819 1702q-62 0 -105.5 44t-43.5 107q0 62 44 106t105 44q63 0 107.5 -44t44.5 -106q0 -63 -44.5 -107t-107.5 -44zM1499 1536v-1536h-266l-834 1128v-1128h-266v1536h268l834 -1126v1126h264z" />
    <glyph glyph-name="uni1E45" unicode="&#x1e45;" horiz-adv-x="1226" 
d="M616 1190q-62 0 -105.5 44t-43.5 107q0 62 44 106t105 44q63 0 107.5 -44t44.5 -106q0 -63 -44.5 -107t-107.5 -44zM741 1141q193 0 302.5 -109t109.5 -303v-729h-279v696q0 96 -55 147.5t-157 51.5q-111 0 -193 -59t-82 -154v-682h-281v1126h250l19 -147q61 74 161 118
t205 44z" />
    <glyph glyph-name="uni1E46" unicode="&#x1e46;" horiz-adv-x="1632" 
d="M1499 1536v-1536h-266l-834 1128v-1128h-266v1536h268l834 -1126v1126h264zM817 -115q62 0 107 -44t45 -105q0 -63 -45 -107.5t-107 -44.5t-106.5 44.5t-44.5 107.5q0 61 44.5 105t106.5 44z" />
    <glyph glyph-name="uni1E47" unicode="&#x1e47;" horiz-adv-x="1226" 
d="M741 1141q193 0 302.5 -109t109.5 -303v-729h-279v696q0 96 -55 147.5t-157 51.5q-111 0 -193 -59t-82 -154v-682h-281v1126h250l19 -147q61 74 161 118t205 44zM616 -115q63 0 107.5 -43.5t44.5 -105.5q0 -63 -44.5 -107.5t-107.5 -44.5q-62 0 -105.5 44.5t-43.5 107.5
q0 62 43.5 105.5t105.5 43.5z" />
    <glyph glyph-name="uni1E62" unicode="&#x1e62;" horiz-adv-x="1312" 
d="M657 -20q-244 0 -396 137.5t-173 357.5h238q11 -48 33.5 -89.5t61.5 -78.5t101.5 -58.5t143.5 -21.5q128 0 206.5 50.5t79.5 150.5q0 37 -13 69.5t-38.5 58t-56 47t-72.5 41t-81.5 35.5t-88.5 34q-15 5 -22 8q-57 21 -93 35.5t-87.5 39t-84 46.5t-69.5 54.5t-58 67
t-35 80t-14 97.5q0 126 74 222t193.5 144.5t261.5 48.5q477 0 561 -473h-246q-12 101 -91.5 175.5t-217.5 74.5q-106 0 -184 -49t-78 -133q0 -29 10.5 -54.5t36.5 -48.5t48.5 -39t68 -36.5t72 -31.5t81.5 -32q177 -71 241 -105q186 -101 234 -248q19 -57 19 -124
q0 -110 -45 -197.5t-123.5 -142.5t-180 -83.5t-217.5 -28.5zM678 -416q-63 0 -107.5 44.5t-44.5 107.5q0 62 44.5 106.5t107.5 44.5q62 0 106.5 -44.5t44.5 -106.5q0 -63 -44.5 -107.5t-106.5 -44.5z" />
    <glyph glyph-name="uni1E63" unicode="&#x1e63;" horiz-adv-x="1005" 
d="M551 -16q-114 0 -207 33.5t-151 88t-91 118.5t-39 130h238q17 -75 87 -123t155 -45q85 4 127.5 40.5t42.5 97.5q0 27 -13.5 49t-34 37t-56 29.5t-67 23t-79.5 20.5q-63 16 -106 29.5t-97.5 39.5t-87.5 56.5t-56.5 79.5t-23.5 109q0 158 124 253t321 95q80 0 153 -21
t134.5 -62t102 -109t48.5 -154h-238q-14 63 -66.5 97.5t-121.5 37.5q-75 5 -123.5 -23t-48.5 -82q0 -24 13 -44t28.5 -32t51.5 -26t57 -20.5t71 -19.5l33 -9q60 -17 103 -32.5t95 -44t84.5 -62t55 -85.5t22.5 -116q0 -160 -121 -257t-319 -97zM528 -416q-63 0 -107 44.5
t-44 107.5q0 62 44 105.5t107 43.5q62 0 107 -44t45 -105q0 -63 -45 -107.5t-107 -44.5z" />
    <glyph glyph-name="uni1E6C" unicode="&#x1e6c;" horiz-adv-x="1155" 
d="M1190 1305h-445v-1305h-262v1305h-446v231h1153v-231zM629 -115q62 0 106.5 -44t44.5 -105q0 -63 -44.5 -107.5t-106.5 -44.5q-63 0 -107.5 44.5t-44.5 107.5q0 62 44.5 105.5t107.5 43.5z" />
    <glyph glyph-name="uni1E6D" unicode="&#x1e6d;" horiz-adv-x="761" 
d="M659 -2q-56 0 -97 2.5t-87.5 11t-79.5 24t-65 42t-51 64t-31 91.5t-12 123v553h-187v221h187v406h260v-406h290v-221h-292v-532q0 -83 39.5 -118.5t125.5 -35.5h136v-225h-136zM438 -115q62 0 107 -44t45 -105q0 -63 -45 -107.5t-107 -44.5t-106.5 44.5t-44.5 107.5
q0 61 44.5 105t106.5 44z" />
    <glyph glyph-name="Wgrave" unicode="&#x1e80;" horiz-adv-x="2332" 
d="M1059 1714l-238 334h258l176 -334h-196zM2253 1536l-441 -1536h-292l-367 1083l-338 -1083h-293l-473 1536h289l338 -1241l346 1241h264l373 -1243l307 1243h287z" />
    <glyph glyph-name="wgrave" unicode="&#x1e81;" horiz-adv-x="1568" 
d="M680 1202l-238 334h258l177 -334h-197zM1710 1124l-354 -1124h-318l-164 596l-161 -596h-316l-356 1124h317l205 -798l201 798h244l196 -800l193 800h313z" />
    <glyph glyph-name="Wacute" unicode="&#x1e82;" horiz-adv-x="2332" 
d="M1270 1714h-197l174 334h260zM2253 1536l-441 -1536h-292l-367 1083l-338 -1083h-293l-473 1536h289l338 -1241l346 1241h264l373 -1243l307 1243h287z" />
    <glyph glyph-name="wacute" unicode="&#x1e83;" horiz-adv-x="1568" 
d="M911 1202h-198l176 334h258zM1710 1124l-354 -1124h-318l-164 596l-161 -596h-316l-356 1124h317l205 -798l201 798h244l196 -800l193 800h313z" />
    <glyph glyph-name="Wdieresis" unicode="&#x1e84;" horiz-adv-x="2332" 
d="M954 1702q-62 0 -106.5 44t-44.5 107q0 61 44.5 105.5t106.5 44.5t107 -44.5t45 -105.5q0 -63 -45 -107t-107 -44zM1378 1702q-60 0 -104.5 44t-44.5 107q0 61 44.5 105.5t104.5 44.5q63 0 107.5 -44t44.5 -106q0 -63 -44.5 -107t-107.5 -44zM2253 1536l-441 -1536h-292
l-367 1083l-338 -1083h-293l-473 1536h289l338 -1241l346 1241h264l373 -1243l307 1243h287z" />
    <glyph glyph-name="wdieresis" unicode="&#x1e85;" horiz-adv-x="1568" 
d="M596 1190q-62 0 -107 44t-45 107q0 61 45 105.5t107 44.5t107 -44.5t45 -105.5q0 -63 -45 -107t-107 -44zM1020 1190q-61 0 -105.5 44.5t-44.5 106.5q0 61 45 105.5t105 44.5q63 0 107 -44t44 -106q0 -63 -44 -107t-107 -44zM1710 1124l-354 -1124h-318l-164 596
l-161 -596h-316l-356 1124h317l205 -798l201 798h244l196 -800l193 800h313z" />
    <glyph glyph-name="uni1E92" unicode="&#x1e92;" horiz-adv-x="1320" 
d="M1243 233v-233h-1169v141l798 1164h-778v231h1137v-141l-801 -1162h813zM655 -115q63 0 107.5 -43.5t44.5 -105.5q0 -63 -44.5 -107.5t-107.5 -44.5q-62 0 -105.5 44.5t-43.5 107.5q0 62 44 105.5t105 43.5z" />
    <glyph glyph-name="uni1E93" unicode="&#x1e93;" horiz-adv-x="1067" 
d="M88 186l555 627h-549v211h877v-182l-555 -631h563v-211h-891v186zM535 -416q-62 0 -107 44.5t-45 107.5q0 61 45 105t107 44t106.5 -44t44.5 -105q0 -63 -44.5 -107.5t-106.5 -44.5z" />
    <glyph glyph-name="uni1EA0" unicode="&#x1ea0;" horiz-adv-x="1558" 
d="M1124 334h-690l-127 -334h-289l617 1536h297l616 -1536h-286zM1049 565l-265 701l-272 -701h537zM782 -115q62 0 106 -44t44 -105q0 -63 -44 -107.5t-106 -44.5q-63 0 -107 44.5t-44 107.5q0 62 44 105.5t107 43.5z" />
    <glyph glyph-name="uni1EA1" unicode="&#x1ea1;" horiz-adv-x="1132" 
d="M432 -14q-165 0 -267 89t-102 244q0 151 126 245t335 112l240 20v25q0 201 -205 201q-97 0 -161.5 -47t-73.5 -144h-232q6 82 35.5 152t84 128.5t146 92t209.5 33.5q210 0 330.5 -106t120.5 -314v-369q0 -141 88 -141v-207h-76q-35 2 -56.5 4t-53 9.5t-52.5 20t-42 36.5
t-35 57q-47 -63 -145.5 -102t-213.5 -39zM498 193q85 0 156.5 42.5t109.5 104.5v174l-189 -20q-118 -13 -179.5 -54.5t-61.5 -107.5q0 -63 47 -101t117 -38zM551 -115q61 0 105 -43.5t44 -105.5q0 -63 -43.5 -107.5t-105.5 -44.5q-63 0 -107.5 44.5t-44.5 107.5
q0 62 44.5 105.5t107.5 43.5z" />
    <glyph glyph-name="uni1EB8" unicode="&#x1eb8;" horiz-adv-x="1105" 
d="M383 1305v-420h639v-234h-639v-418h725v-233h-991v1536h991v-231h-725zM580 -115q62 0 106.5 -44t44.5 -105q0 -63 -44.5 -107.5t-106.5 -44.5q-63 0 -107.5 44.5t-44.5 107.5q0 62 44.5 105.5t107.5 43.5z" />
    <glyph glyph-name="uni1EB9" unicode="&#x1eb9;" horiz-adv-x="1122" 
d="M1110 567q0 -39 -6 -88h-787q10 -128 89 -202t188 -74q90 0 161.5 37.5t106.5 113.5h225q-12 -71 -47.5 -134t-94.5 -115.5t-150.5 -83.5t-202.5 -31q-243 0 -393 162t-150 411q0 253 144.5 413.5t398.5 160.5q240 0 379 -154.5t139 -415.5zM590 920q-113 0 -179.5 -65.5
t-86.5 -180.5h520q-15 117 -79 181.5t-175 64.5zM590 -115q63 0 107 -43.5t44 -105.5q0 -63 -44 -107.5t-107 -44.5q-62 0 -106 44.5t-44 107.5q0 61 44 105t106 44z" />
    <glyph glyph-name="uni1EBC" unicode="&#x1ebc;" horiz-adv-x="1105" 
d="M242 1704q-26 127 33 211t165 84q126 0 203 -117q23 -45 68 -45q40 0 55.5 40t-2.5 103h151q26 -126 -30.5 -209t-167.5 -83q-122 0 -203 116q-26 45 -68 45q-40 0 -55.5 -41t2.5 -104h-151zM383 1305v-420h639v-234h-639v-418h725v-233h-991v1536h991v-231h-725z" />
    <glyph glyph-name="uni1EBD" unicode="&#x1ebd;" horiz-adv-x="1122" 
d="M242 1194q-24 128 34.5 211.5t163.5 83.5q130 0 203 -115q26 -47 70 -47q40 0 55 40t-2 103h152q26 -125 -32 -208.5t-169 -83.5q-120 0 -201 116q-26 45 -67 45q-40 0 -56 -40.5t2 -104.5h-153zM1110 567q0 -39 -6 -88h-787q10 -128 89 -202t188 -74q90 0 161.5 37.5
t106.5 113.5h225q-12 -71 -47.5 -134t-94.5 -115.5t-150.5 -83.5t-202.5 -31q-243 0 -393 162t-150 411q0 253 144.5 413.5t398.5 160.5q240 0 379 -154.5t139 -415.5zM590 920q-113 0 -179.5 -65.5t-86.5 -180.5h520q-15 117 -79 181.5t-175 64.5z" />
    <glyph glyph-name="uni1ECA" unicode="&#x1eca;" horiz-adv-x="532" 
d="M133 1536h266v-1536h-266v1536zM266 -416q-63 0 -107 44.5t-44 107.5q0 62 44 105.5t107 43.5q62 0 107 -44t45 -105q0 -63 -45 -107.5t-107 -44.5z" />
    <glyph glyph-name="uni1ECB" unicode="&#x1ecb;" horiz-adv-x="577" 
d="M289 1204q-61 0 -106.5 45t-45.5 107q0 63 45 107t107 44t106.5 -44t44.5 -107q0 -62 -45 -107t-106 -45zM160 1024h258v-1024h-258v1024zM301 -449q-63 0 -107 44.5t-44 107.5q0 62 44 107t107 45q61 0 105.5 -45t44.5 -107q0 -63 -44 -107.5t-106 -44.5z" />
    <glyph glyph-name="uni1ECC" unicode="&#x1ecc;" horiz-adv-x="1669" 
d="M836 -20q-217 0 -389.5 106t-266.5 285.5t-94 396.5t94 396.5t266.5 285.5t389.5 106q216 0 388.5 -106t266.5 -285.5t94 -396.5t-94 -396.5t-266.5 -285.5t-388.5 -106zM836 238q149 0 261.5 70.5t171 190t58.5 269.5q0 151 -58.5 271t-171 190.5t-261.5 70.5
q-150 0 -264 -70.5t-173 -190.5t-59 -271q0 -150 59 -269.5t173 -190t264 -70.5zM836 -416q-62 0 -107 44.5t-45 107.5q0 61 45 105t107 44t106.5 -44t44.5 -105q0 -63 -44.5 -107.5t-106.5 -44.5z" />
    <glyph glyph-name="uni1ECD" unicode="&#x1ecd;" horiz-adv-x="1185" 
d="M594 -20q-150 0 -270.5 71t-187 192.5t-66.5 268.5q0 226 148 379t376 153q150 0 270 -70.5t187 -192t67 -269.5q0 -147 -66.5 -268.5t-187 -192.5t-270.5 -71zM594 207q118 0 193 87.5t75 217.5q0 131 -75 219t-193 88q-121 0 -195.5 -87.5t-74.5 -219.5
q0 -130 74.5 -217.5t195.5 -87.5zM594 -416q-63 0 -107.5 44.5t-44.5 107.5q0 62 44.5 105.5t107.5 43.5q62 0 106.5 -44t44.5 -105q0 -63 -44.5 -107.5t-106.5 -44.5z" />
    <glyph glyph-name="uni1EE4" unicode="&#x1ee4;" horiz-adv-x="1503" 
d="M752 -20q-169 0 -310.5 68.5t-223 188t-81.5 261.5v1038h269v-991q0 -138 100.5 -235t245.5 -97t245.5 97t100.5 235v991h266v-1038q0 -107 -48 -203t-129.5 -165t-195 -109.5t-239.5 -40.5zM752 -416q-62 0 -107 44.5t-45 107.5q0 61 45 105t107 44t106.5 -44t44.5 -105
q0 -63 -44.5 -107.5t-106.5 -44.5z" />
    <glyph glyph-name="Ygrave" unicode="&#x1ef2;" horiz-adv-x="1368" 
d="M578 1714l-238 334h260l174 -334h-196zM817 727v-727h-264v723l-539 813h297l373 -586l377 586h293z" />
    <glyph glyph-name="ygrave" unicode="&#x1ef3;" horiz-adv-x="1234" 
d="M500 1202l-240 334h260l174 -334h-194zM1227 1126l-674 -1679h-254l256 631h-61l-435 1048h277l323 -772l299 772h269z" />
    <glyph glyph-name="uni1EF4" unicode="&#x1ef4;" horiz-adv-x="1368" 
d="M553 723l-539 813h297l373 -586l377 586h293l-537 -809v-727h-264v723zM688 -115q62 0 106 -44t44 -105q0 -63 -44 -107.5t-106 -44.5q-63 0 -107 44.5t-44 107.5q0 62 44 105.5t107 43.5z" />
    <glyph glyph-name="uni1EF8" unicode="&#x1ef8;" horiz-adv-x="1368" 
d="M348 1704q-24 127 35 211t164 84q129 0 203 -117q26 -45 69 -45q40 0 55 40t-2 103h152q26 -125 -32 -208.5t-169 -83.5q-119 0 -200 116q-26 45 -68 45q-40 0 -55.5 -41t2.5 -104h-154zM817 727v-727h-264v723l-539 813h297l373 -586l377 586h293z" />
    <glyph glyph-name="endash" unicode="&#x2013;" horiz-adv-x="1345" 
d="M162 621h1024v-175h-1024v175z" />
    <glyph glyph-name="emdash" unicode="&#x2014;" horiz-adv-x="2056" 
d="M4 621h2050v-175h-2050v175z" />
    <glyph glyph-name="quoteleft" unicode="&#x2018;" horiz-adv-x="335" 
d="M168 1098q-61 0 -103 43.5t-42 105.5q0 55 43.5 138.5t97.5 150.5h135l-39 -174q57 -44 57 -115q0 -64 -44.5 -106.5t-104.5 -42.5z" />
    <glyph glyph-name="quoteright" unicode="&#x2019;" horiz-adv-x="335" 
d="M123 1245q-44 15 -72 54.5t-28 86.5q0 62 44 106t105 44t103 -43.5t42 -106.5q0 -55 -43 -136.5t-98 -151.5h-137z" />
    <glyph glyph-name="quotesinglbase" unicode="&#x201a;" horiz-adv-x="335" 
d="M123 2q-45 15 -72.5 54t-27.5 87q0 62 43 106t106 44q61 0 103 -43.5t42 -106.5q0 -55 -43.5 -138t-97.5 -150h-137z" />
    <glyph glyph-name="quotedblleft" unicode="&#x201c;" horiz-adv-x="743" 
d="M168 1098q-62 0 -103.5 43.5t-41.5 105.5q0 55 43.5 138.5t97.5 150.5h135l-39 -174q57 -44 57 -115q0 -61 -43.5 -105t-105.5 -44zM573 1098q-61 0 -103 43.5t-42 105.5q0 55 43.5 138.5t97.5 150.5h138l-41 -174q57 -44 57 -115q0 -61 -44 -105t-106 -44z" />
    <glyph glyph-name="quotedblright" unicode="&#x201d;" horiz-adv-x="743" 
d="M80 1272q-57 44 -57 114q0 62 44 106t105 44t103 -43.5t42 -106.5q0 -55 -43 -136.5t-98 -151.5h-137zM485 1272q-57 44 -57 114q0 62 44 106t106 44q63 0 104 -43t41 -107q0 -55 -43 -136.5t-98 -151.5h-136z" />
    <glyph glyph-name="quotedblbase" unicode="&#x201e;" horiz-adv-x="743" 
d="M80 0q-57 44 -57 115q0 61 43.5 105t105.5 44q61 0 103 -43t42 -106q0 -55 -43.5 -138.5t-97.5 -150.5h-137zM485 0q-57 44 -57 115q0 61 44 105t106 44q63 0 104 -43t41 -106q0 -55 -43.5 -138.5t-97.5 -150.5h-136z" />
    <glyph glyph-name="dagger" unicode="&#x2020;" horiz-adv-x="1335" 
d="M1092 836h-347v-1184h-163v1184h-338v163h338v373h163v-373h347v-163z" />
    <glyph glyph-name="daggerdbl" unicode="&#x2021;" horiz-adv-x="1335" 
d="M745 836v-631h347v-166h-347v-387h-163v387h-338v166h338v631h-338v163h338v373h163v-373h347v-163h-347z" />
    <glyph glyph-name="bullet" unicode="&#x2022;" horiz-adv-x="1009" 
d="M506 369q-123 0 -213 88t-90 215q0 122 90.5 212.5t212.5 90.5t212.5 -90.5t90.5 -212.5q0 -127 -90 -215t-213 -88z" />
    <glyph glyph-name="ellipsis" unicode="&#x2026;" horiz-adv-x="1812" 
d="M336 -16q-62 0 -107 45t-45 106q0 63 45 107.5t107 44.5q63 0 106 -44.5t43 -107.5q0 -62 -43.5 -106.5t-105.5 -44.5zM913 -16q-63 0 -107 44.5t-44 106.5q0 63 44 107.5t107 44.5t107.5 -44.5t44.5 -107.5q0 -62 -44.5 -106.5t-107.5 -44.5zM1489 -16
q-61 0 -104.5 44.5t-43.5 106.5q0 63 43.5 107.5t104.5 44.5q63 0 108 -44.5t45 -107.5q0 -62 -45 -106.5t-108 -44.5z" />
    <glyph glyph-name="perthousand" unicode="&#x2030;" horiz-adv-x="2326" 
d="M397 850q-130 0 -220.5 102.5t-90.5 249.5q0 148 90.5 251t220.5 103q129 0 219.5 -103t90.5 -251q0 -146 -90.5 -249t-219.5 -103zM1190 1536h266l-1040 -1536h-264zM397 1044q45 0 80 46.5t35 111.5q0 66 -35 113t-80 47q-46 0 -80 -46.5t-34 -113.5q0 -65 34 -111.5
t80 -46.5zM1212 -20q-129 0 -219 103.5t-90 250.5t90 250.5t219 103.5t219.5 -104t90.5 -250t-90.5 -250t-219.5 -104zM1935 -20q-129 0 -220 104t-91 250t91 250t220 104t220.5 -104t91.5 -250t-91.5 -250t-220.5 -104zM1212 176q47 0 81 46t34 112t-34 112t-81 46
q-48 0 -82 -45.5t-34 -112.5t34 -112.5t82 -45.5zM1935 176q45 0 80 46t35 112t-35 112t-80 46q-46 0 -80 -45.5t-34 -112.5t34 -112.5t80 -45.5z" />
    <glyph glyph-name="guilsinglleft" unicode="&#x2039;" horiz-adv-x="718" 
d="M80 571l311 377h209l-311 -377l311 -376h-209z" />
    <glyph glyph-name="guilsinglright" unicode="&#x203a;" horiz-adv-x="718" 
d="M432 571l-311 377h207l311 -377l-311 -376h-207z" />
    <glyph glyph-name="fraction" unicode="&#x2044;" horiz-adv-x="1239" 
d="M1012 1536h258l-1071 -1536h-260z" />
    <glyph glyph-name="Euro" unicode="&#x20ac;" horiz-adv-x="1368" 
d="M49 950h137q31 244 177.5 388.5t371.5 144.5q229 0 366 -136t146 -372h-211q-21 311 -301 311q-137 0 -223 -88t-109 -248h486l-33 -170h-461v-90h445l-33 -182h-404q23 -161 108.5 -246.5t225.5 -85.5q146 0 226 85t92 251h209q-10 -249 -152 -393t-375 -144
q-227 0 -373.5 144t-177.5 389h-137v182h129v90h-129v170z" />
    <glyph glyph-name="uni2113" unicode="&#x2113;" horiz-adv-x="1224" 
d="M678 -14q-98 0 -175.5 29.5t-127.5 81.5t-79 117t-40 142l-2 23q-10 -7 -57 -41.5t-74 -52.5l-68 131q27 21 94.5 70.5t100.5 76.5v559q0 118 22 213.5t60 158.5t90.5 105.5t111.5 61t125 18.5q110 0 187 -54t111 -137.5t34 -187.5q0 -193 -128 -383t-374 -403l3 -63
q3 -128 72.5 -198.5t168.5 -70.5q100 0 186.5 64.5t143.5 156.5l108 -104q-89 -160 -216.5 -236.5t-276.5 -76.5zM489 733q330 334 330 565q0 213 -151 213q-33 0 -63 -18t-57 -57.5t-43 -112t-16 -170.5v-420z" />
    <glyph glyph-name="trademark" unicode="&#x2122;" horiz-adv-x="1515" 
d="M27 1536h503v-109h-190v-608h-125v608h-188v109zM1405 1534v-717h-121v543l-197 -543h-122l-193 543v-543h-125v717h172l207 -557l209 557h170z" />
    <glyph glyph-name="estimated" unicode="&#x212e;" horiz-adv-x="1880" 
d="M938 -18q-178 0 -340 62t-279 167.5t-186.5 250.5t-69.5 304q0 161 69.5 307.5t186.5 252t279 168t340 62.5q239 0 440.5 -105.5t319 -287.5t117.5 -397v-21h-1418q-12 0 -12 -8v-430q0 -24 18 -49q106 -109 245 -171t292 -62q167 0 313.5 69.5t251.5 192.5h125
q-119 -141 -301.5 -223t-390.5 -82zM1485 788q8 0 8 15v430q0 34 -20 51q-106 105 -243.5 165t-289.5 60q-151 0 -288.5 -61.5t-245.5 -169.5q-21 -24 -21 -53v-422q0 -15 12 -15h1088z" />
    <glyph glyph-name="arrowleft" unicode="&#x2190;" horiz-adv-x="1720" 
d="M1546 598h-1100l62 -260l-498 385l498 385l-62 -262h1100v-248z" />
    <glyph glyph-name="arrowup" unicode="&#x2191;" horiz-adv-x="1024" 
d="M375 1100l-262 -62l385 498l385 -498l-260 62v-1100h-248v1100z" />
    <glyph glyph-name="arrowright" unicode="&#x2192;" horiz-adv-x="1720" 
d="M1274 846l-62 262l498 -385l-498 -385l62 260h-1100v248h1100z" />
    <glyph glyph-name="arrowdown" unicode="&#x2193;" horiz-adv-x="995" 
d="M623 1536v-1100l260 62l-385 -498l-385 498l262 -62v1100h248z" />
    <glyph glyph-name="arrowboth" unicode="&#x2194;" horiz-adv-x="1753" 
d="M-133 682l498 385l-64 -260l1149 -2l-61 260l497 -385l-495 -385l61 262l-1151 2l59 -264z" />
    <glyph glyph-name="arrowupdn" unicode="&#x2195;" horiz-adv-x="995" 
d="M113 350l262 -61v798l-262 -61l385 496l385 -498l-260 61v-794l260 61l-385 -497z" />
    <glyph glyph-name="uni2196" unicode="&#x2196;" horiz-adv-x="1095" 
d="M1055 137l-779 776l-141 -227l-80 625l625 -80l-229 -141l778 -779z" />
    <glyph glyph-name="uni2197" unicode="&#x2197;" horiz-adv-x="1095" 
d="M645 1090l-229 141l624 80l-79 -625l-142 227l-778 -776l-174 174z" />
    <glyph glyph-name="uni2198" unicode="&#x2198;" horiz-adv-x="1097" 
d="M43 1399l778 -776l142 227l79 -625l-624 80l229 141l-778 779z" />
    <glyph glyph-name="uni2199" unicode="&#x2199;" horiz-adv-x="1097" 
d="M451 446l229 -141l-625 -80l80 625l141 -227l779 776l174 -174z" />
    <glyph glyph-name="partialdiff" unicode="&#x2202;" horiz-adv-x="1114" 
d="M326 1452q146 29 278 -17.5t226.5 -151.5t149.5 -264.5t54 -346.5q-1 -186 -70 -338.5t-189 -240t-265 -87.5q-102 0 -184.5 30.5t-136.5 86.5t-81 132t-21 171.5t46 200.5q42 114 111.5 198t152.5 127.5t178 54t189 -23.5q-58 183 -176.5 264.5t-261.5 24.5v180z
M809 672q0 64 -6 119q-141 85 -265 26t-196 -248q-37 -109 -29 -197.5t61 -144t136 -55.5q78 0 146.5 67.5t110 183.5t42.5 249z" />
    <glyph glyph-name="emptyset" unicode="&#x2205;" horiz-adv-x="1628" 
d="M1280 991q147 -169 147 -395q0 -166 -82 -307t-223 -223t-307 -82q-227 0 -395 145l-90 -88l-72 72l90 88q-145 167 -145 395q0 166 82 307t223 223t307 82q225 0 393 -145l90 90l72 -72zM408 596q0 -142 84 -250l573 572q-109 86 -250 86q-170 0 -288.5 -119
t-118.5 -289zM815 188q170 0 289 119.5t119 288.5q0 140 -86 250l-574 -572q109 -86 252 -86z" />
    <glyph glyph-name="product" unicode="&#x220f;" horiz-adv-x="1519" 
 />
    <glyph glyph-name="summation" unicode="&#x2211;" horiz-adv-x="1515" 
d="M162 -90l717 688l-717 688v154h1192v-195h-875l660 -647l-660 -647h875v-195l-1192 2v152z" />
    <glyph glyph-name="minus" unicode="&#x2212;" horiz-adv-x="1427" 
d="M100 705h1229v-168h-1229v168z" />
    <glyph glyph-name="radical" unicode="&#x221a;" horiz-adv-x="1490" 
d="M262 541h-141v164h260l197 -601l702 1467l152 -66l-799 -1665h-144z" />
    <glyph glyph-name="infinity" unicode="&#x221e;" horiz-adv-x="1564" 
d="M408 274q-130 0 -216.5 90.5t-91.5 231.5q5 141 91.5 231.5t216.5 90.5q181 0 374 -199q94 97 190.5 148t184.5 51q137 0 220 -86.5t87 -235.5q-5 -148 -88 -235t-219 -87q-179 0 -375 199q-196 -199 -374 -199zM408 438q115 0 264 158q-70 76 -139 117t-125 41
q-59 0 -101 -45t-43 -113q1 -67 43 -112.5t101 -45.5zM1157 438q61 0 101.5 44t41.5 114q-1 71 -41.5 114.5t-101.5 43.5q-118 0 -264 -158q149 -158 264 -158z" />
    <glyph glyph-name="integral" unicode="&#x222b;" horiz-adv-x="917" 
d="M346 -387q-92 0 -145 66.5t-33 166.5h127q0 -58 10.5 -79t40.5 -21q20 0 32.5 14t12.5 39v1532q0 82 54 134.5t133 52.5q88 0 141 -67.5t33 -166.5h-129q0 58 -9.5 79t-38.5 21q-21 0 -35 -14.5t-14 -38.5v-1532q0 -82 -52 -134t-128 -52z" />
    <glyph glyph-name="approxequal" unicode="&#x2248;" horiz-adv-x="1177" 
d="M807 651q-34 0 -64.5 6t-58.5 22l-45.5 26t-43.5 36t-32 32.5t-31 33.5q-76 86 -147 86q-77 0 -121 -63.5t-35 -155.5h-133q-17 155 67.5 253.5t223.5 98.5q79 0 136.5 -35.5t121.5 -111.5q34 -45 68.5 -70t83.5 -25q73 0 118 60t33 157h133q20 -148 -61 -249t-213 -101z
M807 236q-40 0 -78.5 11.5t-62.5 24t-55 40t-41.5 38.5t-37.5 41q-76 86 -147 86q-77 0 -121 -63.5t-35 -155.5h-133q-17 157 67.5 255.5t223.5 98.5q79 0 136 -36t122 -113q34 -45 68.5 -69.5t83.5 -24.5q73 0 118 60.5t33 156.5h133q20 -148 -61 -249t-213 -101z" />
    <glyph glyph-name="notequal" unicode="&#x2260;" horiz-adv-x="1427" 
d="M903 662l-205 -236h631v-166h-770l-209 -244h-149l211 244h-312v166h453l201 236h-654v163h795l182 215h150l-185 -215h287v-163h-426z" />
    <glyph glyph-name="lessequal" unicode="&#x2264;" horiz-adv-x="1574" 
d="M1354 1260l-918 -406l918 -410v-215l-1131 508v232l1131 506v-215zM223 150h1131v-150h-1131v150z" />
    <glyph glyph-name="greaterequal" unicode="&#x2265;" horiz-adv-x="1574" 
d="M1354 969v-232l-1131 -508v215l916 410l-916 406v215zM223 150h1131v-150h-1131v150z" />
    <glyph glyph-name="lozenge" unicode="&#x25ca;" horiz-adv-x="1558" 
d="M162 723l618 618l617 -616l-617 -619zM1114 725l-334 334l-336 -336l336 -334z" />
    <glyph glyph-name="NULL" 
 />
    <glyph glyph-name="arrow" horiz-adv-x="995" 
d="M375 1100l-262 -62l385 498l385 -498l-260 62v-1100h-248v1100z" />
    <glyph glyph-name="i.loclTRK" horiz-adv-x="661" 
d="M283 1204q-61 0 -106.5 45t-45.5 107q0 63 45 107t107 44t106.5 -44t44.5 -107q0 -62 -45 -107t-106 -45zM154 1024h258v-1024h-258v1024z" />
    <glyph glyph-name="A.001" horiz-adv-x="1568" 
d="M1124 334h-690l-127 -334h-289l617 1536h297l616 -1536h-286zM1049 565l-265 701l-272 -701h537z" />
    <glyph glyph-name="Aacute.001" horiz-adv-x="1568" 
d="M883 1714h-197l174 334h260zM1124 334h-690l-127 -334h-289l617 1536h297l616 -1536h-286zM1049 565l-265 701l-272 -701h537z" />
    <glyph glyph-name="Abreve.001" horiz-adv-x="1568" 
d="M780 1659q-161 0 -258.5 89t-97.5 251h149q0 -77 58 -134t149 -57q92 0 150.5 57t58.5 134h150q0 -162 -98.5 -251t-260.5 -89zM1124 334h-690l-127 -334h-289l617 1536h297l616 -1536h-286zM1049 565l-265 701l-272 -701h537z" />
    <glyph glyph-name="uni01CD.001" horiz-adv-x="1568" 
d="M645 1698l-213 350h191l157 -233l158 233h190l-215 -350h-268zM1124 334h-690l-127 -334h-289l617 1536h297l616 -1536h-286zM1049 565l-265 701l-272 -701h537z" />
    <glyph glyph-name="Acircumflex.001" horiz-adv-x="1568" 
d="M631 1698h-199l213 350h268l215 -350h-198l-150 235zM1124 334h-690l-127 -334h-289l617 1536h297l616 -1536h-286zM1049 565l-265 701l-272 -701h537z" />
    <glyph glyph-name="Adieresis.001" horiz-adv-x="1568" 
d="M567 1702q-62 0 -105.5 44t-43.5 107q0 62 44 106t105 44q63 0 107.5 -44t44.5 -106q0 -63 -44.5 -107t-107.5 -44zM993 1702q-62 0 -106.5 44t-44.5 107q0 61 44.5 105.5t106.5 44.5q61 0 105.5 -44.5t44.5 -105.5q0 -63 -44 -107t-106 -44zM1124 334h-690l-127 -334
h-289l617 1536h297l616 -1536h-286zM1049 565l-265 701l-272 -701h537z" />
    <glyph glyph-name="uni1EA0.001" horiz-adv-x="1568" 
d="M1124 334h-690l-127 -334h-289l617 1536h297l616 -1536h-286zM1049 565l-265 701l-272 -701h537zM782 -115q62 0 106 -44t44 -105q0 -63 -44 -107.5t-106 -44.5q-63 0 -107 44.5t-44 107.5q0 62 44 105.5t107 43.5z" />
    <glyph glyph-name="Agrave.001" horiz-adv-x="1568" 
d="M672 1714l-238 334h260l174 -334h-196zM1124 334h-690l-127 -334h-289l617 1536h297l616 -1536h-286zM1049 565l-265 701l-272 -701h537z" />
    <glyph glyph-name="Amacron.001" horiz-adv-x="1568" 
d="M1100 1720h-635v164h635v-164zM1124 334h-690l-127 -334h-289l617 1536h297l616 -1536h-286zM1049 565l-265 701l-272 -701h537z" />
    <glyph glyph-name="Aogonek.001" horiz-adv-x="1558" 
d="M1565 -299l84 -115q-63 -63 -145 -92.5t-169 -23.5q-115 6 -184.5 63.5t-69.5 163.5q0 93 59.5 170.5t174.5 132.5h-53l-138 334h-690l-127 -334h-289l617 1536h297l616 -1536h-4q-141 -14 -216 -99.5t-75 -181.5q0 -55 33 -87.5t92 -32.5q55 0 106 28.5t81 73.5z
M512 565h537l-265 701z" />
    <glyph glyph-name="Aring.001" horiz-adv-x="1568" 
d="M944 1505l604 -1505h-286l-138 334h-690l-127 -334h-289l605 1505h-7q-65 65 -65 156q0 94 68 160.5t163 66.5q94 0 161 -66.5t67 -160.5q0 -90 -66 -156zM782 1784q-50 0 -85 -36.5t-35 -86.5q0 -53 34 -87t86 -34q50 0 84.5 34t34.5 87q0 50 -35 86.5t-84 36.5z
M512 565h537l-265 701z" />
    <glyph glyph-name="Atilde.001" horiz-adv-x="1568" 
d="M442 1704q-24 127 35 211t164 84q129 0 203 -117q26 -45 69 -45q40 0 55.5 40t-1.5 103h151q26 -125 -31.5 -208.5t-168.5 -83.5q-120 0 -201 116q-26 45 -68 45q-40 0 -55.5 -41t2.5 -104h-154zM1124 334h-690l-127 -334h-289l617 1536h297l616 -1536h-286zM1049 565
l-265 701l-272 -701h537z" />
    <glyph glyph-name="AE.001" horiz-adv-x="1890" 
d="M635 1536h1173v-225h-628v-441h542v-202h-542v-441h628v-227h-886v326h-490l-115 -326h-299zM922 528v783h-103l-301 -783h404z" />
    <glyph glyph-name="B.001" horiz-adv-x="1255" 
d="M920 797q135 -36 214.5 -135.5t79.5 -247.5q0 -188 -125.5 -301t-314.5 -113h-663v1536h567q192 0 319 -114.5t127 -303.5q0 -115 -56 -198t-148 -123zM858 1092q0 87 -62 150t-149 63h-272v-408h272q91 0 151 54t60 141zM735 233q89 0 151 63t62 150q0 90 -63 162
t-150 72h-360v-447h360z" />
    <glyph glyph-name="uni1E04.001" horiz-adv-x="1312" 
d="M977 797q135 -36 215 -135.5t80 -247.5q0 -187 -126.5 -300.5t-316.5 -113.5h-718v1536h624q191 0 318 -114.5t127 -303.5q0 -115 -56 -198t-147 -123zM915 1092q0 87 -61.5 150t-148.5 63h-330v-408h330q89 0 149.5 54.5t60.5 140.5zM793 233q88 0 149.5 63t61.5 150
q0 90 -62 162t-149 72h-418v-447h418zM655 -115q62 0 106 -44t44 -105q0 -63 -44 -107.5t-106 -44.5q-63 0 -107 44.5t-44 107.5q0 62 44 105.5t107 43.5z" />
    <glyph glyph-name="C.001" horiz-adv-x="1642" 
d="M819 -20q-215 -1 -386 105t-264 286t-93 397t92.5 396.5t263.5 285.5t387 106q148 0 274.5 -46t214 -126t141 -187t62.5 -228h-256q-7 45 -25.5 89t-54 89t-83.5 79t-118.5 55.5t-154.5 21.5q-150 0 -262.5 -71.5t-170.5 -192.5t-58 -271t58 -271t170.5 -192.5
t262.5 -71.5q97 0 179 30.5t134 79t83.5 103t39.5 107.5h256q-10 -105 -66.5 -207.5t-146 -183.5t-215.5 -131t-264 -51z" />
    <glyph glyph-name="Cacute.001" horiz-adv-x="1642" 
d="M913 2048h261l-236 -334h-199zM819 -20q-215 -1 -386 105t-264 286t-93 397t92.5 396.5t263.5 285.5t387 106q148 0 274.5 -46t214 -126t141 -187t62.5 -228h-256q-7 45 -25.5 89t-54 89t-83.5 79t-118.5 55.5t-154.5 21.5q-150 0 -262.5 -71.5t-170.5 -192.5t-58 -271
t58 -271t170.5 -192.5t262.5 -71.5q97 0 179 30.5t134 79t83.5 103t39.5 107.5h256q-10 -105 -66.5 -207.5t-146 -183.5t-215.5 -131t-264 -51z" />
    <glyph glyph-name="Ccaron.001" horiz-adv-x="1642" 
d="M473 2048h191l157 -233l158 233h190l-215 -350h-268zM819 -20q-215 -1 -386 105t-264 286t-93 397t92.5 396.5t263.5 285.5t387 106q148 0 274.5 -46t214 -126t141 -187t62.5 -228h-256q-7 45 -25.5 89t-54 89t-83.5 79t-118.5 55.5t-154.5 21.5q-150 0 -262.5 -71.5
t-170.5 -192.5t-58 -271t58 -271t170.5 -192.5t262.5 -71.5q97 0 179 30.5t134 79t83.5 103t39.5 107.5h256q-10 -105 -66.5 -207.5t-146 -183.5t-215.5 -131t-264 -51z" />
    <glyph glyph-name="Ccedilla.001" horiz-adv-x="1642" 
d="M819 233q97 0 179 30.5t134 79t83.5 103t39.5 107.5h256q-9 -99 -60 -195.5t-131 -175.5t-193.5 -132.5t-239.5 -65.5v-2l-58 -111q102 20 174 -34t72 -150q0 -92 -63.5 -155.5t-155.5 -63.5q-74 0 -143 41.5t-95 101.5l113 43q19 -29 55 -48.5t70 -19.5q41 0 69.5 29.5
t28.5 71.5q0 62 -53 82t-129 -13l-94 58l86 168q-201 13 -359 121.5t-243.5 282.5t-85.5 382q0 217 92.5 396.5t263.5 285.5t387 106q148 0 274.5 -46t214 -126t141 -187t62.5 -228h-256q-7 45 -25.5 89t-54 89t-83.5 79t-118.5 55.5t-154.5 21.5q-150 0 -262.5 -71.5
t-170.5 -192.5t-58 -271t58 -271t170.5 -192.5t262.5 -71.5z" />
    <glyph glyph-name="Cdotaccent.001" horiz-adv-x="1642" 
d="M821 1702q-63 0 -107 44t-44 107q0 62 44 106t107 44q61 0 105.5 -44.5t44.5 -105.5q0 -63 -44 -107t-106 -44zM819 -20q-215 -1 -386 105t-264 286t-93 397t92.5 396.5t263.5 285.5t387 106q148 0 274.5 -46t214 -126t141 -187t62.5 -228h-256q-7 45 -25.5 89t-54 89
t-83.5 79t-118.5 55.5t-154.5 21.5q-150 0 -262.5 -71.5t-170.5 -192.5t-58 -271t58 -271t170.5 -192.5t262.5 -71.5q97 0 179 30.5t134 79t83.5 103t39.5 107.5h256q-10 -105 -66.5 -207.5t-146 -183.5t-215.5 -131t-264 -51z" />
    <glyph glyph-name="D.001" horiz-adv-x="1449" 
d="M129 1536h469q128 0 242.5 -30.5t211 -93.5t166.5 -153.5t109 -217t39 -277.5q0 -181 -60 -327.5t-165 -241t-244 -145t-299 -50.5h-469v1536zM596 233q109 0 199.5 31.5t160 94.5t108 166.5t38.5 238.5q0 144 -38.5 250.5t-108.5 169t-159 92t-200 29.5h-203v-1072h203z
" />
    <glyph glyph-name="Eth.001" horiz-adv-x="1603" 
d="M752 1536q211 0 386 -97t278.5 -273.5t103.5 -397.5t-103.5 -397.5t-278.5 -273.5t-386 -97h-471v692h-152v152h152v692h471zM750 233q215 0 359 149.5t144 385.5t-144 386.5t-359 150.5h-205v-461h250v-152h-250v-459h205z" />
    <glyph glyph-name="Dcaron.001" horiz-adv-x="1490" 
d="M254 2048h190l158 -233l158 233h190l-215 -350h-268zM129 1536h510q128 0 242.5 -30.5t211 -93.5t166.5 -153.5t109 -217t39 -277.5q0 -181 -60 -327.5t-165 -241t-244 -145t-299 -50.5h-510v1536zM637 233q109 0 199.5 31.5t160 94.5t108 166.5t38.5 238.5
q0 144 -38.5 250.5t-108.5 169t-159 92t-200 29.5h-244v-1072h244z" />
    <glyph glyph-name="Dcroat.001" horiz-adv-x="1638" 
d="M786 1536q128 0 242.5 -30.5t211 -93.5t166.5 -153.5t109 -217t39 -277.5q0 -181 -60 -327.5t-165 -241t-244 -145t-299 -50.5h-512v692h-145v152h145v692h512zM784 233q109 0 199 31.5t159.5 94.5t108.5 166.5t39 238.5q0 144 -38.5 250.5t-109 169t-159.5 92t-199 29.5
h-243v-461h219v-152h-219v-459h243z" />
    <glyph glyph-name="E.001" horiz-adv-x="1163" 
d="M383 1305v-420h580v-234h-580v-418h666v-233h-932v1536h932v-231h-666z" />
    <glyph glyph-name="Eacute.001" horiz-adv-x="1222" 
d="M680 1714h-197l174 334h261zM383 1305v-420h639v-234h-639v-418h725v-233h-991v1536h991v-231h-725z" />
    <glyph glyph-name="Ecaron.001" horiz-adv-x="1222" 
d="M442 1698l-213 350h191l158 -233l157 233h191l-215 -350h-269zM383 1305v-420h639v-234h-639v-418h725v-233h-991v1536h991v-231h-725z" />
    <glyph glyph-name="uni0228.001" horiz-adv-x="1222" 
d="M1108 1305h-725v-420h639v-234h-639v-418h725v-233h-469l-68 -129q102 20 174 -34t72 -150q0 -92 -63.5 -155.5t-155.5 -63.5q-74 0 -143 41.5t-95 101.5l113 43q19 -29 55 -48.5t70 -19.5q41 0 69.5 29.5t28.5 71.5q0 62 -53 82t-129 -13l-94 58l98 186h-401v1536h991
v-231z" />
    <glyph glyph-name="Ecircumflex.001" horiz-adv-x="1222" 
d="M428 1698h-199l213 350h269l215 -350h-199l-149 235zM383 1305v-420h639v-234h-639v-418h725v-233h-991v1536h991v-231h-725z" />
    <glyph glyph-name="Edieresis.001" horiz-adv-x="1222" 
d="M367 1702q-63 0 -107.5 44t-44.5 107q0 62 44.5 106t107.5 44q61 0 105 -44t44 -106q0 -63 -43.5 -107t-105.5 -44zM791 1702q-62 0 -107 44t-45 107q0 61 45 105.5t107 44.5q61 0 105 -44t44 -106q0 -63 -43.5 -107t-105.5 -44zM383 1305v-420h639v-234h-639v-418h725
v-233h-991v1536h991v-231h-725z" />
    <glyph glyph-name="Edotaccent.001" horiz-adv-x="1222" 
d="M580 1702q-63 0 -107.5 44t-44.5 107q0 62 44.5 106t107.5 44q62 0 106.5 -44.5t44.5 -105.5q0 -63 -44.5 -107t-106.5 -44zM383 1305v-420h639v-234h-639v-418h725v-233h-991v1536h991v-231h-725z" />
    <glyph glyph-name="uni1EB8.001" horiz-adv-x="1222" 
d="M383 1305v-420h639v-234h-639v-418h725v-233h-991v1536h991v-231h-725zM580 -115q62 0 106.5 -44t44.5 -105q0 -63 -44.5 -107.5t-106.5 -44.5q-63 0 -107.5 44.5t-44.5 107.5q0 62 44.5 105.5t107.5 43.5z" />
    <glyph glyph-name="Egrave.001" horiz-adv-x="1222" 
d="M469 1714l-238 334h261l174 -334h-197zM383 1305v-420h639v-234h-639v-418h725v-233h-991v1536h991v-231h-725z" />
    <glyph glyph-name="Emacron.001" horiz-adv-x="1222" 
d="M897 1720h-635v164h635v-164zM383 1305v-420h639v-234h-639v-418h725v-233h-991v1536h991v-231h-725z" />
    <glyph glyph-name="Eogonek.001" horiz-adv-x="1247" 
d="M1044 -299l82 -115q-63 -63 -144.5 -92.5t-168.5 -23.5q-113 6 -183.5 63.5t-70.5 163.5q0 92 60 169.5t174 133.5h-676v1536h991v-231h-725v-420h639v-234h-639v-418h725v-233h-84q-126 -9 -208.5 -96.5t-82.5 -184.5q0 -55 32.5 -87.5t90.5 -32.5q54 0 105.5 28.5
t82.5 73.5z" />
    <glyph glyph-name="uni1EBC.001" horiz-adv-x="1222" 
d="M242 1704q-26 127 33 211t165 84q126 0 203 -117q23 -45 68 -45q40 0 55.5 40t-2.5 103h151q26 -126 -30.5 -209t-167.5 -83q-122 0 -203 116q-26 45 -68 45q-40 0 -55.5 -41t2.5 -104h-151zM383 1305v-420h639v-234h-639v-418h725v-233h-991v1536h991v-231h-725z" />
    <glyph glyph-name="F.001" horiz-adv-x="1107" 
d="M385 1305v-420h578v-234h-578v-651h-266v1536h930v-231h-664z" />
    <glyph glyph-name="G.001" horiz-adv-x="1583" 
d="M793 1311q-236 0 -366 -146.5t-130 -402.5q0 -122 38.5 -225t104.5 -171.5t153.5 -106.5t184.5 -38q125 0 223 43t155 126t58 192h-389v229h664q2 -198 -35 -348.5t-119.5 -262t-221.5 -169.5t-333 -58q-222 0 -389.5 101.5t-256.5 280t-89 407.5q0 235 90.5 415.5
t255 279.5t377.5 99q134 0 250 -33.5t208.5 -98t153 -167.5t76.5 -235h-260q-27 134 -139 211.5t-264 77.5z" />
    <glyph glyph-name="Gbreve.001" horiz-adv-x="1581" 
d="M846 1659q-161 0 -259 89t-98 251h150q0 -76 59 -133.5t148 -57.5q92 0 151.5 57t59.5 134h149q0 -162 -98 -251t-262 -89zM1479 809v-262v-547h-179l-36 205q-83 -113 -198.5 -164t-285.5 -51q-217 0 -382.5 99t-253 273.5t-87.5 399.5q0 231 89 409t250.5 275.5
t371.5 97.5q177 0 320 -56t240 -176t118 -292h-256q-27 131 -137.5 207t-259.5 76q-233 0 -361.5 -144t-128.5 -397q0 -120 38.5 -221t104 -168t151.5 -104.5t181 -37.5q192 0 311 95.5t119 257.5h-383v225h654z" />
    <glyph glyph-name="Gcaron.001" horiz-adv-x="1581" 
d="M719 1698l-213 350h190l158 -233l158 233h190l-215 -350h-268zM1479 809v-262v-547h-179l-36 205q-83 -113 -198.5 -164t-285.5 -51q-217 0 -382.5 99t-253 273.5t-87.5 399.5q0 231 89 409t250.5 275.5t371.5 97.5q177 0 320 -56t240 -176t118 -292h-256
q-27 131 -137.5 207t-259.5 76q-233 0 -361.5 -144t-128.5 -397q0 -120 38.5 -221t104 -168t151.5 -104.5t181 -37.5q192 0 311 95.5t119 257.5h-383v225h654z" />
    <glyph glyph-name="uni0122.001" horiz-adv-x="1581" 
d="M1479 809v-262v-547h-179l-36 205q-83 -113 -198.5 -164t-285.5 -51q-217 0 -382.5 99t-253 273.5t-87.5 399.5q0 231 89 409t250.5 275.5t371.5 97.5q177 0 320 -56t240 -176t118 -292h-256q-27 131 -137.5 207t-259.5 76q-233 0 -361.5 -144t-128.5 -397
q0 -120 38.5 -221t104 -168t151.5 -104.5t181 -37.5q192 0 311 95.5t119 257.5h-383v225h654zM813 -387q-44 15 -72 54.5t-28 86.5q0 62 44 106t105 44t103.5 -43.5t42.5 -106.5q0 -55 -42.5 -136t-97.5 -153h-139z" />
    <glyph glyph-name="Gdotaccent.001" horiz-adv-x="1581" 
d="M885 1702q-63 0 -107.5 44t-44.5 107q0 62 44.5 106t107.5 44q61 0 105 -44t44 -106q0 -63 -43.5 -107t-105.5 -44zM1479 809v-262v-547h-179l-36 205q-83 -113 -198.5 -164t-285.5 -51q-217 0 -382.5 99t-253 273.5t-87.5 399.5q0 231 89 409t250.5 275.5t371.5 97.5
q177 0 320 -56t240 -176t118 -292h-256q-27 131 -137.5 207t-259.5 76q-233 0 -361.5 -144t-128.5 -397q0 -120 38.5 -221t104 -168t151.5 -104.5t181 -37.5q192 0 311 95.5t119 257.5h-383v225h654z" />
    <glyph glyph-name="H.001" horiz-adv-x="1513" 
d="M1380 1536v-1536h-266v651h-715v-651h-266v1536h266v-649h715v649h266z" />
    <glyph glyph-name="Hbar.001" horiz-adv-x="1767" 
d="M1634 1155h-127v-1155h-266v651h-713v-651h-268v1155h-127v102h127v279h268v-279h713v279h266v-279h127v-102zM1241 1155h-713v-268h713v268z" />
    <glyph glyph-name="uni1E24.001" horiz-adv-x="1513" 
d="M1380 1536v-1536h-266v651h-715v-651h-266v1536h266v-649h715v649h266zM760 -115q63 0 107 -43.5t44 -105.5q0 -63 -44 -107.5t-107 -44.5q-62 0 -106 44.5t-44 107.5q0 61 44 105t106 44z" />
    <glyph glyph-name="I.001" horiz-adv-x="532" 
d="M133 1536h266v-1536h-266v1536z" />
    <glyph glyph-name="IJ.001" horiz-adv-x="1554" 
d="M182 1536h269v-1536h-269v1536zM940 -20q-104 0 -162 20v270q70 -24 148 -24q53 0 92 39t39 94v1157h264v-1180q0 -166 -108 -271t-273 -105z" />
    <glyph glyph-name="Iacute.001" horiz-adv-x="532" 
d="M344 2048h260l-237 -334h-197zM133 1536h266v-1536h-266v1536z" />
    <glyph glyph-name="uni01CF.001" horiz-adv-x="532" 
d="M-86 2048h192l158 -233l158 233h190l-215 -350h-268zM133 1536h266v-1536h-266v1536z" />
    <glyph glyph-name="Icircumflex.001" horiz-adv-x="532" 
d="M129 2048h268l215 -350h-198l-150 235l-149 -235h-201zM133 1536h266v-1536h-266v1536z" />
    <glyph glyph-name="Idieresis.001" horiz-adv-x="532" 
d="M51 1702q-62 0 -107.5 44.5t-45.5 106.5q0 61 45.5 105.5t107.5 44.5q63 0 107.5 -44t44.5 -106q0 -63 -44.5 -107t-107.5 -44zM477 1702q-62 0 -106.5 44t-44.5 107q0 61 44.5 105.5t106.5 44.5q61 0 105.5 -44.5t44.5 -105.5q0 -63 -44 -107t-106 -44zM133 1536h266
v-1536h-266v1536z" />
    <glyph glyph-name="Idotaccent.001" horiz-adv-x="532" 
d="M266 1702q-63 0 -107 44t-44 107q0 62 44 106t107 44q62 0 107 -44.5t45 -105.5q0 -63 -45 -107t-107 -44zM133 1536h266v-1536h-266v1536z" />
    <glyph glyph-name="uni1ECA.001" horiz-adv-x="532" 
d="M133 1536h266v-1536h-266v1536zM266 -416q-63 0 -107 44.5t-44 107.5q0 62 44 105.5t107 43.5q62 0 107 -44t45 -105q0 -63 -45 -107.5t-107 -44.5z" />
    <glyph glyph-name="Igrave.001" horiz-adv-x="532" 
d="M-84 2048h262l174 -334h-196zM133 1536h266v-1536h-266v1536z" />
    <glyph glyph-name="Imacron.001" horiz-adv-x="532" 
d="M-53 1884h637v-164h-637v164zM133 1536h266v-1536h-266v1536z" />
    <glyph glyph-name="Iogonek.001" horiz-adv-x="532" 
d="M473 -414q-62 -63 -144 -92.5t-169 -23.5q-114 6 -185 64t-71 163q0 92 60.5 169.5t176.5 133.5h-8v1536h266v-1536h-28q-125 -9 -208 -97t-83 -184q0 -55 33 -87.5t92 -32.5q53 0 104.5 28.5t81.5 73.5z" />
    <glyph glyph-name="Itilde.001" horiz-adv-x="532" 
d="M401 1688q-119 0 -200 116q-26 45 -68 45q-40 0 -55.5 -41t2.5 -104h-156q-24 127 35.5 211t165.5 84q129 0 203 -117q26 -45 69 -45q40 0 55.5 40t-1.5 103h151q26 -125 -32 -208.5t-169 -83.5zM133 1536h266v-1536h-266v1536z" />
    <glyph glyph-name="J.001" horiz-adv-x="759" 
d="M240 -20q-104 0 -162 20v270q67 -24 145 -24q54 0 93.5 39t39.5 94v1157h265v-1180q0 -166 -108 -271t-273 -105z" />
    <glyph glyph-name="K.001" horiz-adv-x="1370" 
d="M1012 0l-623 694v-694h-266v1536h266v-696l543 696h309l-577 -758l696 -778h-348z" />
    <glyph glyph-name="uni0136.001" horiz-adv-x="1390" 
d="M1032 0l-643 694v-694h-266v1536h266v-696l563 696h310l-598 -758l716 -778h-348zM635 -365q-44 15 -72 55t-28 87q0 61 43.5 105t105.5 44q61 0 103 -43t42 -106q0 -55 -42.5 -136.5t-96.5 -152.5h-139z" />
    <glyph glyph-name="L.001" horiz-adv-x="991" 
d="M119 1536h266v-1303h533v-233h-799v1536z" />
    <glyph glyph-name="Lacute.001" horiz-adv-x="991" 
d="M330 2048h260l-236 -334h-198zM119 1536h266v-1303h533v-233h-799v1536z" />
    <glyph glyph-name="Lcaron.001" horiz-adv-x="1054" 
d="M784 1245q-44 17 -71 57t-27 87q0 62 43.5 105.5t106.5 43.5q60 0 102.5 -43.5t42.5 -105.5q0 -55 -43.5 -138.5t-97.5 -150.5h-140zM119 1536h266v-1303h533v-233h-799v1536z" />
    <glyph glyph-name="uni013B.001" horiz-adv-x="991" 
d="M119 1536h266v-1303h533v-233h-799v1536zM469 -403q-46 17 -73 55.5t-27 85.5q0 63 43 106t106 43q62 0 104 -43t42 -106q0 -54 -44 -137t-98 -150h-137z" />
    <glyph glyph-name="uni1E36.001" horiz-adv-x="991" 
d="M119 1536h266v-1303h533v-233h-799v1536zM520 -416q-63 0 -107 44.5t-44 107.5q0 62 44 105.5t107 43.5q62 0 107 -44t45 -105q0 -63 -45 -107.5t-107 -44.5z" />
    <glyph glyph-name="Lslash.001" horiz-adv-x="1239" 
d="M1165 233v-233h-798v547l-88 -90h-160l248 262v817h266v-539l78 84h168l-246 -256v-592h532z" />
    <glyph glyph-name="M.001" horiz-adv-x="1894" 
d="M1761 1536v-1536h-264v1159l-416 -1159h-262l-420 1159v-1159h-266v1536h373l442 -1194l445 1194h368z" />
    <glyph glyph-name="N.001" horiz-adv-x="1607" 
d="M1479 1536v-1536h-267l-833 1128v-1128h-266v1536h268l833 -1126v1126h265z" />
    <glyph glyph-name="Nacute.001" horiz-adv-x="1607" 
d="M901 1714h-199l177 334h258zM1479 1536v-1536h-267l-833 1128v-1128h-266v1536h268l833 -1126v1126h265z" />
    <glyph glyph-name="Ncaron.001" horiz-adv-x="1607" 
d="M664 1698l-213 350h190l158 -233l157 233h191l-215 -350h-268zM1479 1536v-1536h-267l-833 1128v-1128h-266v1536h268l833 -1126v1126h265z" />
    <glyph glyph-name="uni0145.001" horiz-adv-x="1607" 
d="M1479 1536v-1536h-267l-833 1128v-1128h-266v1536h268l833 -1126v1126h265zM772 -360q-46 17 -73 56.5t-27 86.5q0 62 43 105.5t106 43.5q61 0 103.5 -43.5t42.5 -105.5q0 -55 -44 -138.5t-98 -150.5h-137z" />
    <glyph glyph-name="uni1E44.001" horiz-adv-x="1607" 
d="M799 1702q-62 0 -106 44t-44 107q0 61 44.5 105.5t105.5 44.5q63 0 107 -44t44 -106q0 -63 -44 -107t-107 -44zM1479 1536v-1536h-267l-833 1128v-1128h-266v1536h268l833 -1126v1126h265z" />
    <glyph glyph-name="uni1E46.001" horiz-adv-x="1607" 
d="M1479 1536v-1536h-267l-833 1128v-1128h-266v1536h268l833 -1126v1126h265zM797 -115q62 0 106.5 -44t44.5 -105q0 -63 -44.5 -107.5t-106.5 -44.5t-107 44.5t-45 107.5q0 61 45 105t107 44z" />
    <glyph glyph-name="Eng.001" horiz-adv-x="1597" 
d="M1468 1536v-1657q0 -89 -32 -155t-89.5 -104t-130.5 -56.5t-163 -18.5v172q35 -1 59.5 4.5t47 21.5t33.5 50t11 86v133l-835 1102v-1114h-256v1536h258l841 -1112v1112h256z" />
    <glyph glyph-name="Ntilde.001" horiz-adv-x="1607" 
d="M481 1704q-26 127 33.5 211t165.5 84q126 0 203 -117q26 -45 67 -45q42 0 57 40t-3 103h153q26 -125 -32 -208.5t-169 -83.5q-122 0 -200 116q-29 45 -70 45q-39 0 -54 -41t3 -104h-154zM1479 1536v-1536h-267l-833 1128v-1128h-266v1536h268l833 -1126v1126h265z" />
    <glyph glyph-name="O.001" horiz-adv-x="1646" 
d="M819 -20q-216 0 -388.5 106t-266.5 285.5t-94 396.5t94 396.5t266.5 285.5t388.5 106q162 0 303 -62t238.5 -168t153 -251t55.5 -307t-55.5 -307t-153 -251t-238.5 -168t-303 -62zM819 238q225 0 359.5 150t134.5 380q0 231 -134.5 381.5t-359.5 150.5
q-224 0 -359.5 -150.5t-135.5 -381.5q0 -229 135.5 -379.5t359.5 -150.5z" />
    <glyph glyph-name="Oacute.001" horiz-adv-x="1646" 
d="M899 2048h260l-237 -334h-197zM819 -20q-216 0 -388.5 106t-266.5 285.5t-94 396.5t94 396.5t266.5 285.5t388.5 106q162 0 303 -62t238.5 -168t153 -251t55.5 -307t-55.5 -307t-153 -251t-238.5 -168t-303 -62zM819 238q225 0 359.5 150t134.5 380q0 231 -134.5 381.5
t-359.5 150.5q-224 0 -359.5 -150.5t-135.5 -381.5q0 -229 135.5 -379.5t359.5 -150.5z" />
    <glyph glyph-name="uni01D1.001" horiz-adv-x="1646" 
d="M473 2048h191l157 -233l158 233h190l-215 -350h-268zM819 -20q-216 0 -388.5 106t-266.5 285.5t-94 396.5t94 396.5t266.5 285.5t388.5 106q162 0 303 -62t238.5 -168t153 -251t55.5 -307t-55.5 -307t-153 -251t-238.5 -168t-303 -62zM819 238q225 0 359.5 150t134.5 380
q0 231 -134.5 381.5t-359.5 150.5q-224 0 -359.5 -150.5t-135.5 -381.5q0 -229 135.5 -379.5t359.5 -150.5z" />
    <glyph glyph-name="Ocircumflex.001" horiz-adv-x="1646" 
d="M686 2048h268l215 -350h-198l-150 235l-151 -235h-197zM819 -20q-216 0 -388.5 106t-266.5 285.5t-94 396.5t94 396.5t266.5 285.5t388.5 106q162 0 303 -62t238.5 -168t153 -251t55.5 -307t-55.5 -307t-153 -251t-238.5 -168t-303 -62zM819 238q225 0 359.5 150
t134.5 380q0 231 -134.5 381.5t-359.5 150.5q-224 0 -359.5 -150.5t-135.5 -381.5q0 -229 135.5 -379.5t359.5 -150.5z" />
    <glyph glyph-name="Odieresis.001" horiz-adv-x="1646" 
d="M608 1702q-63 0 -107 44t-44 107q0 62 44 106t107 44q62 0 107 -44.5t45 -105.5q0 -63 -45 -107t-107 -44zM1032 1702q-62 0 -106.5 44t-44.5 107q0 61 44.5 105.5t106.5 44.5t107 -44.5t45 -105.5q0 -63 -45 -107t-107 -44zM819 -20q-216 0 -388.5 106t-266.5 285.5
t-94 396.5t94 396.5t266.5 285.5t388.5 106q162 0 303 -62t238.5 -168t153 -251t55.5 -307t-55.5 -307t-153 -251t-238.5 -168t-303 -62zM819 238q225 0 359.5 150t134.5 380q0 231 -134.5 381.5t-359.5 150.5q-224 0 -359.5 -150.5t-135.5 -381.5q0 -229 135.5 -379.5
t359.5 -150.5z" />
    <glyph glyph-name="uni1ECC.001" horiz-adv-x="1646" 
d="M819 -20q-216 0 -388.5 106t-266.5 285.5t-94 396.5t94 396.5t266.5 285.5t388.5 106q162 0 303 -62t238.5 -168t153 -251t55.5 -307t-55.5 -307t-153 -251t-238.5 -168t-303 -62zM819 238q225 0 359.5 150t134.5 380q0 231 -134.5 381.5t-359.5 150.5
q-224 0 -359.5 -150.5t-135.5 -381.5q0 -229 135.5 -379.5t359.5 -150.5zM821 -416q-63 0 -107 44.5t-44 107.5q0 62 44 105.5t107 43.5q62 0 106 -44t44 -105q0 -63 -44 -107.5t-106 -44.5z" />
    <glyph glyph-name="Ograve.001" horiz-adv-x="1646" 
d="M473 2048h258l176 -334h-196zM819 -20q-216 0 -388.5 106t-266.5 285.5t-94 396.5t94 396.5t266.5 285.5t388.5 106q162 0 303 -62t238.5 -168t153 -251t55.5 -307t-55.5 -307t-153 -251t-238.5 -168t-303 -62zM819 238q225 0 359.5 150t134.5 380q0 231 -134.5 381.5
t-359.5 150.5q-224 0 -359.5 -150.5t-135.5 -381.5q0 -229 135.5 -379.5t359.5 -150.5z" />
    <glyph glyph-name="Ohungarumlaut.001" horiz-adv-x="1646" 
d="M821 2048h242l-352 -362h-183zM1219 2048h243l-352 -362h-182zM819 -20q-216 0 -388.5 106t-266.5 285.5t-94 396.5t94 396.5t266.5 285.5t388.5 106q162 0 303 -62t238.5 -168t153 -251t55.5 -307t-55.5 -307t-153 -251t-238.5 -168t-303 -62zM819 238q225 0 359.5 150
t134.5 380q0 231 -134.5 381.5t-359.5 150.5q-224 0 -359.5 -150.5t-135.5 -381.5q0 -229 135.5 -379.5t359.5 -150.5z" />
    <glyph glyph-name="Omacron.001" horiz-adv-x="1646" 
d="M504 1884h635v-164h-635v164zM819 -20q-216 0 -388.5 106t-266.5 285.5t-94 396.5t94 396.5t266.5 285.5t388.5 106q162 0 303 -62t238.5 -168t153 -251t55.5 -307t-55.5 -307t-153 -251t-238.5 -168t-303 -62zM819 238q225 0 359.5 150t134.5 380q0 231 -134.5 381.5
t-359.5 150.5q-224 0 -359.5 -150.5t-135.5 -381.5q0 -229 135.5 -379.5t359.5 -150.5z" />
    <glyph glyph-name="Oslash.001" horiz-adv-x="1646" 
d="M1307 1378q124 -110 193 -268.5t69 -341.5q0 -162 -55.5 -307t-153 -251t-238.5 -168t-303 -62q-212 0 -377 100l-88 -135h-164l142 213q-124 108 -193 267.5t-69 342.5q0 217 94 396.5t266.5 285.5t388.5 106q206 0 379 -100l88 133h162zM324 768q0 -244 151 -395
l582 870q-105 57 -238 57q-224 0 -359.5 -150.5t-135.5 -381.5zM819 238q225 0 359.5 150t134.5 380q0 118 -38.5 220.5t-109.5 174.5l-579 -870q98 -55 233 -55z" />
    <glyph glyph-name="Oslashacute.001" horiz-adv-x="1646" 
d="M922 1714h-197l174 334h260zM1307 1378q124 -110 193 -268.5t69 -341.5q0 -162 -55.5 -307t-153 -251t-238.5 -168t-303 -62q-212 0 -377 100l-88 -135h-164l142 213q-124 108 -193 267.5t-69 342.5q0 217 94 396.5t266.5 285.5t388.5 106q206 0 379 -100l88 133h162z
M324 768q0 -244 151 -395l582 870q-105 57 -238 57q-224 0 -359.5 -150.5t-135.5 -381.5zM819 238q225 0 359.5 150t134.5 380q0 118 -38.5 220.5t-109.5 174.5l-579 -870q98 -55 233 -55z" />
    <glyph glyph-name="Otilde.001" horiz-adv-x="1646" 
d="M956 1688q-122 0 -200 116q-29 45 -68 45q-40 0 -55.5 -41t2.5 -104h-154q-26 127 33.5 211t165.5 84q126 0 203 -117q26 -45 69 -45q40 0 55 40t-3 103h153q26 -125 -32 -208.5t-169 -83.5zM819 -20q-216 0 -388.5 106t-266.5 285.5t-94 396.5t94 396.5t266.5 285.5
t388.5 106q162 0 303 -62t238.5 -168t153 -251t55.5 -307t-55.5 -307t-153 -251t-238.5 -168t-303 -62zM819 238q225 0 359.5 150t134.5 380q0 231 -134.5 381.5t-359.5 150.5q-224 0 -359.5 -150.5t-135.5 -381.5q0 -229 135.5 -379.5t359.5 -150.5z" />
    <glyph glyph-name="OE.001" horiz-adv-x="2502" 
d="M2388 1305h-725v-420h639v-234h-639v-418h725v-233h-991v199q-107 -102 -245.5 -159.5t-293.5 -57.5q-214 0 -395.5 105.5t-287 287t-105.5 395.5q0 161 62.5 307t167.5 251.5t251 168t307 62.5q155 0 294 -57.5t245 -160.5v195h991v-231zM858 238q146 0 268.5 70.5
t193.5 193t71 268.5t-71 268.5t-193.5 193.5t-268.5 71t-268.5 -71t-193 -193.5t-70.5 -268.5t70.5 -268.5t193 -193t268.5 -70.5z" />
    <glyph glyph-name="P.001" horiz-adv-x="1222" 
d="M727 1536q122 0 226 -69t162.5 -180t58.5 -234q0 -124 -58.5 -234t-162 -177t-226.5 -67h-342v-575h-266v1536h608zM705 795q92 0 159.5 78t67.5 178q0 97 -67.5 175.5t-159.5 78.5h-320v-510h320z" />
    <glyph glyph-name="Thorn.001" horiz-adv-x="1214" 
d="M725 1317q185 0 313.5 -131t128.5 -320q0 -183 -128.5 -309.5t-313.5 -126.5h-348v-430h-258v1534h258v-217h348zM715 657q92 0 155.5 63t63.5 154t-63.5 153.5t-155.5 62.5h-338v-433h338z" />
    <glyph glyph-name="Q.001" horiz-adv-x="1648" 
d="M1616 205v-205h-57q-69 0 -140 29t-121 84l-22 20q-196 -153 -457 -153q-216 0 -388.5 106t-266.5 285.5t-94 396.5t94 396.5t266.5 285.5t388.5 106q162 0 303 -62t238.5 -168t153 -251t55.5 -307q0 -270 -144 -475l35 -37q51 -51 135 -51h21zM819 238q162 0 281 81
l-228 240l150 154l221 -230q70 128 70 285q0 231 -134.5 381.5t-359.5 150.5q-224 0 -359.5 -150.5t-135.5 -381.5q0 -229 135.5 -379.5t359.5 -150.5z" />
    <glyph glyph-name="R.001" horiz-adv-x="1306" 
d="M1239 0h-299l-367 592h-194v-592h-266v1536h610q121 0 224.5 -69t162.5 -180.5t59 -235.5q0 -155 -94 -283t-235 -160zM713 801q91 0 153 72.5t62 179.5q0 105 -63 178.5t-152 73.5h-334v-504h334z" />
    <glyph glyph-name="Racute.001" horiz-adv-x="1374" 
d="M743 1714h-198l176 334h258zM1305 0h-299l-367 592h-260v-592h-266v1536h675q122 0 225.5 -69t162.5 -180.5t59 -235.5q0 -155 -93.5 -283t-234.5 -160zM778 801q92 0 153.5 72.5t61.5 179.5q0 106 -62 179t-153 73h-399v-504h399z" />
    <glyph glyph-name="Rcaron.001" horiz-adv-x="1374" 
d="M506 1698l-211 350h190l156 -233l160 233h190l-217 -350h-268zM1305 0h-299l-367 592h-260v-592h-266v1536h675q122 0 225.5 -69t162.5 -180.5t59 -235.5q0 -155 -93.5 -283t-234.5 -160zM778 801q92 0 153.5 72.5t61.5 179.5q0 106 -62 179t-153 73h-399v-504h399z" />
    <glyph glyph-name="uni0156.001" horiz-adv-x="1374" 
d="M1305 0h-299l-367 592h-260v-592h-266v1536h675q122 0 225.5 -69t162.5 -180.5t59 -235.5q0 -155 -93.5 -283t-234.5 -160zM778 801q92 0 153.5 72.5t61.5 179.5q0 106 -62 179t-153 73h-399v-504h399zM606 -365q-44 17 -71 57t-27 87q0 62 43 105.5t106 43.5
q60 0 103 -44t43 -105q0 -55 -43.5 -138.5t-97.5 -150.5h-140z" />
    <glyph glyph-name="S.001" horiz-adv-x="1280" 
d="M653 -20q-243 0 -393.5 137t-171.5 358h238q11 -49 32.5 -89.5t59.5 -78t100.5 -59t143.5 -21.5q127 0 203 50.5t77 150.5q0 112 -130 189q-58 34 -222 98q-8 3 -15 6q-56 21 -91.5 35.5t-86.5 39t-83 46.5t-69 54.5t-57.5 67t-34.5 80t-14 97.5q0 126 72.5 222
t191 144.5t261.5 48.5q245 0 381 -120.5t178 -358.5h-246q-6 49 -26 92.5t-55.5 81t-93.5 60t-132 22.5q-106 0 -182 -49t-76 -133q0 -25 9.5 -48.5t23 -41.5t39.5 -36.5t47 -31.5t59 -30t63 -27t70 -27q177 -70 244 -107q184 -102 229 -254q16 -54 16 -116
q0 -110 -44 -197.5t-121 -142.5t-177.5 -83.5t-216.5 -28.5z" />
    <glyph glyph-name="Sacute.001" horiz-adv-x="1290" 
d="M776 2048h258l-235 -334h-199zM657 -20q-244 0 -396 137.5t-173 357.5h238q11 -48 33.5 -89.5t61.5 -78.5t101.5 -58.5t143.5 -21.5q128 0 206.5 50.5t79.5 150.5q0 37 -13 69.5t-38.5 58t-56 47t-72.5 41t-81.5 35.5t-88.5 34q-15 5 -22 8q-57 21 -93 35.5t-87.5 39
t-84 46.5t-69.5 54.5t-58 67t-35 80t-14 97.5q0 126 74 222t193.5 144.5t261.5 48.5q477 0 561 -473h-246q-12 101 -91.5 175.5t-217.5 74.5q-106 0 -184 -49t-78 -133q0 -29 10.5 -54.5t36.5 -48.5t48.5 -39t68 -36.5t72 -31.5t81.5 -32q177 -71 241 -105
q186 -101 234 -248q19 -57 19 -124q0 -110 -45 -197.5t-123.5 -142.5t-180 -83.5t-217.5 -28.5z" />
    <glyph glyph-name="Scaron.001" horiz-adv-x="1290" 
d="M348 2048h191l157 -233l158 233h190l-215 -350h-268zM657 -20q-244 0 -396 137.5t-173 357.5h238q11 -48 33.5 -89.5t61.5 -78.5t101.5 -58.5t143.5 -21.5q128 0 206.5 50.5t79.5 150.5q0 37 -13 69.5t-38.5 58t-56 47t-72.5 41t-81.5 35.5t-88.5 34q-15 5 -22 8
q-57 21 -93 35.5t-87.5 39t-84 46.5t-69.5 54.5t-58 67t-35 80t-14 97.5q0 126 74 222t193.5 144.5t261.5 48.5q477 0 561 -473h-246q-12 101 -91.5 175.5t-217.5 74.5q-106 0 -184 -49t-78 -133q0 -29 10.5 -54.5t36.5 -48.5t48.5 -39t68 -36.5t72 -31.5t81.5 -32
q177 -71 241 -105q186 -101 234 -248q19 -57 19 -124q0 -110 -45 -197.5t-123.5 -142.5t-180 -83.5t-217.5 -28.5z" />
    <glyph glyph-name="Scedilla.001" horiz-adv-x="1290" 
d="M729 909q177 -71 241 -105q186 -101 234 -248q19 -57 19 -124q0 -139 -70.5 -240t-184.5 -152t-259 -58l-60 -109q104 19 176 -35.5t72 -150.5q0 -92 -63.5 -155.5t-155.5 -63.5q-74 0 -143.5 41.5t-94.5 101.5l113 43q19 -28 55.5 -48t69.5 -20q41 0 68.5 29.5
t27.5 71.5q0 62 -52 82.5t-128 -11.5l-96 58l90 168q-215 20 -348 154t-152 337h238q11 -48 33.5 -89.5t61.5 -78.5t101.5 -58.5t143.5 -21.5q128 0 206.5 50.5t79.5 150.5q0 37 -13 69.5t-38.5 58t-56 47t-72.5 41t-81.5 35.5t-88.5 34q-15 5 -22 8q-57 21 -93 35.5
t-87.5 39t-84 46.5t-69.5 54.5t-58 67t-35 80t-14 97.5q0 126 74 222t193.5 144.5t261.5 48.5q477 0 561 -473h-246q-12 101 -91.5 175.5t-217.5 74.5q-106 0 -184 -49t-78 -133q0 -29 10.5 -54.5t36.5 -48.5t48.5 -39t68 -36.5t72 -31.5t81.5 -32z" />
    <glyph glyph-name="uni0218.001" horiz-adv-x="1290" 
d="M657 -20q-244 0 -396 137.5t-173 357.5h238q11 -48 33.5 -89.5t61.5 -78.5t101.5 -58.5t143.5 -21.5q128 0 206.5 50.5t79.5 150.5q0 37 -13 69.5t-38.5 58t-56 47t-72.5 41t-81.5 35.5t-88.5 34q-15 5 -22 8q-57 21 -93 35.5t-87.5 39t-84 46.5t-69.5 54.5t-58 67
t-35 80t-14 97.5q0 126 74 222t193.5 144.5t261.5 48.5q477 0 561 -473h-246q-12 101 -91.5 175.5t-217.5 74.5q-106 0 -184 -49t-78 -133q0 -29 10.5 -54.5t36.5 -48.5t48.5 -39t68 -36.5t72 -31.5t81.5 -32q177 -71 241 -105q186 -101 234 -248q19 -57 19 -124
q0 -110 -45 -197.5t-123.5 -142.5t-180 -83.5t-217.5 -28.5zM623 -442q-45 18 -73 56t-28 85q0 63 44 106t106 43q61 0 103 -43t42 -106q0 -54 -43 -136.5t-96 -150.5h-139z" />
    <glyph glyph-name="uni1E62.001" horiz-adv-x="1290" 
d="M657 -20q-244 0 -396 137.5t-173 357.5h238q11 -48 33.5 -89.5t61.5 -78.5t101.5 -58.5t143.5 -21.5q128 0 206.5 50.5t79.5 150.5q0 37 -13 69.5t-38.5 58t-56 47t-72.5 41t-81.5 35.5t-88.5 34q-15 5 -22 8q-57 21 -93 35.5t-87.5 39t-84 46.5t-69.5 54.5t-58 67
t-35 80t-14 97.5q0 126 74 222t193.5 144.5t261.5 48.5q477 0 561 -473h-246q-12 101 -91.5 175.5t-217.5 74.5q-106 0 -184 -49t-78 -133q0 -29 10.5 -54.5t36.5 -48.5t48.5 -39t68 -36.5t72 -31.5t81.5 -32q177 -71 241 -105q186 -101 234 -248q19 -57 19 -124
q0 -110 -45 -197.5t-123.5 -142.5t-180 -83.5t-217.5 -28.5zM678 -416q-63 0 -107.5 44.5t-44.5 107.5q0 62 44.5 106.5t107.5 44.5q62 0 106.5 -44.5t44.5 -106.5q0 -63 -44.5 -107.5t-106.5 -44.5z" />
    <glyph glyph-name="T.001" horiz-adv-x="1241" 
d="M1190 1305h-445v-1305h-262v1305h-446v231h1153v-231z" />
    <glyph glyph-name="Tbar.001" horiz-adv-x="1241" 
d="M1190 1305h-445v-461h76l144 -25l-88 -127h-132v-692h-262v707l-182 12l55 125h127v461h-446v231h1153v-231z" />
    <glyph glyph-name="Tcaron.001" horiz-adv-x="1241" 
d="M512 1698l-213 350h190l158 -233l158 233h190l-215 -350h-268zM1190 1305h-445v-1305h-262v1305h-446v231h1153v-231z" />
    <glyph glyph-name="uni0162.001" horiz-adv-x="1241" 
d="M745 0h-75l-64 -123q103 19 174.5 -35t71.5 -151q0 -92 -63 -155.5t-154 -63.5q-75 0 -144.5 42.5t-95.5 102.5l115 41q17 -28 53.5 -48t71.5 -20q41 0 68.5 29.5t27.5 71.5q0 62 -52.5 83t-127.5 -12l-96 58l94 180h-66v1305h-446v231h1153v-231h-445v-1305z" />
    <glyph glyph-name="uni021A.001" horiz-adv-x="1241" 
d="M1190 1305h-445v-1305h-262v1305h-446v231h1153v-231zM571 -428q-46 17 -73 56.5t-27 86.5q0 62 43.5 106t106.5 44q61 0 103 -44t42 -106q0 -55 -43.5 -138t-97.5 -150h-138z" />
    <glyph glyph-name="uni1E6C.001" horiz-adv-x="1241" 
d="M1190 1305h-445v-1305h-262v1305h-446v231h1153v-231zM614 -115q62 0 107 -44t45 -105q0 -63 -45 -107.5t-107 -44.5q-63 0 -107 44.5t-44 107.5q0 62 44 105.5t107 43.5z" />
    <glyph glyph-name="U.001" horiz-adv-x="1476" 
d="M729 -20q-126 0 -239.5 40.5t-195 109.5t-129.5 165t-48 203v1038h266v-991q0 -138 100.5 -235t245.5 -97q146 0 247 97t101 235v991h266v-1038q0 -142 -81 -261t-222.5 -188t-310.5 -69z" />
    <glyph glyph-name="Uacute.001" horiz-adv-x="1482" 
d="M829 2048h261l-236 -334h-199zM731 -20q-169 0 -310.5 69t-222.5 188t-81 261v1038h266v-991q0 -138 101.5 -235t246.5 -97t248.5 97t103.5 235v991h267v-1038q0 -142 -83 -261.5t-225.5 -188t-310.5 -68.5z" />
    <glyph glyph-name="uni01D3.001" horiz-adv-x="1476" 
d="M383 2048h190l158 -233l158 233h190l-215 -350h-268zM729 -20q-126 0 -239.5 40.5t-195 109.5t-129.5 165t-48 203v1038h266v-991q0 -138 100.5 -235t245.5 -97q146 0 247 97t101 235v991h266v-1038q0 -142 -81 -261t-222.5 -188t-310.5 -69z" />
    <glyph glyph-name="Ucircumflex.001" horiz-adv-x="1482" 
d="M616 2048h269l215 -350h-199l-149 235l-150 -235h-199zM731 -20q-169 0 -310.5 69t-222.5 188t-81 261v1038h266v-991q0 -138 101.5 -235t246.5 -97t248.5 97t103.5 235v991h267v-1038q0 -142 -83 -261.5t-225.5 -188t-310.5 -68.5z" />
    <glyph glyph-name="Udieresis.001" horiz-adv-x="1482" 
d="M539 1702q-62 0 -106 44t-44 107q0 61 44.5 105.5t105.5 44.5q63 0 107 -44t44 -106q0 -63 -44 -107t-107 -44zM965 1702q-62 0 -107 44t-45 107q0 61 45 105.5t107 44.5q61 0 105 -44t44 -106q0 -63 -43.5 -107t-105.5 -44zM731 -20q-169 0 -310.5 69t-222.5 188
t-81 261v1038h266v-991q0 -138 101.5 -235t246.5 -97t248.5 97t103.5 235v991h267v-1038q0 -142 -83 -261.5t-225.5 -188t-310.5 -68.5z" />
    <glyph glyph-name="uni1EE4.001" horiz-adv-x="1476" 
d="M729 -20q-126 0 -239.5 40.5t-195 109.5t-129.5 165t-48 203v1038h266v-991q0 -138 100.5 -235t245.5 -97q146 0 247 97t101 235v991h266v-1038q0 -142 -81 -261t-222.5 -188t-310.5 -69zM731 -416q-63 0 -107 44.5t-44 107.5q0 62 44 105.5t107 43.5q62 0 106 -44
t44 -105q0 -63 -44 -107.5t-106 -44.5z" />
    <glyph glyph-name="Ugrave.001" horiz-adv-x="1482" 
d="M403 2048h261l174 -334h-197zM731 -20q-169 0 -310.5 69t-222.5 188t-81 261v1038h266v-991q0 -138 101.5 -235t246.5 -97t248.5 97t103.5 235v991h267v-1038q0 -142 -83 -261.5t-225.5 -188t-310.5 -68.5z" />
    <glyph glyph-name="Uhungarumlaut.001" horiz-adv-x="1525" 
d="M752 2048h243l-352 -362h-182zM1151 2048h244l-353 -362h-182zM731 -20q-169 0 -310.5 69t-222.5 188t-81 261v1038h266v-991q0 -138 101.5 -235t246.5 -97t248.5 97t103.5 235v991h267v-1038q0 -142 -83 -261.5t-225.5 -188t-310.5 -68.5z" />
    <glyph glyph-name="Umacron.001" horiz-adv-x="1482" 
d="M434 1884h635v-164h-635v164zM731 -20q-169 0 -310.5 69t-222.5 188t-81 261v1038h266v-991q0 -138 101.5 -235t246.5 -97t248.5 97t103.5 235v991h267v-1038q0 -142 -83 -261.5t-225.5 -188t-310.5 -68.5z" />
    <glyph glyph-name="Uogonek.001" horiz-adv-x="1482" 
d="M1083 1536h267v-1038q0 -194 -149.5 -338.5t-373.5 -173.5h4q-84 -36 -137 -111t-53 -149q0 -55 32.5 -88t90.5 -33q54 0 105.5 28.5t82.5 73.5l82 -115q-126 -126 -313 -116q-114 6 -184 64t-70 165q0 169 188 279q-231 23 -384.5 168.5t-153.5 345.5v1038h266v-991
q0 -138 101.5 -235t246.5 -97t248.5 97t103.5 235v991z" />
    <glyph glyph-name="Uring.001" horiz-adv-x="1482" 
d="M752 1647q-95 0 -163.5 68t-68.5 163q0 92 68.5 159.5t163.5 67.5q93 0 160 -67t67 -160q0 -95 -66.5 -163t-160.5 -68zM752 1757q51 0 84.5 33.5t33.5 87.5q0 50 -34 85.5t-84 35.5t-84.5 -35.5t-34.5 -85.5q0 -54 33.5 -87.5t85.5 -33.5zM731 -20q-169 0 -310.5 69
t-222.5 188t-81 261v1038h266v-991q0 -138 101.5 -235t246.5 -97t248.5 97t103.5 235v991h267v-1038q0 -142 -83 -261.5t-225.5 -188t-310.5 -68.5z" />
    <glyph glyph-name="Utilde.001" horiz-adv-x="1482" 
d="M889 1688q-122 0 -203 116q-26 45 -68 45q-40 0 -55.5 -41t2.5 -104h-151q-26 127 33 211t165 84q126 0 203 -117q23 -45 68 -45q40 0 55.5 40t-2.5 103h151q26 -126 -30.5 -209t-167.5 -83zM731 -20q-169 0 -310.5 69t-222.5 188t-81 261v1038h266v-991
q0 -138 101.5 -235t246.5 -97t248.5 97t103.5 235v991h267v-1038q0 -142 -83 -261.5t-225.5 -188t-310.5 -68.5z" />
    <glyph glyph-name="V.001" horiz-adv-x="1533" 
d="M1532 1536l-617 -1536h-299l-616 1536h299l467 -1227l467 1227h299z" />
    <glyph glyph-name="W.001" horiz-adv-x="2308" 
d="M2253 1536l-441 -1536h-292l-367 1083l-338 -1083h-293l-473 1536h289l338 -1241l346 1241h264l373 -1243l307 1243h287z" />
    <glyph glyph-name="Wacute.001" horiz-adv-x="2308" 
d="M1270 1714h-197l174 334h260zM2253 1536l-441 -1536h-292l-367 1083l-338 -1083h-293l-473 1536h289l338 -1241l346 1241h264l373 -1243l307 1243h287z" />
    <glyph glyph-name="Wcircumflex.001" horiz-adv-x="2308" 
d="M1018 1698h-199l213 350h268l216 -350h-199l-150 235zM2253 1536l-441 -1536h-292l-367 1083l-338 -1083h-293l-473 1536h289l338 -1241l346 1241h264l373 -1243l307 1243h287z" />
    <glyph glyph-name="Wdieresis.001" horiz-adv-x="2308" 
d="M954 1702q-62 0 -106.5 44t-44.5 107q0 61 44.5 105.5t106.5 44.5t107 -44.5t45 -105.5q0 -63 -45 -107t-107 -44zM1378 1702q-60 0 -104.5 44t-44.5 107q0 61 44.5 105.5t104.5 44.5q63 0 107.5 -44t44.5 -106q0 -63 -44.5 -107t-107.5 -44zM2253 1536l-441 -1536h-292
l-367 1083l-338 -1083h-293l-473 1536h289l338 -1241l346 1241h264l373 -1243l307 1243h287z" />
    <glyph glyph-name="Wgrave.001" horiz-adv-x="2308" 
d="M1059 1714l-238 334h258l176 -334h-196zM2253 1536l-441 -1536h-292l-367 1083l-338 -1083h-293l-473 1536h289l338 -1241l346 1241h264l373 -1243l307 1243h287z" />
    <glyph glyph-name="X.001" horiz-adv-x="1372" 
d="M1053 0l-369 567l-367 -567h-303l527 786l-504 750h303l344 -530l348 530h301l-506 -750l531 -786h-305z" />
    <glyph glyph-name="Y.001" horiz-adv-x="1368" 
d="M817 727v-727h-264v723l-539 813h297l373 -586l377 586h293z" />
    <glyph glyph-name="Yacute.001" horiz-adv-x="1368" 
d="M788 1714h-196l174 334h260zM817 727v-727h-264v723l-539 813h297l373 -586l377 586h293z" />
    <glyph glyph-name="Ycircumflex.001" horiz-adv-x="1368" 
d="M537 1698h-199l213 350h268l215 -350h-198l-150 235zM817 727v-727h-264v723l-539 813h297l373 -586l377 586h293z" />
    <glyph glyph-name="Ydieresis.001" horiz-adv-x="1368" 
d="M473 1702q-62 0 -105.5 44t-43.5 107q0 62 44 106t105 44q63 0 107.5 -44t44.5 -106q0 -63 -44.5 -107t-107.5 -44zM899 1702q-62 0 -106.5 44t-44.5 107q0 61 44.5 105.5t106.5 44.5q61 0 105.5 -44.5t44.5 -105.5q0 -63 -44 -107t-106 -44zM817 727v-727h-264v723
l-539 813h297l373 -586l377 586h293z" />
    <glyph glyph-name="uni1EF4.001" horiz-adv-x="1368" 
d="M553 723l-539 813h297l373 -586l377 586h293l-537 -809v-727h-264v723zM688 -115q62 0 106 -44t44 -105q0 -63 -44 -107.5t-106 -44.5q-63 0 -107 44.5t-44 107.5q0 62 44 105.5t107 43.5z" />
    <glyph glyph-name="Ygrave.001" horiz-adv-x="1368" 
d="M578 1714l-238 334h260l174 -334h-196zM817 727v-727h-264v723l-539 813h297l373 -586l377 586h293z" />
    <glyph glyph-name="uni1EF8.001" horiz-adv-x="1368" 
d="M348 1704q-24 127 35 211t164 84q129 0 203 -117q26 -45 69 -45q40 0 55 40t-2 103h152q26 -125 -32 -208.5t-169 -83.5q-119 0 -200 116q-26 45 -68 45q-40 0 -55.5 -41t2.5 -104h-154zM817 727v-727h-264v723l-539 813h297l373 -586l377 586h293z" />
    <glyph glyph-name="Z.001" horiz-adv-x="1320" 
d="M1243 233v-233h-1169v141l798 1164h-778v231h1137v-141l-801 -1162h813z" />
    <glyph glyph-name="Zacute.001" horiz-adv-x="1320" 
d="M782 1714h-196l174 334h260zM1243 233v-233h-1169v141l798 1164h-778v231h1137v-141l-801 -1162h813z" />
    <glyph glyph-name="Zcaron.001" horiz-adv-x="1320" 
d="M545 1698l-213 350h190l158 -233l158 233h190l-215 -350h-268zM1243 233v-233h-1169v141l798 1164h-778v231h1137v-141l-801 -1162h813z" />
    <glyph glyph-name="Zdotaccent.001" horiz-adv-x="1320" 
d="M682 1702q-63 0 -107.5 44t-44.5 107q0 62 44.5 106t107.5 44q62 0 107 -44.5t45 -105.5q0 -63 -45 -107t-107 -44zM1243 233v-233h-1169v141l798 1164h-778v231h1137v-141l-801 -1162h813z" />
    <glyph glyph-name="uni1E92.001" horiz-adv-x="1320" 
d="M1243 233v-233h-1169v141l798 1164h-778v231h1137v-141l-801 -1162h813zM655 -115q63 0 107.5 -43.5t44.5 -105.5q0 -63 -44.5 -107.5t-107.5 -44.5q-62 0 -105.5 44.5t-43.5 107.5q0 62 44 105.5t105 43.5z" />
    <glyph glyph-name="a.001" horiz-adv-x="1001" 
d="M379 -18q-142 8 -229 88.5t-87 218.5t119.5 222.5t311.5 84.5h215v63q0 97 -46.5 141t-138.5 44q-202 0 -221 -166h-209q5 75 32 137.5t77 114t134.5 81t194.5 29.5q193 0 305.5 -95.5t112.5 -289.5v-655h-211l-16 115q-102 -143 -344 -133zM457 172q74 0 142.5 34
t109.5 91v135h-168q-108 0 -168 -35.5t-60 -95.5q0 -59 40.5 -94t103.5 -35z" />
    <glyph glyph-name="aacute.001" horiz-adv-x="1159" 
d="M926 1536l-236 -334h-198l176 334h258zM1018 348q0 -141 88 -141v-207h-76q-35 2 -56.5 4t-53 9.5t-52.5 20t-42 36.5t-35 57q-47 -63 -145.5 -102t-213.5 -39q-165 0 -267 89t-102 244q0 151 126 245t335 112l240 20v25q0 201 -205 201q-97 0 -161.5 -47t-73.5 -144
h-232q6 82 35.5 152t84 128.5t146 92t209.5 33.5q210 0 330.5 -106t120.5 -314v-369zM764 340v174l-189 -20q-118 -13 -179.5 -54.5t-61.5 -107.5q0 -63 47 -101t117 -38q85 0 156.5 42.5t109.5 104.5z" />
    <glyph glyph-name="abreve.001" horiz-adv-x="1159" 
d="M510 1147q-161 0 -258.5 89t-97.5 251h149q0 -77 58 -134t149 -57q92 0 151.5 57t59.5 134h147q0 -162 -98 -251t-260 -89zM432 -14q-165 0 -267 89t-102 244q0 151 126 245t335 112l240 20v25q0 201 -205 201q-97 0 -161.5 -47t-73.5 -144h-232q6 82 35.5 152t84 128.5
t146 92t209.5 33.5q210 0 330.5 -106t120.5 -314v-369q0 -141 88 -141v-207h-76q-35 2 -56.5 4t-53 9.5t-52.5 20t-42 36.5t-35 57q-47 -63 -145.5 -102t-213.5 -39zM498 193q85 0 156.5 42.5t109.5 104.5v174l-189 -20q-118 -13 -179.5 -54.5t-61.5 -107.5q0 -63 47 -101
t117 -38z" />
    <glyph glyph-name="uni01CE.001" horiz-adv-x="1159" 
d="M397 1186l-213 350h191l157 -233l158 233h191l-215 -350h-269zM432 -14q-165 0 -267 89t-102 244q0 151 126 245t335 112l240 20v25q0 201 -205 201q-97 0 -161.5 -47t-73.5 -144h-232q6 82 35.5 152t84 128.5t146 92t209.5 33.5q210 0 330.5 -106t120.5 -314v-369
q0 -141 88 -141v-207h-76q-35 2 -56.5 4t-53 9.5t-52.5 20t-42 36.5t-35 57q-47 -63 -145.5 -102t-213.5 -39zM498 193q85 0 156.5 42.5t109.5 104.5v174l-189 -20q-118 -13 -179.5 -54.5t-61.5 -107.5q0 -63 47 -101t117 -38z" />
    <glyph glyph-name="acircumflex.001" horiz-adv-x="1159" 
d="M516 1421l-149 -235h-199l213 350h268l215 -350h-198zM1018 348q0 -141 88 -141v-207h-76q-35 2 -56.5 4t-53 9.5t-52.5 20t-42 36.5t-35 57q-47 -63 -145.5 -102t-213.5 -39q-165 0 -267 89t-102 244q0 151 126 245t335 112l240 20v25q0 201 -205 201q-97 0 -161.5 -47
t-73.5 -144h-232q6 82 35.5 152t84 128.5t146 92t209.5 33.5q210 0 330.5 -106t120.5 -314v-369zM764 340v174l-189 -20q-118 -13 -179.5 -54.5t-61.5 -107.5q0 -63 47 -101t117 -38q85 0 156.5 42.5t109.5 104.5z" />
    <glyph glyph-name="adieresis.001" horiz-adv-x="1159" 
d="M299 1190q-62 0 -105.5 44t-43.5 107q0 62 44 106t105 44q63 0 107.5 -44t44.5 -106q0 -63 -44.5 -107t-107.5 -44zM725 1190q-62 0 -107 44t-45 107q0 61 45 105.5t107 44.5q61 0 105 -44t44 -106q0 -63 -43.5 -107t-105.5 -44zM432 -14q-165 0 -267 89t-102 244
q0 151 126 245t335 112l240 20v25q0 201 -205 201q-97 0 -161.5 -47t-73.5 -144h-232q6 82 35.5 152t84 128.5t146 92t209.5 33.5q210 0 330.5 -106t120.5 -314v-369q0 -141 88 -141v-207h-76q-35 2 -56.5 4t-53 9.5t-52.5 20t-42 36.5t-35 57q-47 -63 -145.5 -102
t-213.5 -39zM498 193q85 0 156.5 42.5t109.5 104.5v174l-189 -20q-118 -13 -179.5 -54.5t-61.5 -107.5q0 -63 47 -101t117 -38z" />
    <glyph glyph-name="uni1EA1.001" horiz-adv-x="1159" 
d="M432 -14q-165 0 -267 89t-102 244q0 151 126 245t335 112l240 20v25q0 201 -205 201q-97 0 -161.5 -47t-73.5 -144h-232q6 82 35.5 152t84 128.5t146 92t209.5 33.5q210 0 330.5 -106t120.5 -314v-369q0 -141 88 -141v-207h-76q-35 2 -56.5 4t-53 9.5t-52.5 20t-42 36.5
t-35 57q-47 -63 -145.5 -102t-213.5 -39zM498 193q85 0 156.5 42.5t109.5 104.5v174l-189 -20q-118 -13 -179.5 -54.5t-61.5 -107.5q0 -63 47 -101t117 -38zM551 -115q61 0 105 -43.5t44 -105.5q0 -63 -43.5 -107.5t-105.5 -44.5q-63 0 -107.5 44.5t-44.5 107.5
q0 62 44.5 105.5t107.5 43.5z" />
    <glyph glyph-name="agrave.001" horiz-adv-x="1159" 
d="M676 1202h-197l-237 334h258zM1018 348q0 -141 88 -141v-207h-76q-35 2 -56.5 4t-53 9.5t-52.5 20t-42 36.5t-35 57q-47 -63 -145.5 -102t-213.5 -39q-165 0 -267 89t-102 244q0 151 126 245t335 112l240 20v25q0 201 -205 201q-97 0 -161.5 -47t-73.5 -144h-232
q6 82 35.5 152t84 128.5t146 92t209.5 33.5q210 0 330.5 -106t120.5 -314v-369zM764 340v174l-189 -20q-118 -13 -179.5 -54.5t-61.5 -107.5q0 -63 47 -101t117 -38q85 0 156.5 42.5t109.5 104.5z" />
    <glyph glyph-name="amacron.001" horiz-adv-x="1159" 
d="M815 1208h-635v164h635v-164zM432 -14q-165 0 -267 89t-102 244q0 151 126 245t335 112l240 20v25q0 201 -205 201q-97 0 -161.5 -47t-73.5 -144h-232q6 82 35.5 152t84 128.5t146 92t209.5 33.5q210 0 330.5 -106t120.5 -314v-369q0 -141 88 -141v-207h-76
q-35 2 -56.5 4t-53 9.5t-52.5 20t-42 36.5t-35 57q-47 -63 -145.5 -102t-213.5 -39zM498 193q85 0 156.5 42.5t109.5 104.5v174l-189 -20q-118 -13 -179.5 -54.5t-61.5 -107.5q0 -63 47 -101t117 -38z" />
    <glyph glyph-name="aogonek.001" horiz-adv-x="1159" 
d="M432 -14q-165 0 -267 89t-102 244q0 151 126 245t335 112l240 20v25q0 201 -205 201q-97 0 -161.5 -47t-73.5 -144h-232q6 82 35.5 152t84 128.5t146 92t209.5 33.5q210 0 330.5 -106t120.5 -314v-369q0 -141 88 -141v-207h-76q-35 2 -56.5 4t-53 9.5t-52.5 20t-42 36.5
t-35 57q-47 -63 -145.5 -102t-213.5 -39zM498 193q85 0 156.5 42.5t109.5 104.5v174l-189 -20q-118 -13 -179.5 -54.5t-61.5 -107.5q0 -63 47 -101t117 -38zM737 -530q-113 6 -183.5 63.5t-70.5 163.5q0 194 246 303h211q-129 -28 -206 -108t-77 -173q0 -55 33 -87.5
t92 -32.5q54 0 105.5 28.5t81.5 73.5l82 -115q-62 -63 -144.5 -92.5t-169.5 -23.5z" />
    <glyph glyph-name="aring.001" horiz-adv-x="1159" 
d="M1018 348q0 -141 88 -141v-207h-76q-35 2 -56.5 4t-53 9.5t-52.5 20t-42 36.5t-35 57q-47 -63 -145.5 -102t-213.5 -39q-165 0 -267 89t-102 244q0 151 126 245t335 112l240 20v25q0 201 -205 201q-97 0 -161.5 -47t-73.5 -144h-232q5 61 22 116t50.5 105.5t80 88.5
t115 63t152.5 31q-94 1 -159.5 69t-65.5 162q0 93 67 160t162 67q93 0 160 -67t67 -160q0 -87 -57.5 -152.5t-142.5 -76.5h24q210 0 330.5 -106t120.5 -314v-369zM399 1366q0 -53 33.5 -87t83.5 -34q52 0 86.5 34t34.5 87q0 50 -35 85.5t-86 35.5q-49 0 -83 -35.5t-34 -85.5
zM764 340v174l-189 -20q-118 -13 -179.5 -54.5t-61.5 -107.5q0 -63 47 -101t117 -38q85 0 156.5 42.5t109.5 104.5z" />
    <glyph glyph-name="atilde.001" horiz-adv-x="1159" 
d="M186 1192q-24 127 35 211t164 84q129 0 203 -117q26 -45 69 -45q40 0 55.5 40t-1.5 103h151q26 -125 -31.5 -208.5t-168.5 -83.5q-120 0 -201 116q-26 45 -68 45q-40 0 -55.5 -41t2.5 -104h-154zM432 -14q-165 0 -267 89t-102 244q0 151 126 245t335 112l240 20v25
q0 201 -205 201q-97 0 -161.5 -47t-73.5 -144h-232q6 82 35.5 152t84 128.5t146 92t209.5 33.5q210 0 330.5 -106t120.5 -314v-369q0 -141 88 -141v-207h-76q-35 2 -56.5 4t-53 9.5t-52.5 20t-42 36.5t-35 57q-47 -63 -145.5 -102t-213.5 -39zM498 193q85 0 156.5 42.5
t109.5 104.5v174l-189 -20q-118 -13 -179.5 -54.5t-61.5 -107.5q0 -63 47 -101t117 -38z" />
    <glyph glyph-name="ae.001" horiz-adv-x="2021" 
d="M1894 565q0 -39 -6 -86h-792q13 -132 91.5 -206t196.5 -74q84 0 161 38t110 115h225q-29 -161 -162.5 -265.5t-345.5 -104.5q-209 0 -354 129v-111h-178l-49 131q-40 -63 -141.5 -104t-217.5 -41q-165 0 -267 89t-102 244q0 146 125.5 240.5t335.5 116.5l240 24v21
q0 203 -205 203q-97 0 -161.5 -47.5t-73.5 -145.5h-230q6 82 34.5 152t82.5 128.5t145.5 92t210.5 33.5q278 0 387 -176q73 87 180 135t240 47q240 0 380 -157.5t140 -420.5zM1102 672h526q-15 119 -80 184.5t-176 65.5q-114 0 -181.5 -66.5t-88.5 -183.5zM764 340v180
l-189 -24q-118 -15 -179.5 -58t-61.5 -108q0 -64 47 -102t117 -38q85 0 157 43t109 107z" />
    <glyph glyph-name="b.001" horiz-adv-x="1232" 
d="M690 1044q208 0 341.5 -152.5t133.5 -379.5q0 -148 -59.5 -269t-168.5 -192t-247 -71q-192 0 -317 147l-11 -129l-229 2v1536h254v-625q117 133 303 133zM641 207q121 0 195.5 87.5t74.5 217.5q0 132 -74.5 219.5t-195.5 87.5q-89 0 -158 -56t-96 -147v-208
q27 -90 95.5 -145.5t158.5 -55.5z" />
    <glyph glyph-name="uni1E05.001" horiz-adv-x="1232" 
d="M709 1137q150 0 268.5 -75.5t184 -206t65.5 -292.5q0 -161 -65.5 -291.5t-184 -206t-268.5 -75.5q-218 0 -347 153l-18 -143l-242 2v1536h277v-539q126 138 330 138zM657 229q129 0 211 96.5t82 237.5q0 142 -81.5 239t-211.5 97q-98 0 -173 -61t-105 -160v-227
q30 -100 105 -161t173 -61zM623 -115q61 0 105 -43.5t44 -105.5q0 -63 -43.5 -107.5t-105.5 -44.5q-63 0 -107.5 44.5t-44.5 107.5q0 62 44.5 105.5t107.5 43.5z" />
    <glyph glyph-name="c.001" horiz-adv-x="1085" 
d="M539 -20q-223 0 -358.5 149.5t-135.5 382.5t135.5 382.5t358.5 149.5q103 0 187 -26.5t138 -68t92 -97t56 -108.5t24 -107h-227q-11 79 -81 134.5t-167 55.5q-126 0 -195 -85.5t-69 -229.5q0 -143 69 -229t195 -86q95 0 164.5 58t83.5 136h225q-8 -57 -25.5 -110
t-55.5 -109.5t-90.5 -97.5t-136.5 -67.5t-187 -26.5z" />
    <glyph glyph-name="cacute.001" horiz-adv-x="1173" 
d="M629 1536h260l-238 -334h-196zM584 -10q-243 0 -391 161t-148 414q0 254 147.5 413t391.5 159q112 0 203.5 -28t150 -72.5t100 -103.5t61 -116.5t25.5 -116.5h-247q-11 86 -88 146.5t-183 60.5q-137 0 -212 -93t-75 -249q0 -155 76.5 -249.5t212.5 -94.5q102 0 177.5 64
t91.5 151h245q-7 -63 -26.5 -121t-60.5 -119t-99 -105t-148.5 -72.5t-203.5 -28.5z" />
    <glyph glyph-name="ccaron.001" horiz-adv-x="1173" 
d="M231 1536h191l158 -233l157 233h191l-215 -350h-269zM584 -10q-243 0 -391 161t-148 414q0 254 147.5 413t391.5 159q112 0 203.5 -28t150 -72.5t100 -103.5t61 -116.5t25.5 -116.5h-247q-11 86 -88 146.5t-183 60.5q-137 0 -212 -93t-75 -249q0 -155 76.5 -249.5
t212.5 -94.5q102 0 177.5 64t91.5 151h245q-7 -63 -26.5 -121t-60.5 -119t-99 -105t-148.5 -72.5t-203.5 -28.5z" />
    <glyph glyph-name="ccedilla.001" horiz-adv-x="1173" 
d="M608 221q102 0 177.5 64t91.5 151h245q-7 -62 -26.5 -119.5t-59.5 -118t-97 -105t-146.5 -73.5t-200.5 -30l-55 -109q102 20 173.5 -34t71.5 -150q0 -92 -63.5 -155.5t-155.5 -63.5q-73 0 -142 41.5t-95 101.5l112 43q19 -29 55 -48t70 -19q41 0 70 29.5t29 70.5
q0 62 -53 82.5t-130 -12.5l-94 57l90 172l2 2q-199 35 -315.5 189t-116.5 378q0 254 147.5 413t391.5 159q112 0 203.5 -28t150 -72.5t100 -103.5t61 -116.5t25.5 -116.5h-247q-11 86 -88 146.5t-183 60.5q-137 0 -212 -93t-75 -249q0 -155 76.5 -249.5t212.5 -94.5z" />
    <glyph glyph-name="cdotaccent.001" horiz-adv-x="1173" 
d="M594 1190q-62 0 -106 44t-44 107q0 61 44 105.5t106 44.5q63 0 107 -44t44 -106q0 -63 -44 -107t-107 -44zM584 -10q-243 0 -391 161t-148 414q0 254 147.5 413t391.5 159q112 0 203.5 -28t150 -72.5t100 -103.5t61 -116.5t25.5 -116.5h-247q-11 86 -88 146.5t-183 60.5
q-137 0 -212 -93t-75 -249q0 -155 76.5 -249.5t212.5 -94.5q102 0 177.5 64t91.5 151h245q-7 -63 -26.5 -121t-60.5 -119t-99 -105t-148.5 -72.5t-203.5 -28.5z" />
    <glyph glyph-name="d.001" horiz-adv-x="1232" 
d="M1100 1536v-1536l-230 -2l-14 127q-122 -145 -311 -145q-209 0 -342 153t-133 379q0 227 133 379.5t342 152.5q184 0 301 -133v625h254zM594 207q88 0 156 55t96 146v210q-28 90 -96 145.5t-156 55.5q-121 0 -195.5 -87.5t-74.5 -219.5q0 -130 74.5 -217.5t195.5 -87.5z
" />
    <glyph glyph-name="eth.001" horiz-adv-x="1253" 
d="M801 1409q183 -140 289 -376.5t106 -520.5q0 -146 -75 -268.5t-204.5 -193t-283.5 -70.5q-155 0 -284.5 70.5t-204 193t-74.5 268.5q0 147 74.5 269.5t204 192.5t284.5 70q119 0 221 -51q-65 161 -182 248l-99 -123l-79 62l90 112q-121 61 -269 64l52 205q185 0 350 -97
l90 113l80 -61zM633 207q126 0 215.5 89t89.5 216q0 128 -89 217.5t-216 89.5q-128 0 -217.5 -89t-89.5 -218q0 -127 89.5 -216t217.5 -89z" />
    <glyph glyph-name="dcaron.001" horiz-adv-x="1603" 
d="M1391 1249q-45 17 -73 56t-28 86q0 63 44 106t106 43q61 0 103 -43t42 -106q0 -54 -43 -136.5t-96 -150.5h-139zM1180 1534v-1532l-242 -2l-23 133q-125 -143 -342 -143q-227 0 -371.5 160t-144.5 405q0 162 65 294.5t184 210t269 77.5q194 0 328 -144v541h277zM627 223
q96 0 170.5 60t105.5 157v232q-32 98 -106 158.5t-170 60.5q-131 0 -212 -96t-81 -240q0 -141 81 -236.5t212 -95.5z" />
    <glyph glyph-name="dcroat.001" horiz-adv-x="1232" 
d="M1243 1188h-143v-1188l-230 -2l-14 127q-122 -145 -311 -145q-209 0 -342 153t-133 379q0 227 133 379.5t342 152.5q184 0 301 -133v277h-268v151h268v197h254v-197h143v-151zM594 207q88 0 156 55t96 146v210q-28 90 -96 145.5t-156 55.5q-121 0 -195.5 -87.5
t-74.5 -219.5q0 -130 74.5 -217.5t195.5 -87.5z" />
    <glyph glyph-name="e.001" horiz-adv-x="1091" 
d="M1040 516q0 -36 -6 -80h-725q12 -122 84 -190t180 -68q76 0 146.5 36t101.5 108h207q-28 -149 -150 -245.5t-317 -96.5q-224 0 -366 151.5t-142 380.5q0 152 60 272.5t177 191.5t273 71q220 0 348.5 -145t128.5 -386zM561 842q-103 0 -165.5 -61t-82.5 -167h484
q-14 108 -74 168t-162 60z" />
    <glyph glyph-name="eacute.001" horiz-adv-x="1177" 
d="M920 1540l-238 -332h-197l174 332h261zM1110 567q0 -39 -6 -88h-787q10 -128 89 -202t188 -74q90 0 161.5 37.5t106.5 113.5h225q-12 -71 -47.5 -134t-94.5 -115.5t-150.5 -83.5t-202.5 -31q-243 0 -393 162t-150 411q0 253 144.5 413.5t398.5 160.5q240 0 379 -154.5
t139 -415.5zM324 674h520q-15 117 -79 181.5t-175 64.5q-113 0 -179.5 -65.5t-86.5 -180.5z" />
    <glyph glyph-name="ecaron.001" horiz-adv-x="1177" 
d="M444 1190l-213 350h191l158 -233l157 233h191l-215 -350h-269zM1110 567q0 -39 -6 -88h-787q10 -128 89 -202t188 -74q90 0 161.5 37.5t106.5 113.5h225q-12 -71 -47.5 -134t-94.5 -115.5t-150.5 -83.5t-202.5 -31q-243 0 -393 162t-150 411q0 253 144.5 413.5
t398.5 160.5q240 0 379 -154.5t139 -415.5zM590 920q-113 0 -179.5 -65.5t-86.5 -180.5h520q-15 117 -79 181.5t-175 64.5z" />
    <glyph glyph-name="uni0229.001" horiz-adv-x="1177" 
d="M1110 567q0 -39 -6 -88h-787q10 -128 89 -202t188 -74q90 0 161.5 37.5t106.5 113.5h225q-24 -142 -137 -245.5t-307 -116.5v-10l-61 -111q103 19 175 -36t72 -150q0 -92 -63.5 -156t-155.5 -64q-74 0 -143 42t-94 102l112 43q19 -28 55.5 -48t69.5 -20q41 0 69 29.5
t28 71.5q0 62 -53 82.5t-128 -11.5l-96 58l90 170q0 2 -1 5t-1 5q-214 26 -341.5 183t-127.5 386q0 253 144.5 413.5t398.5 160.5q240 0 379 -154.5t139 -415.5zM324 674h520q-15 117 -79 181.5t-175 64.5q-113 0 -179.5 -65.5t-86.5 -180.5z" />
    <glyph glyph-name="ecircumflex.001" horiz-adv-x="1177" 
d="M430 1190h-199l213 350h269l215 -350h-199l-149 237zM1110 567q0 -39 -6 -88h-787q10 -128 89 -202t188 -74q90 0 161.5 37.5t106.5 113.5h225q-12 -71 -47.5 -134t-94.5 -115.5t-150.5 -83.5t-202.5 -31q-243 0 -393 162t-150 411q0 253 144.5 413.5t398.5 160.5
q240 0 379 -154.5t139 -415.5zM590 920q-113 0 -179.5 -65.5t-86.5 -180.5h520q-15 117 -79 181.5t-175 64.5z" />
    <glyph glyph-name="edieresis.001" horiz-adv-x="1177" 
d="M367 1194q-62 0 -106 44.5t-44 107.5q0 62 44.5 106.5t105.5 44.5q63 0 107 -44.5t44 -106.5q0 -63 -44 -107.5t-107 -44.5zM793 1194q-62 0 -107 44.5t-45 107.5q0 61 45 106t107 45q61 0 105 -44.5t44 -106.5q0 -63 -43.5 -107.5t-105.5 -44.5zM1110 567q0 -39 -6 -88
h-787q10 -128 89 -202t188 -74q90 0 161.5 37.5t106.5 113.5h225q-12 -71 -47.5 -134t-94.5 -115.5t-150.5 -83.5t-202.5 -31q-243 0 -393 162t-150 411q0 253 144.5 413.5t398.5 160.5q240 0 379 -154.5t139 -415.5zM590 920q-113 0 -179.5 -65.5t-86.5 -180.5h520
q-15 117 -79 181.5t-175 64.5z" />
    <glyph glyph-name="edotaccent.001" horiz-adv-x="1177" 
d="M582 1194q-63 0 -107.5 44.5t-44.5 107.5q0 62 44.5 106.5t107.5 44.5q62 0 106.5 -44.5t44.5 -106.5q0 -63 -44.5 -107.5t-106.5 -44.5zM1110 567q0 -39 -6 -88h-787q10 -128 89 -202t188 -74q90 0 161.5 37.5t106.5 113.5h225q-12 -71 -47.5 -134t-94.5 -115.5
t-150.5 -83.5t-202.5 -31q-243 0 -393 162t-150 411q0 253 144.5 413.5t398.5 160.5q240 0 379 -154.5t139 -415.5zM590 920q-113 0 -179.5 -65.5t-86.5 -180.5h520q-15 117 -79 181.5t-175 64.5z" />
    <glyph glyph-name="uni1EB9.001" horiz-adv-x="1177" 
d="M1110 567q0 -39 -6 -88h-787q10 -128 89 -202t188 -74q90 0 161.5 37.5t106.5 113.5h225q-12 -71 -47.5 -134t-94.5 -115.5t-150.5 -83.5t-202.5 -31q-243 0 -393 162t-150 411q0 253 144.5 413.5t398.5 160.5q240 0 379 -154.5t139 -415.5zM590 920q-113 0 -179.5 -65.5
t-86.5 -180.5h520q-15 117 -79 181.5t-175 64.5zM590 -115q63 0 107 -43.5t44 -105.5q0 -63 -44 -107.5t-107 -44.5q-62 0 -106 44.5t-44 107.5q0 61 44 105t106 44z" />
    <glyph glyph-name="egrave.001" horiz-adv-x="1177" 
d="M471 1208l-238 332h261l174 -332h-197zM1110 567q0 -39 -6 -88h-787q10 -128 89 -202t188 -74q90 0 161.5 37.5t106.5 113.5h225q-12 -71 -47.5 -134t-94.5 -115.5t-150.5 -83.5t-202.5 -31q-243 0 -393 162t-150 411q0 253 144.5 413.5t398.5 160.5q240 0 379 -154.5
t139 -415.5zM590 920q-113 0 -179.5 -65.5t-86.5 -180.5h520q-15 117 -79 181.5t-175 64.5z" />
    <glyph glyph-name="emacron.001" horiz-adv-x="1177" 
d="M899 1212h-635v166h635v-166zM1110 567q0 -39 -6 -88h-787q10 -128 89 -202t188 -74q90 0 161.5 37.5t106.5 113.5h225q-12 -71 -47.5 -134t-94.5 -115.5t-150.5 -83.5t-202.5 -31q-243 0 -393 162t-150 411q0 253 144.5 413.5t398.5 160.5q240 0 379 -154.5t139 -415.5z
M590 920q-113 0 -179.5 -65.5t-86.5 -180.5h520q-15 117 -79 181.5t-175 64.5z" />
    <glyph glyph-name="eogonek.001" horiz-adv-x="1177" 
d="M1110 567q0 -39 -6 -88h-787q10 -128 89 -202t188 -74q90 0 161.5 37.5t106.5 113.5h225q-10 -63 -39.5 -120t-77.5 -107t-121 -84.5t-163 -46.5l-6 -8q-55 -74 -55 -150q0 -55 33.5 -88t91.5 -33q54 0 105 29t83 74l82 -115q-127 -127 -313 -117q-114 6 -184 64t-70 166
q0 93 57 168v10q-209 28 -335 184.5t-126 382.5q0 253 144.5 413.5t398.5 160.5q240 0 379 -154.5t139 -415.5zM324 674h520q-15 117 -79 181.5t-175 64.5q-113 0 -179.5 -65.5t-86.5 -180.5z" />
    <glyph glyph-name="uni1EBD.001" horiz-adv-x="1177" 
d="M242 1194q-24 128 34.5 211.5t163.5 83.5q130 0 203 -115q26 -47 70 -47q40 0 55 40t-2 103h152q26 -125 -32 -208.5t-169 -83.5q-120 0 -201 116q-26 45 -67 45q-40 0 -56 -40.5t2 -104.5h-153zM1110 567q0 -39 -6 -88h-787q10 -128 89 -202t188 -74q90 0 161.5 37.5
t106.5 113.5h225q-12 -71 -47.5 -134t-94.5 -115.5t-150.5 -83.5t-202.5 -31q-243 0 -393 162t-150 411q0 253 144.5 413.5t398.5 160.5q240 0 379 -154.5t139 -415.5zM590 920q-113 0 -179.5 -65.5t-86.5 -180.5h520q-15 117 -79 181.5t-175 64.5z" />
    <glyph glyph-name="f.001" horiz-adv-x="786" 
d="M231 0v829h-172v195h172v166q0 151 106 258.5t255 107.5q140 0 219 -59v-168q-94 52 -190 27q-134 -34 -134 -182v-150h254v-195h-254v-829h-256z" />
    <glyph glyph-name="g.001" horiz-adv-x="1234" 
d="M1102 1024v-1012q0 -241 -140 -382.5t-378 -141.5q-107 0 -194.5 26.5t-142.5 67t-93.5 92.5t-55 99.5t-18.5 91.5h203q11 -77 105 -135t208 -49q113 8 182 93.5t68 241.5v99q-122 -135 -301 -135q-209 0 -342 153t-133 379q0 227 133 379.5t342 152.5q192 0 313 -147
l12 127h232zM594 207q87 0 155.5 55.5t96.5 145.5v208q-28 90 -96.5 146.5t-155.5 56.5q-121 0 -195.5 -87.5t-74.5 -219.5q0 -130 74.5 -217.5t195.5 -87.5z" />
    <glyph glyph-name="gbreve.001" horiz-adv-x="1177" 
d="M618 1147q-161 0 -258.5 89t-97.5 251h150q0 -77 57.5 -134t148.5 -57q92 0 151.5 57t59.5 134h148q0 -162 -98.5 -251t-260.5 -89zM580 -508q-224 -4 -360 78t-157 213q-12 78 21.5 165.5t112.5 131.5q-46 16 -81.5 65.5t-35.5 106.5q0 125 149 205q-51 49 -87 128.5
t-36 166.5q0 161 131 275t332 114q72 0 157 -21.5t130 -56.5q16 50 64.5 87.5t103 51t96.5 4.5v-174q-48 15 -94 -1t-65 -64q92 -119 92 -230q0 -182 -135.5 -297.5t-337.5 -120.5q-137 -7 -215 41q-34 -12 -50.5 -35t-7.5 -46q8 -27 48 -46t112 -20l223 -2
q180 -3 291.5 -76.5t126.5 -206.5q21 -202 -124.5 -316t-403.5 -120zM793 739q0 85 -62.5 134t-161.5 49q-96 0 -156.5 -50.5t-60.5 -134.5t61 -136t156 -52q99 0 161.5 52t62.5 138zM856 -119q-5 121 -283 121h-174q-45 -11 -71.5 -52t-26.5 -85q0 -75 71 -115.5t187 -40.5
q139 0 221 47t76 125z" />
    <glyph glyph-name="gcaron.001" horiz-adv-x="1177" 
d="M455 1186l-213 350h190l158 -233l158 233h190l-215 -350h-268zM580 -508q-224 -4 -360 78t-157 213q-12 78 21.5 165.5t112.5 131.5q-46 16 -81.5 65.5t-35.5 106.5q0 125 149 205q-51 49 -87 128.5t-36 166.5q0 161 131 275t332 114q72 0 157 -21.5t130 -56.5
q16 50 64.5 87.5t103 51t96.5 4.5v-174q-48 15 -94 -1t-65 -64q92 -119 92 -230q0 -182 -135.5 -297.5t-337.5 -120.5q-137 -7 -215 41q-34 -12 -50.5 -35t-7.5 -46q8 -27 48 -46t112 -20l223 -2q180 -3 291.5 -76.5t126.5 -206.5q21 -202 -124.5 -316t-403.5 -120zM793 739
q0 85 -62.5 134t-161.5 49q-96 0 -156.5 -50.5t-60.5 -134.5t61 -136t156 -52q99 0 161.5 52t62.5 138zM856 -119q-5 121 -283 121h-174q-45 -11 -71.5 -52t-26.5 -85q0 -75 71 -115.5t187 -40.5q139 0 221 47t76 125z" />
    <glyph glyph-name="uni0123.001" horiz-adv-x="1177" 
d="M649 1452q46 -17 73.5 -55.5t27.5 -85.5q0 -63 -43.5 -106.5t-106.5 -43.5q-61 0 -103 43.5t-42 106.5q0 54 43.5 136.5t97.5 149.5h137zM580 -508q-224 -4 -360 78t-157 213q-12 78 21.5 165.5t112.5 131.5q-46 16 -81.5 65.5t-35.5 106.5q0 125 149 205
q-51 49 -87 128.5t-36 166.5q0 161 131 275t332 114q72 0 157 -21.5t130 -56.5q16 50 64.5 87.5t103 51t96.5 4.5v-174q-48 15 -94 -1t-65 -64q92 -119 92 -230q0 -182 -135.5 -297.5t-337.5 -120.5q-137 -7 -215 41q-34 -12 -50.5 -35t-7.5 -46q8 -27 48 -46t112 -20
l223 -2q180 -3 291.5 -76.5t126.5 -206.5q21 -202 -124.5 -316t-403.5 -120zM793 739q0 85 -62.5 134t-161.5 49q-96 0 -156.5 -50.5t-60.5 -134.5t61 -136t156 -52q99 0 161.5 52t62.5 138zM856 -119q-5 121 -283 121h-174q-45 -11 -71.5 -52t-26.5 -85q0 -75 71 -115.5
t187 -40.5q139 0 221 47t76 125z" />
    <glyph glyph-name="gdotaccent.001" horiz-adv-x="1177" 
d="M590 1190q-63 0 -107.5 44t-44.5 107q0 62 44.5 106t107.5 44q62 0 106.5 -44.5t44.5 -105.5q0 -63 -44.5 -107t-106.5 -44zM580 -508q-224 -4 -360 78t-157 213q-12 78 21.5 165.5t112.5 131.5q-46 16 -81.5 65.5t-35.5 106.5q0 125 149 205q-51 49 -87 128.5t-36 166.5
q0 161 131 275t332 114q72 0 157 -21.5t130 -56.5q16 50 64.5 87.5t103 51t96.5 4.5v-174q-48 15 -94 -1t-65 -64q92 -119 92 -230q0 -182 -135.5 -297.5t-337.5 -120.5q-137 -7 -215 41q-34 -12 -50.5 -35t-7.5 -46q8 -27 48 -46t112 -20l223 -2q180 -3 291.5 -76.5
t126.5 -206.5q21 -202 -124.5 -316t-403.5 -120zM793 739q0 85 -62.5 134t-161.5 49q-96 0 -156.5 -50.5t-60.5 -134.5t61 -136t156 -52q99 0 161.5 52t62.5 138zM856 -119q-5 121 -283 121h-174q-45 -11 -71.5 -52t-26.5 -85q0 -75 71 -115.5t187 -40.5q139 0 221 47
t76 125z" />
    <glyph glyph-name="h.001" horiz-adv-x="1226" 
d="M719 1044q178 0 278.5 -99t100.5 -277v-668h-258v637q0 89 -50.5 135.5t-144.5 46.5q-103 0 -178.5 -54.5t-75.5 -141.5v-623h-258v1536h258v-627q57 63 145.5 99t182.5 36z" />
    <glyph glyph-name="hbar.001" horiz-adv-x="1226" 
d="M760 1137q194 0 304 -108.5t110 -301.5v-727h-281v692q0 96 -56 147.5t-159 51.5q-110 0 -192.5 -59.5t-82.5 -155.5v-676h-280v1198h-107v152h107v186h280v-186h277v-152h-277v-209q61 67 158.5 107.5t198.5 40.5z" />
    <glyph glyph-name="uni1E25.001" horiz-adv-x="1226" 
d="M760 1137q194 0 304 -108.5t110 -301.5v-727h-281v692q0 96 -56 147.5t-159 51.5q-110 0 -192.5 -59.5t-82.5 -155.5v-676h-280v1536h280v-547q61 67 158.5 107.5t198.5 40.5zM606 -115q62 0 107 -44t45 -105q0 -63 -45 -107.5t-107 -44.5q-63 0 -107 44.5t-44 107.5
q0 62 44 105.5t107 43.5z" />
    <glyph glyph-name="i.001" horiz-adv-x="561" 
d="M283 1204q-61 0 -106.5 45t-45.5 107q0 63 45 107t107 44t106.5 -44t44.5 -107q0 -62 -45 -107t-106 -45zM154 1024h258v-1024h-258v1024z" />
    <glyph glyph-name="dotlessi.001" horiz-adv-x="524" 
d="M133 1024h258v-1024h-258v1024z" />
    <glyph glyph-name="iacute.001" horiz-adv-x="524" 
d="M342 1536h260l-235 -334h-199zM133 1024h258v-1024h-258v1024z" />
    <glyph glyph-name="uni01D0.001" horiz-adv-x="524" 
d="M-88 1536h192l158 -233l158 233h190l-215 -350h-268zM133 1024h258v-1024h-258v1024z" />
    <glyph glyph-name="icircumflex.001" horiz-adv-x="524" 
d="M127 1536h268l215 -350h-198l-150 235l-149 -235h-201zM133 1024h258v-1024h-258v1024z" />
    <glyph glyph-name="idieresis.001" horiz-adv-x="524" 
d="M51 1190q-63 0 -108 44t-45 107q0 62 45 106t108 44q61 0 105.5 -44.5t44.5 -105.5q0 -63 -44 -107t-106 -44zM475 1190q-62 0 -106.5 44t-44.5 107q0 61 44.5 105.5t106.5 44.5q61 0 105.5 -44.5t44.5 -105.5q0 -63 -44 -107t-106 -44zM133 1024h258v-1024h-258v1024z
" />
    <glyph glyph-name="i.loclTRK.001" horiz-adv-x="661" 
d="M283 1204q-61 0 -106.5 45t-45.5 107q0 63 45 107t107 44t106.5 -44t44.5 -107q0 -62 -45 -107t-106 -45zM154 1024h258v-1024h-258v1024z" />
    <glyph glyph-name="uni1ECB.001" horiz-adv-x="577" 
d="M289 1204q-61 0 -106.5 45t-45.5 107q0 63 45 107t107 44t106.5 -44t44.5 -107q0 -62 -45 -107t-106 -45zM160 1024h258v-1024h-258v1024zM301 -449q-63 0 -107 44.5t-44 107.5q0 62 44 107t107 45q61 0 105.5 -45t44.5 -107q0 -63 -44 -107.5t-106 -44.5z" />
    <glyph glyph-name="igrave.001" horiz-adv-x="524" 
d="M-88 1536h262l174 -334h-194zM133 1024h258v-1024h-258v1024z" />
    <glyph glyph-name="ij.001" horiz-adv-x="1267" 
d="M309 1235q-62 0 -107.5 45.5t-45.5 108.5t45.5 108t107.5 45q63 0 108.5 -45t45.5 -108t-45.5 -108.5t-108.5 -45.5zM952 1235q-63 0 -108 44t-45 107q0 62 45 106t108 44q60 0 105 -44.5t45 -105.5q0 -62 -44.5 -106.5t-105.5 -44.5zM608 -510v227h49q86 0 125 35.5
t39 118.5v1255h258v-1276q0 -74 -18.5 -133.5t-52 -97.5t-74 -64.5t-90.5 -40t-94 -19t-93 -5.5h-49zM178 1051h260v-1051h-260v1051z" />
    <glyph glyph-name="imacron.001" horiz-adv-x="524" 
d="M-57 1372h637v-164h-637v164zM133 1024h258v-1024h-258v1024z" />
    <glyph glyph-name="iogonek.001" horiz-adv-x="524" 
d="M262 1190q-62 0 -106.5 44t-44.5 107q0 61 44.5 105.5t106.5 44.5t107 -44.5t45 -105.5q0 -63 -45 -107t-107 -44zM471 -414q-63 -63 -144.5 -92.5t-168.5 -23.5q-115 6 -186.5 64t-71.5 163q0 92 60.5 169.5t176.5 133.5h-4v1024h258v-1024h-24q-125 -9 -208 -97
t-83 -184q0 -55 33 -87.5t92 -32.5q55 0 105.5 28.5t80.5 73.5z" />
    <glyph glyph-name="itilde.001" horiz-adv-x="524" 
d="M399 1176q-122 0 -200 116q-29 45 -70 45q-39 0 -54.5 -41t1.5 -104h-154q-24 127 35.5 211t165.5 84q126 0 203 -117q26 -45 67 -45t56.5 40t-3.5 103h154q26 -125 -32 -208.5t-169 -83.5zM133 1024h258v-1024h-258v1024z" />
    <glyph glyph-name="j.001" horiz-adv-x="542" 
d="M289 1204q-61 0 -106.5 45t-45.5 107q0 63 45 107t107 44t106.5 -44t44.5 -107q0 -62 -45 -107t-106 -45zM10 -518v225q75 2 112.5 37.5t37.5 136.5v1143h258v-1159q0 -96 -25.5 -169t-66.5 -115t-96 -67t-109 -31.5t-111 -0.5z" />
    <glyph glyph-name="uni0237.001" horiz-adv-x="606" 
d="M78 -532q-40 0 -83 9.5t-63 22.5v217q21 -17 54.5 -28t60.5 -11q57 0 96 44t39 108v1194h258v-1210q0 -146 -105 -246t-257 -100z" />
    <glyph glyph-name="k.001" horiz-adv-x="1105" 
d="M133 0v1536h258v-897l303 385h277l-381 -465l469 -559h-273l-395 485v-485h-258z" />
    <glyph glyph-name="uni0137.001" horiz-adv-x="1114" 
d="M111 0v1536h280v-836l344 426h291l-434 -518l485 -608h-297l-389 492v-492h-280zM541 -365q-44 17 -71.5 57t-27.5 87q0 62 43.5 105.5t106.5 43.5q60 0 102.5 -43.5t42.5 -105.5q0 -55 -43.5 -138.5t-97.5 -150.5h-139z" />
    <glyph glyph-name="l.001" horiz-adv-x="585" 
d="M152 0v1536h258v-1536h-258z" />
    <glyph glyph-name="lacute.001" horiz-adv-x="714" 
d="M330 2048h260l-238 -334h-196zM150 0v1536h258v-1536h-258z" />
    <glyph glyph-name="lcaron.001" horiz-adv-x="927" 
d="M680 1257q-44 17 -71 57t-27 87q0 62 43 105.5t106 43.5q60 0 103 -44t43 -105q0 -55 -44 -138.5t-98 -150.5h-139zM150 0v1536h258v-1536h-258z" />
    <glyph glyph-name="uni013C.001" horiz-adv-x="714" 
d="M150 0v1536h258v-1536h-258zM229 -383q-44 17 -71 55.5t-27 85.5q0 63 43.5 106.5t106.5 43.5q60 0 102.5 -43.5t42.5 -106.5q0 -54 -43.5 -136.5t-97.5 -149.5h-140z" />
    <glyph glyph-name="ldot.001" horiz-adv-x="780" 
d="M150 0v1536h258v-1536h-258zM629 625q-46 0 -79.5 32.5t-33.5 79.5q0 46 33.5 80.5t79.5 34.5q45 0 79.5 -35t34.5 -80q0 -46 -34.5 -79t-79.5 -33z" />
    <glyph glyph-name="uni1E37.001" horiz-adv-x="714" 
d="M150 0v1536h258v-1536h-258zM283 -416q-63 0 -107.5 44.5t-44.5 107.5q0 62 44.5 105.5t107.5 43.5q61 0 105 -43.5t44 -105.5q0 -63 -43.5 -107.5t-105.5 -44.5z" />
    <glyph glyph-name="lslash.001" horiz-adv-x="714" 
d="M657 1083l-247 -258l-2 -2v-823h-258v553l-93 -94h-159l252 264v813h258v-541l2 2l82 86h165z" />
    <glyph glyph-name="m.001" horiz-adv-x="1851" 
d="M1362 1044q170 0 266 -97.5t96 -272.5v-674h-258v643q0 86 -45 131t-131 45q-94 0 -163.5 -53t-69.5 -139v-627h-258v643q0 176 -174 176q-94 0 -164 -53t-70 -139v-627h-258v1024h234l12 -119q53 63 139 101t178 38q200 0 303 -174q59 79 157.5 126.5t205.5 47.5z" />
    <glyph glyph-name="n.001" horiz-adv-x="1159" 
d="M690 1044q178 0 278.5 -99t100.5 -277v-668h-258v637q0 89 -50.5 135.5t-146.5 46.5q-102 0 -177 -54.5t-75 -141.5v-623h-258v1024h232l14 -127q59 68 150.5 107.5t189.5 39.5z" />
    <glyph glyph-name="nacute.001" horiz-adv-x="1247" 
d="M719 1202h-199l176 334h258zM741 1141q193 0 302.5 -109t109.5 -303v-729h-279v696q0 96 -55 147.5t-157 51.5q-111 0 -193 -59t-82 -154v-682h-281v1126h250l19 -147q61 74 161 118t205 44z" />
    </font>
</defs>
</svg>
